G04 ================== begin FILE IDENTIFICATION RECORD ==================*
G04 Layout Name:  C:/RTK0EMA170C00000BJ_rev02/RTK0EMA170C00000BJ_rev02.brd*
G04 Film Name:    L3*
G04 File Format:  Gerber RS274X*
G04 File Origin:  Cadence Allegro 16.5-S052*
G04 Origin Date:  Tue May 12 15:40:34 2020*
G04 *
G04 Layer:  VIA CLASS/L3*
G04 Layer:  PIN/L3*
G04 Layer:  ETCH/L3*
G04 *
G04 Offset:    (0.0000 0.0000)*
G04 Mirror:    No*
G04 Mode:      Negative*
G04 Rotation:  0*
G04 FullContactRelief:  No*
G04 UndefLineWidth:     0.0000*
G04 ================== end FILE IDENTIFICATION RECORD ====================*
%FSLAX55Y55*MOMM*%
%IR0*IPPOS*OFA0.00000B0.00000*MIA0B0*SFA1.00000B1.00000*%
%AMMACRO21*
4,1,17,.6076,.3955,
.667047,.283983,
.706226,.163837,
.723947,.038713,
.719671,-.087587,
.693528,-.211226,
.646313,-.328447,
.6076,-.3955,
.7694,-.5573,
.854485,-.415228,
.913607,-.26054,
.94497,-.097936,
.94762,.067644,
.921477,.231169,
.867336,.38767,
.786841,.532392,
.7694,.5573,
.6076,.3955,
180.*
4,1,17,.3955,-.6076,
.283983,-.667047,
.163837,-.706226,
.038713,-.723947,
-.087587,-.719671,
-.211226,-.693528,
-.328447,-.646313,
-.3955,-.6076,
-.5573,-.7694,
-.415228,-.854485,
-.26054,-.913607,
-.097936,-.94497,
.067644,-.94762,
.231169,-.921477,
.38767,-.867336,
.532392,-.786841,
.5573,-.7694,
.3955,-.6076,
180.*
4,1,17,-.6076,-.3955,
-.667047,-.283983,
-.706226,-.163837,
-.723947,-.038713,
-.719671,.087587,
-.693528,.211226,
-.646313,.328447,
-.6076,.3955,
-.7694,.5573,
-.854485,.415228,
-.913607,.26054,
-.94497,.097936,
-.94762,-.067644,
-.921477,-.231169,
-.867336,-.38767,
-.786841,-.532392,
-.7694,-.5573,
-.6076,-.3955,
180.*
4,1,17,-.3955,.6076,
-.283983,.667047,
-.163837,.706226,
-.038713,.723947,
.087587,.719671,
.211226,.693528,
.328447,.646313,
.3955,.6076,
.5573,.7694,
.415228,.854485,
.26054,.913607,
.097936,.94497,
-.067644,.94762,
-.231169,.921477,
-.38767,.867336,
-.532392,.786841,
-.5573,.7694,
-.3955,.6076,
180.*
%
%ADD21MACRO21*%
%AMMACRO10*
4,1,17,.6076,.3955,
.667047,.283983,
.706226,.163837,
.723947,.038713,
.719671,-.087587,
.693528,-.211226,
.646313,-.328447,
.6076,-.3955,
.7694,-.5573,
.854485,-.415228,
.913607,-.26054,
.94497,-.097936,
.94762,.067644,
.921477,.231169,
.867336,.38767,
.786841,.532392,
.7694,.5573,
.6076,.3955,
270.*
4,1,17,.3955,-.6076,
.283983,-.667047,
.163837,-.706226,
.038713,-.723947,
-.087587,-.719671,
-.211226,-.693528,
-.328447,-.646313,
-.3955,-.6076,
-.5573,-.7694,
-.415228,-.854485,
-.26054,-.913607,
-.097936,-.94497,
.067644,-.94762,
.231169,-.921477,
.38767,-.867336,
.532392,-.786841,
.5573,-.7694,
.3955,-.6076,
270.*
4,1,17,-.6076,-.3955,
-.667047,-.283983,
-.706226,-.163837,
-.723947,-.038713,
-.719671,.087587,
-.693528,.211226,
-.646313,.328447,
-.6076,.3955,
-.7694,.5573,
-.854485,.415228,
-.913607,.26054,
-.94497,.097936,
-.94762,-.067644,
-.921477,-.231169,
-.867336,-.38767,
-.786841,-.532392,
-.7694,-.5573,
-.6076,-.3955,
270.*
4,1,17,-.3955,.6076,
-.283983,.667047,
-.163837,.706226,
-.038713,.723947,
.087587,.719671,
.211226,.693528,
.328447,.646313,
.3955,.6076,
.5573,.7694,
.415228,.854485,
.26054,.913607,
.097936,.94497,
-.067644,.94762,
-.231169,.921477,
-.38767,.867336,
-.532392,.786841,
-.5573,.7694,
-.3955,.6076,
270.*
%
%ADD10MACRO10*%
%AMMACRO14*
4,1,17,-.6076,.3955,
-.667047,.283983,
-.706226,.163837,
-.723947,.038713,
-.719671,-.087587,
-.693528,-.211226,
-.646313,-.328447,
-.6076,-.3955,
-.7694,-.5573,
-.854485,-.415228,
-.913607,-.26054,
-.94497,-.097936,
-.94762,.067644,
-.921477,.231169,
-.867336,.38767,
-.786841,.532392,
-.7694,.5573,
-.6076,.3955,
270.*
4,1,17,-.3955,-.6076,
-.283983,-.667047,
-.163837,-.706226,
-.038713,-.723947,
.087587,-.719671,
.211226,-.693528,
.328447,-.646313,
.3955,-.6076,
.5573,-.7694,
.415228,-.854485,
.26054,-.913607,
.097936,-.94497,
-.067644,-.94762,
-.231169,-.921477,
-.38767,-.867336,
-.532392,-.786841,
-.5573,-.7694,
-.3955,-.6076,
270.*
4,1,17,.6076,-.3955,
.667047,-.283983,
.706226,-.163837,
.723947,-.038713,
.719671,.087587,
.693528,.211226,
.646313,.328447,
.6076,.3955,
.7694,.5573,
.854485,.415228,
.913607,.26054,
.94497,.097936,
.94762,-.067644,
.921477,-.231169,
.867336,-.38767,
.786841,-.532392,
.7694,-.5573,
.6076,-.3955,
270.*
4,1,17,.3955,.6076,
.283983,.667047,
.163837,.706226,
.038713,.723947,
-.087587,.719671,
-.211226,.693528,
-.328447,.646313,
-.3955,.6076,
-.5573,.7694,
-.415228,.854485,
-.26054,.913607,
-.097936,.94497,
.067644,.94762,
.231169,.921477,
.38767,.867336,
.532392,.786841,
.5573,.7694,
.3955,.6076,
270.*
%
%ADD14MACRO14*%
%ADD12C,.7*%
%AMMACRO17*
4,1,15,.4802,.2681,
.51946,.180641,
.542936,.087694,
.549915,-.007919,
.540186,-.10329,
.514043,-.195523,
.4802,-.2681,
.6437,-.4316,
.708867,-.313266,
.752496,-.185413,
.773261,-.051927,
.77053,.083138,
.744387,.215676,
.695627,.341661,
.6437,.4316,
.4802,.2681,
0.0*
4,1,15,.2681,-.4802,
.180641,-.51946,
.087694,-.542936,
-.007919,-.549915,
-.10329,-.540186,
-.195523,-.514043,
-.2681,-.4802,
-.4316,-.6437,
-.313266,-.708867,
-.185413,-.752496,
-.051927,-.773261,
.083138,-.77053,
.215676,-.744387,
.341661,-.695627,
.4316,-.6437,
.2681,-.4802,
0.0*
4,1,15,-.4802,-.2681,
-.51946,-.180641,
-.542936,-.087694,
-.549915,.007919,
-.540186,.10329,
-.514043,.195523,
-.4802,.2681,
-.6437,.4316,
-.708867,.313266,
-.752496,.185413,
-.773261,.051927,
-.77053,-.083138,
-.744387,-.215676,
-.695627,-.341661,
-.6437,-.4316,
-.4802,-.2681,
0.0*
4,1,15,-.2681,.4802,
-.180641,.51946,
-.087694,.542936,
.007919,.549915,
.10329,.540186,
.195523,.514043,
.2681,.4802,
.4316,.6437,
.313266,.708867,
.185413,.752496,
.051927,.773261,
-.083138,.77053,
-.215676,.744387,
-.341661,.695627,
-.4316,.6437,
-.2681,.4802,
0.0*
%
%ADD17MACRO17*%
%AMMACRO15*
4,1,17,.6076,.3955,
.667047,.283983,
.706226,.163837,
.723947,.038713,
.719671,-.087587,
.693528,-.211226,
.646313,-.328447,
.6076,-.3955,
.7694,-.5573,
.854485,-.415228,
.913607,-.26054,
.94497,-.097936,
.94762,.067644,
.921477,.231169,
.867336,.38767,
.786841,.532392,
.7694,.5573,
.6076,.3955,
0.0*
4,1,17,.3955,-.6076,
.283983,-.667047,
.163837,-.706226,
.038713,-.723947,
-.087587,-.719671,
-.211226,-.693528,
-.328447,-.646313,
-.3955,-.6076,
-.5573,-.7694,
-.415228,-.854485,
-.26054,-.913607,
-.097936,-.94497,
.067644,-.94762,
.231169,-.921477,
.38767,-.867336,
.532392,-.786841,
.5573,-.7694,
.3955,-.6076,
0.0*
4,1,17,-.6076,-.3955,
-.667047,-.283983,
-.706226,-.163837,
-.723947,-.038713,
-.719671,.087587,
-.693528,.211226,
-.646313,.328447,
-.6076,.3955,
-.7694,.5573,
-.854485,.415228,
-.913607,.26054,
-.94497,.097936,
-.94762,-.067644,
-.921477,-.231169,
-.867336,-.38767,
-.786841,-.532392,
-.7694,-.5573,
-.6076,-.3955,
0.0*
4,1,17,-.3955,.6076,
-.283983,.667047,
-.163837,.706226,
-.038713,.723947,
.087587,.719671,
.211226,.693528,
.328447,.646313,
.3955,.6076,
.5573,.7694,
.415228,.854485,
.26054,.913607,
.097936,.94497,
-.067644,.94762,
-.231169,.921477,
-.38767,.867336,
-.532392,.786841,
-.5573,.7694,
-.3955,.6076,
0.0*
%
%ADD15MACRO15*%
%ADD20C,2.*%
%ADD13C,1.2*%
%ADD18C,1.5*%
%ADD19C,3.4*%
%ADD16C,1.7*%
%ADD11C,1.9*%
G75*
%LPD*%
G75*
G36*
G01X-259000Y-259000D02*
X8080000D01*
Y7211000D01*
X-259000D01*
Y-259000D01*
G37*
%LPC*%
G75*
G36*
G01X7273030Y2900000D02*
X7520000D01*
X7570000Y2850000D01*
Y570000D01*
X7300000Y300000D01*
X6600000D01*
X6550000Y350000D01*
Y970000D01*
X6270000Y1250000D01*
X5830000D01*
X5550000Y970000D01*
X1500000D01*
X780000Y250000D01*
X300000D01*
X250000Y300000D01*
Y2850000D01*
X300000Y2900000D01*
X530000D01*
X697960Y2732040D01*
X698640Y2730260D01*
G03X730260Y2698640I51360J19740D01*
G01X732040Y2697960D01*
X797960Y2632040D01*
X798640Y2630260D01*
G03X830260Y2598640I51360J19740D01*
G01X832040Y2597960D01*
X1047960Y2382040D01*
X1048640Y2380260D01*
G03X1080260Y2348640I51360J19740D01*
G01X1082040Y2347960D01*
X1130000Y2300000D01*
X1970000D01*
X2217960Y2547960D01*
X2219740Y2548640D01*
G03X2251360Y2580260I-19740J51360D01*
G01X2252040Y2582040D01*
X2850000Y3180000D01*
Y4420000D01*
X2450000Y4820000D01*
Y5330000D01*
X2470000Y5350000D01*
X2600000D01*
X2650000Y5400000D01*
Y5820000D01*
X2550000Y5920000D01*
Y6126970D01*
X2550710Y6128640D01*
G03Y6171360I-50710J21360D01*
G01X2550000Y6173030D01*
Y6650000D01*
X2600000Y6700000D01*
X6150000D01*
X6200000Y6650000D01*
Y5740000D01*
X6150000Y5690000D01*
X5340000D01*
X5290000Y5640000D01*
Y5450000D01*
X5340000Y5400000D01*
X6600000D01*
X6650000Y5350000D01*
Y3770000D01*
X6600000Y3720000D01*
X6010000D01*
X5863900Y3866100D01*
X5867430Y3872110D01*
G03X5792110Y3947430I-47430J27890D01*
G01X5786100Y3943900D01*
X5570000Y4160000D01*
X5230000D01*
X5180000Y4110000D01*
Y3850000D01*
X5609630Y3420370D01*
X5608830Y3415770D01*
G03X5785420Y3364460I91166J-15773D01*
G01X5787730Y3370000D01*
X6053880D01*
G03X6146120I46120J30000D01*
G01X6410000D01*
X6461620Y3318380D01*
X6460580Y3313590D01*
G03X6570590Y3203580I90420J-19590D01*
G01X6575380Y3204620D01*
X6880000Y2900000D01*
X7226970D01*
X7228640Y2899290D01*
G03X7271360I21360J50710D01*
G01X7273030Y2900000D01*
G37*
G36*
G01X1152150Y3127850D02*
X1149660Y3122210D01*
G03X1222210Y3049660I50340J-22210D01*
G01X1227850Y3052150D01*
X1600000Y2680000D01*
Y2370000D01*
X1580000Y2350000D01*
X1150000D01*
X550000Y2950000D01*
X280000D01*
X200000Y2870000D01*
Y280000D01*
X280000Y200000D01*
Y100020D01*
X149980D01*
X100020Y149980D01*
Y6800020D01*
X150000Y6850000D01*
X7670000D01*
X7720000Y6800000D01*
Y150000D01*
X7670020Y100020D01*
X7570000D01*
Y250000D01*
X7620000Y300000D01*
Y2298300D01*
G03Y2301700I-80000J1700D01*
G01Y2870000D01*
X7540000Y2950000D01*
X6900000D01*
X6619110Y3230890D01*
X6624000Y3237160D01*
G03X6494160Y3367000I-73000J56840D01*
G01X6487890Y3362110D01*
X6430000Y3420000D01*
X6151550D01*
X6149050Y3424920D01*
G03X6050950I-49050J-24920D01*
G01X6048450Y3420000D01*
X5790580D01*
X5788660Y3426430D01*
G03X5634580Y3465420I-88662J-26432D01*
G01X5230000Y3870000D01*
Y4090000D01*
X5250000Y4110000D01*
X5550000D01*
X5765140Y3894860D01*
X5765580Y3891920D01*
G03X5811920Y3845580I54420J8080D01*
G01X5814860Y3845140D01*
X5990000Y3670000D01*
X6620000D01*
X6700000Y3750000D01*
Y5370000D01*
X6620000Y5450000D01*
X5360000D01*
X5340000Y5470000D01*
Y5620000D01*
X5360000Y5640000D01*
X6170000D01*
X6250000Y5720000D01*
Y6670000D01*
X6170000Y6750000D01*
X2580000D01*
X2500000Y6670000D01*
Y6646900D01*
X2499070Y6645010D01*
G03X2500000Y6561150I82931J-41015D01*
G01Y6392850D01*
G03Y6307150I82000J-42850D01*
G01Y5900000D01*
X2600000Y5800000D01*
Y5420000D01*
X2580000Y5400000D01*
X2470000D01*
X2450000Y5420000D01*
Y5550000D01*
X2300000Y5700000D01*
Y6020000D01*
X2090000Y6230000D01*
X1770000D01*
X1690000Y6310000D01*
Y6680000D01*
X1620000Y6750000D01*
X323030D01*
X321360Y6750710D01*
G03X248640Y6719740I-21359J-50708D01*
G01X247960Y6717960D01*
X200000Y6670000D01*
Y5030000D01*
X300000Y4930000D01*
Y4770000D01*
X200000Y4670000D01*
Y3500000D01*
X280000Y3420000D01*
X1050000D01*
X1100000Y3370000D01*
Y3180000D01*
X1152150Y3127850D01*
G37*
G36*
G01X6055020Y100000D02*
Y100020D01*
X270000D01*
Y200000D01*
X800000D01*
X1520000Y920000D01*
X1753520D01*
G03X1846480I46480J80000D01*
G01X2003520D01*
G03X2096480I46480J80000D01*
G01X2253520D01*
G03X2346480I46480J80000D01*
G01X4298300D01*
G03X4301700I1700J80000D01*
G01X5400000D01*
X5450000Y870000D01*
Y330000D01*
X5530000Y250000D01*
X5806970D01*
X5808640Y249290D01*
G03X5851360I21360J50710D01*
G01X5853030Y250000D01*
X7026970D01*
X7028640Y249290D01*
G03X7071360I21360J50710D01*
G01X7073030Y250000D01*
X7580000D01*
Y100020D01*
X6824980D01*
Y100000D01*
X6055020D01*
G37*
G36*
G01X1254930Y3095070D02*
X1255010Y3098900D01*
G03X1198900Y3155010I-55010J1100D01*
G01X1195070Y3154930D01*
X1150000Y3200000D01*
Y3470000D01*
X300000D01*
X250000Y3520000D01*
Y4650000D01*
X350000Y4750000D01*
Y4950000D01*
X250000Y5050000D01*
Y6650000D01*
X300000Y6700000D01*
X1600000D01*
X1640000Y6660000D01*
Y6290000D01*
X1750000Y6180000D01*
X2070000D01*
X2250000Y6000000D01*
Y5670000D01*
X2400000Y5520000D01*
Y4800000D01*
X2800000Y4400000D01*
Y3200000D01*
X1950000Y2350000D01*
X1670000D01*
X1650000Y2370000D01*
Y2700000D01*
X1254930Y3095070D01*
G37*
G36*
G01X5500000Y350000D02*
Y850000D01*
X5850000Y1200000D01*
X6250000D01*
X6500000Y950000D01*
Y350000D01*
X6450000Y300000D01*
X5550000D01*
X5500000Y350000D01*
G37*
%LPD*%
G75*
G36*
G01X4150000Y2040000D02*
X4130000Y2020000D01*
Y1950000D01*
X4110000Y1930000D01*
X2950000D01*
X2930000Y1950000D01*
Y2020000D01*
X2910000Y2040000D01*
X2740000D01*
X2720000Y2060000D01*
Y2340000D01*
X2740000Y2360000D01*
X2910000D01*
X2930000Y2380000D01*
Y2450000D01*
X2950000Y2470000D01*
X4110000D01*
X4130000Y2450000D01*
Y2380000D01*
X4150000Y2360000D01*
X4320000D01*
X4340000Y2340000D01*
Y2060000D01*
X4320000Y2040000D01*
X4150000D01*
G37*
G36*
G01X7380000Y3990000D02*
X7600000Y3770000D01*
Y3340000D01*
X7380000Y3120000D01*
X6910000D01*
X6790000Y3240000D01*
Y3870000D01*
X6910000Y3990000D01*
X7380000D01*
G37*
G54D10*
X350000Y380000D03*
Y2292000D03*
G54D21*
X7500000Y6600000D03*
G54D14*
X709000Y3294000D03*
X963000D03*
X6297000Y3548000D03*
X6551000D03*
G54D17*
X4400000Y1100000D03*
G54D15*
X1200000Y350000D03*
X1750000Y1950000D03*
Y2550000D03*
X3000000Y350000D03*
X6070000Y6600000D03*
X7350000Y5950000D03*
G54D20*
X6985000Y3556000D03*
X7493000Y3454400D03*
Y3657600D03*
G54D13*
X300000Y5180000D03*
Y6300000D03*
Y6700000D03*
X800000Y400000D03*
X900000Y900000D03*
Y1300000D03*
X800000Y1150000D03*
X850000Y2000000D03*
X550000Y2100000D03*
X850000Y1900000D03*
X550000Y2500000D03*
X750000Y2650000D03*
X850000D03*
X500000Y2750000D03*
Y3200000D03*
Y3000000D03*
X850000Y2750000D03*
Y2850000D03*
X750000Y2750000D03*
X500000Y2850000D03*
X750000D03*
X500000Y4700000D03*
Y4900000D03*
Y5250000D03*
Y5360000D03*
X400000Y5180000D03*
X600000Y5600000D03*
Y6000000D03*
X1300000Y900000D03*
X950000Y1510000D03*
X1300000D03*
Y1630000D03*
X950000D03*
X1300000Y1300000D03*
X1150000Y2100000D03*
Y1900000D03*
Y2000000D03*
X1050000D03*
Y1900000D03*
Y2100000D03*
X1300000Y1750000D03*
X950000D03*
X1250000Y1900000D03*
X1100000Y2400000D03*
X1370000Y2680000D03*
X1170000D03*
X1270000D03*
X950000Y2650000D03*
X1200000Y3100000D03*
X950000Y2750000D03*
Y2850000D03*
X1200000Y3500000D03*
X1160000Y3800000D03*
X1420000Y3700000D03*
Y4250000D03*
Y4050000D03*
Y4150000D03*
X1160000Y4700000D03*
Y4350000D03*
X1420000D03*
Y4700000D03*
Y4550000D03*
X1160000Y5000000D03*
X1420000D03*
X1160000Y5200000D03*
X1000000Y5600000D03*
X1250000Y5490000D03*
X1450000Y5750000D03*
X1400000Y6010000D03*
X1700000Y1510000D03*
Y1630000D03*
X1900000Y1300000D03*
X1700000Y1750000D03*
X2000000Y1950000D03*
X1900000D03*
X1700000Y2900000D03*
X1830000Y3600000D03*
X1680000Y4250000D03*
Y4150000D03*
X1830000Y3900000D03*
X1680000Y4550000D03*
Y4450000D03*
Y4800000D03*
Y4900000D03*
X1850000Y5750000D03*
X1650000D03*
X1950000Y5490000D03*
X1850000Y6010000D03*
X1600000D03*
X1800000Y6800000D03*
X2400000Y400000D03*
X2100000Y1510000D03*
Y1630000D03*
X2200000Y2050000D03*
X2100000D03*
Y1750000D03*
X2200000Y1950000D03*
X2100000D03*
X2200000Y2600000D03*
X2300000Y2800000D03*
X2470000Y3200000D03*
X2260000Y3690000D03*
Y4190000D03*
Y4090000D03*
Y3990000D03*
X2490000Y4000000D03*
Y4220000D03*
X2400000Y4700000D03*
X2500000Y5020000D03*
Y5310000D03*
X2010000Y5370000D03*
X2340000Y5490000D03*
X2080000D03*
X2210000Y5750000D03*
Y5490000D03*
X2500000Y6150000D03*
X2200000Y6800000D03*
X2800000Y400000D03*
X2600000Y900000D03*
X3000000D03*
X2830000Y1080000D03*
Y1280000D03*
X2570000Y1380000D03*
X2830000Y1480000D03*
Y1580000D03*
Y1180000D03*
X2570000Y1580000D03*
Y1180000D03*
X2830000Y1380000D03*
X2890000Y2000000D03*
X2780000Y2730000D03*
X2650000Y2200000D03*
X2900000Y2500000D03*
X3050000D03*
X2800000Y2850000D03*
X2820000Y2970000D03*
X2550000Y3030000D03*
X2900000Y3200000D03*
X2550000Y3130000D03*
X2900000Y3500000D03*
Y3800000D03*
X2550000Y3270000D03*
X2560000Y3610000D03*
X2900000Y4100000D03*
X2590000Y4220000D03*
X2900000Y4250000D03*
X2590000Y4000000D03*
X2650000Y4490000D03*
X2900000Y4400000D03*
X3010000Y5310000D03*
X2890000D03*
X2770000D03*
X2790000Y5020000D03*
X2910000D03*
X3010000D03*
X2690000D03*
X2850000Y5950000D03*
X2700000D03*
X2780000Y5730000D03*
Y5600000D03*
Y5470000D03*
X3000000Y6100000D03*
X3450000Y1000000D03*
X3600000Y620000D03*
X3500000Y880000D03*
X3450000Y1110000D03*
X3340000Y700000D03*
X3150000Y1110000D03*
X3400000Y1500000D03*
X3450000Y1300000D03*
X3230000Y1850000D03*
X3200000Y2500000D03*
X3350000D03*
X3500000Y3200000D03*
X3200000D03*
X3500000Y3800000D03*
X3200000D03*
X3500000Y3500000D03*
X3200000D03*
X3500000Y4100000D03*
X3200000D03*
X3500000Y4400000D03*
X3200000D03*
X3140000Y4740000D03*
X3220000Y4800000D03*
X3300000Y4860000D03*
X3600000Y5100000D03*
X3550000Y5310000D03*
X3500000Y5100000D03*
X3550000Y4890000D03*
X3220000Y4920000D03*
X3300000Y4980000D03*
Y5100000D03*
X3220000Y5040000D03*
X3280000Y5970000D03*
X3150000Y6100000D03*
X3800000Y800000D03*
X3750000Y1050000D03*
X4070000Y1350000D03*
X3840000Y1400000D03*
X3830000Y1850000D03*
X4150000Y2500000D03*
X4000000D03*
X3850000D03*
X3700000D03*
X3740000Y2750000D03*
X4100000Y3200000D03*
X3800000D03*
X3900000D03*
X4000000D03*
X3850000Y2890000D03*
X4050000D03*
X3950000D03*
X3640000Y3200000D03*
X3900000Y3300000D03*
X4100000Y3500000D03*
X3800000Y3800000D03*
Y3500000D03*
X4100000Y3300000D03*
X4000000Y3800000D03*
X4100000D03*
X3800000Y3300000D03*
X3700000D03*
X4100000Y3400000D03*
X3800000Y4100000D03*
X4100000Y4141770D03*
Y4020000D03*
X4000000Y3960000D03*
Y4200000D03*
Y4080000D03*
X4120000Y4420000D03*
X3800000Y4400000D03*
X3680000Y5000000D03*
X4050000Y5200000D03*
Y5050000D03*
X3650000Y5310000D03*
X4020000Y5400000D03*
X3950000Y5050000D03*
Y4950000D03*
X3830000Y5790000D03*
X4200000Y400000D03*
Y800000D03*
X4600000Y790000D03*
X4200000Y1350000D03*
X4590000Y1340000D03*
X4400000Y1500000D03*
X4500000D03*
X4450000Y1970000D03*
X4690000Y2000000D03*
X4170000D03*
X4570000Y2450000D03*
X4690000D03*
X4500000Y2600000D03*
X4400000Y2200000D03*
X4510000Y3170000D03*
X4570000Y3390000D03*
X4460000Y3570000D03*
X4510000Y4300000D03*
X4540000Y4100000D03*
X4410000Y4300000D03*
X4650000Y4000000D03*
X4200000Y4700000D03*
Y4580000D03*
Y4820000D03*
X4510000Y4400000D03*
X4550000Y5370000D03*
Y5830000D03*
Y5600000D03*
Y5730000D03*
Y5470000D03*
X4280000Y5530000D03*
Y5660000D03*
Y5790000D03*
X4400000Y6350000D03*
X4600000Y6600000D03*
X5000000Y400000D03*
X4780000Y980000D03*
X5100000Y1580000D03*
X4720000Y1340000D03*
X4840000D03*
X5070000Y2180000D03*
X5190000D03*
X4950000Y2350000D03*
X5050000D03*
X4950000Y2910000D03*
X5050000Y4680000D03*
X4950000Y4800000D03*
X5050000D03*
X4950000Y4680000D03*
X4900000Y5150000D03*
X5000000D03*
X5200000Y5330000D03*
X4850000Y5410000D03*
X4800000Y5900000D03*
X5120000Y5600000D03*
Y5800000D03*
X4850000Y5540000D03*
X5180000Y6500000D03*
X4930000D03*
X5600000Y800000D03*
X5700000Y1580000D03*
X5500000D03*
X5300000D03*
X5310000Y2180000D03*
X5430000D03*
X5500000Y2350000D03*
Y3200000D03*
Y3000000D03*
X5400000Y3200000D03*
X5310000Y3100000D03*
X5600000Y3600000D03*
X5500000Y3500000D03*
Y3300000D03*
Y3400000D03*
X5650000Y3850000D03*
X5460000Y3940000D03*
X5630000Y4270000D03*
Y4550000D03*
X5460000Y4850000D03*
X5400000Y4550000D03*
X5330000Y4850000D03*
X5270000Y4550000D03*
X5530000D03*
X5590000Y4850000D03*
X5700000Y5100000D03*
Y5800000D03*
Y6000000D03*
X5300000D03*
X5440000Y6500000D03*
X5830000Y300000D03*
Y500000D03*
Y400000D03*
X6180000Y1050000D03*
X5850000Y750000D03*
X6180000Y850000D03*
X6300000Y1300000D03*
X5950000Y1150000D03*
X6250000D03*
X6300000Y1700000D03*
Y2100000D03*
X5860000Y1700000D03*
X6100000Y2600000D03*
X6230000Y2250000D03*
X5800000Y2350000D03*
X6230000D03*
X6100000Y3000000D03*
Y3400000D03*
X5820000Y3900000D03*
Y4000000D03*
Y4300000D03*
Y4600000D03*
Y4400000D03*
Y4500000D03*
X6080000Y4700000D03*
X6100000Y5300000D03*
X5820000Y5000000D03*
Y4900000D03*
X6100000Y5800000D03*
Y6000000D03*
X6620000Y750000D03*
X6700000Y670000D03*
X6800000D03*
X6600000Y860000D03*
X6730000Y1270000D03*
X6700000Y1700000D03*
Y2100000D03*
X6650000Y2540000D03*
X6850000Y3640000D03*
X6800000Y4400000D03*
Y4800000D03*
Y5200000D03*
X6650000Y6330000D03*
X6350000D03*
X6800000Y6800000D03*
X6400000D03*
X7050000Y300000D03*
Y400000D03*
Y500000D03*
X6900000Y670000D03*
X7000000D03*
X6900000Y1270000D03*
X7030000Y1400000D03*
X7080000Y1270000D03*
X7130000Y1430000D03*
X7100000Y1700000D03*
Y2100000D03*
X7130000Y1970000D03*
X7000000Y2600000D03*
X7200000Y2200000D03*
Y2500000D03*
X7170000Y2300000D03*
X7250000Y2950000D03*
X7143750Y3714750D03*
X7200000Y4800000D03*
Y4400000D03*
Y5200000D03*
X6950000Y6330000D03*
X7200000Y6800000D03*
X7500000Y900000D03*
Y600000D03*
Y1200000D03*
X7410000Y1330000D03*
X7450000Y1780000D03*
X7600000Y4000000D03*
Y4400000D03*
Y4800000D03*
Y5200000D03*
Y5600000D03*
Y6400000D03*
Y6000000D03*
Y6800000D03*
G54D18*
X4527000Y1100000D03*
X4654000D03*
X4400000Y1227000D03*
X4527000D03*
X4654000D03*
X5162000Y1100000D03*
X5035000D03*
X4908000D03*
X4781000D03*
X5162000Y1227000D03*
X5035000D03*
X4908000D03*
X4781000D03*
X5543000Y1100000D03*
X5416000D03*
X5289000D03*
X5543000Y1227000D03*
X5416000D03*
X5289000D03*
G54D19*
X6985000Y3302000D03*
X7302500D03*
X6985000Y3810000D03*
X7302500D03*
G54D16*
X2100000Y3200000D03*
Y3000000D03*
Y2800000D03*
Y3700000D03*
Y3500000D03*
Y4200000D03*
Y3900000D03*
Y4400000D03*
Y4600000D03*
X4400000Y300000D03*
Y500000D03*
X4600000Y300000D03*
Y500000D03*
X4650000Y1700000D03*
X4450000D03*
X4250000D03*
X4800000Y300000D03*
Y500000D03*
X5200000Y1900000D03*
Y1700000D03*
X5000000Y1900000D03*
Y1700000D03*
X5600000Y1900000D03*
Y1700000D03*
X5400000Y1900000D03*
Y1700000D03*
X7450000Y2500000D03*
Y2700000D03*
G54D11*
X350000Y1142000D03*
Y888000D03*
Y634000D03*
Y1650000D03*
Y1396000D03*
Y2038000D03*
Y2546000D03*
Y2800000D03*
Y5350000D03*
Y5750000D03*
X604000Y380000D03*
Y1142000D03*
Y888000D03*
Y634000D03*
Y1650000D03*
Y1396000D03*
X709000Y3040000D03*
Y3548000D03*
Y3802000D03*
Y4056000D03*
Y4310000D03*
Y4564000D03*
Y4818000D03*
Y5072000D03*
Y5326000D03*
X550000Y6350000D03*
X804000D03*
X550000Y6604000D03*
X804000D03*
X1450000Y350000D03*
X963000Y3040000D03*
Y3548000D03*
Y3802000D03*
Y4056000D03*
Y4310000D03*
Y4564000D03*
Y4818000D03*
Y5072000D03*
Y5326000D03*
X1058000Y6350000D03*
X1312000D03*
X1058000Y6604000D03*
X1312000D03*
X1700000Y350000D03*
X1950000D03*
X1800000Y1000000D03*
X1700000Y3100000D03*
X1566000Y6350000D03*
X1820000D03*
X1566000Y6604000D03*
X1820000D03*
X2200000Y350000D03*
X2300000Y1000000D03*
X2050000D03*
X2074000Y6350000D03*
X2328000D03*
X2074000Y6604000D03*
X2328000D03*
X2582000Y6350000D03*
X2836000D03*
X3090000D03*
X2582000Y6604000D03*
X2836000D03*
X3090000D03*
X3250000Y350000D03*
X3500000D03*
X3344000Y6350000D03*
X3598000D03*
X3344000Y6604000D03*
X3598000D03*
X3750000Y350000D03*
X3852000Y6350000D03*
X4106000D03*
X3852000Y6604000D03*
X4106000D03*
X4800000Y6600000D03*
X5054000D03*
X5700000Y3100000D03*
Y3400000D03*
X5308000Y6600000D03*
X5816000D03*
X5562000D03*
X6297000Y3040000D03*
Y3294000D03*
Y3802000D03*
Y4056000D03*
Y4310000D03*
Y4564000D03*
Y4818000D03*
Y5072000D03*
Y5326000D03*
X6551000Y3040000D03*
Y3294000D03*
Y3802000D03*
Y4056000D03*
Y4310000D03*
Y4564000D03*
Y4818000D03*
Y5072000D03*
Y5326000D03*
X6450000Y5950000D03*
X6750000D03*
Y6600000D03*
X6500000D03*
X7400000Y4600000D03*
X7050000Y5950000D03*
X7250000Y6600000D03*
X7000000D03*
X7500000Y350000D03*
%LPC*%
G75*
G54D12*
X250000Y4800000D03*
X150000D03*
Y4900000D03*
X250000D03*
X1350000Y1900000D03*
X1460000Y2400000D03*
Y2500000D03*
X1950000Y880000D03*
X1700000D03*
X1550000Y2000000D03*
X1650000Y2100000D03*
X1550000Y1900000D03*
X1750000Y2100000D03*
X1560000Y2400000D03*
Y2500000D03*
X2000000Y2550000D03*
X1800000Y2400000D03*
X1900000Y2550000D03*
X1700000Y2400000D03*
X1680000Y5100000D03*
X2200000Y880000D03*
X2360000Y3620000D03*
X2260000Y3790000D03*
Y3890000D03*
X2520000Y5600000D03*
Y5730000D03*
Y5470000D03*
X2570000Y1080000D03*
Y1480000D03*
Y1280000D03*
X3050000Y2650000D03*
X2900000Y3900000D03*
X3250000Y880000D03*
X3930000Y1260000D03*
X3840000Y1500000D03*
X3930000Y1140000D03*
X3740000Y2850000D03*
X3750000Y5310000D03*
X3650000Y4890000D03*
X3830000Y5900000D03*
X4020000Y5530000D03*
X3830000Y5660000D03*
Y5530000D03*
X4020000Y5660000D03*
Y5790000D03*
X4300000Y1000000D03*
X4510000Y3270000D03*
X4540000Y4200000D03*
X4550000Y4000000D03*
X4200000Y5300000D03*
X5110000Y5150000D03*
X5550000Y520000D03*
X5350000Y730000D03*
X5750000Y650000D03*
X5550000Y620000D03*
X5250000Y730000D03*
X5530000Y4070000D03*
X5400000D03*
X5270000D03*
X5600000Y5330000D03*
X5470000D03*
X5340000D03*
X5380000Y5500000D03*
Y5600000D03*
X6180000Y950000D03*
X5850000Y650000D03*
Y1150000D03*
X5860000Y1600000D03*
X6800000Y770000D03*
X6700000Y860000D03*
X6570000Y2410000D03*
X6750000Y2540000D03*
X6550000Y6070000D03*
X6850000D03*
X6900000Y770000D03*
X6920000Y2410000D03*
X7060000Y2860000D03*
X7150000Y6070000D03*
X7450000Y1520000D03*
X7540000Y2300000D03*
X7430000Y5350000D03*
Y5500000D03*
M02*
