G04 ================== begin FILE IDENTIFICATION RECORD ==================*
G04 Layout Name:  C:/RTK0EMA170C00000BJ_rev02/RTK0EMA170C00000BJ_rev02.brd*
G04 Film Name:    OUTLINE*
G04 File Format:  Gerber RS274X*
G04 File Origin:  Cadence Allegro 16.5-S052*
G04 Origin Date:  Tue May 12 15:40:33 2020*
G04 *
G04 Layer:  BOARD GEOMETRY/OUTLINE_4MEN*
G04 Layer:  BOARD GEOMETRY/OUTLINE*
G04 *
G04 Offset:    (0.0000 0.0000)*
G04 Mirror:    No*
G04 Mode:      Positive*
G04 Rotation:  0*
G04 FullContactRelief:  No*
G04 UndefLineWidth:     0.2000*
G04 ================== end FILE IDENTIFICATION RECORD ====================*
%FSLAX55Y55*MOMM*%
%IR0*IPPOS*OFA0.00000B0.00000*MIA0B0*SFA1.00000B1.00000*%
%ADD10C,.1*%
G75*
%LPD*%
G75*
G54D10*
G01X0Y-1000000D02*
X15642000D01*
Y15904000D01*
X0D01*
Y-1000000D01*
G01X500000Y-700000D02*
G03X700000Y-500000I0J200000D01*
G03X500000Y-300000I-200000J0D01*
G03X300000Y-500000I0J-200000D01*
G03X500000Y-700000I200000J0D01*
G01X0Y0D02*
X7821000D01*
Y6952000D01*
X0D01*
Y0D01*
G01D02*
X7821000D01*
Y6952000D01*
X0D01*
Y0D01*
G01Y7952000D02*
X7821000D01*
Y14904000D01*
X0D01*
Y7952000D01*
G01X500000Y15204000D02*
G03X700000Y15404000I0J200000D01*
G03X500000Y15604000I-200000J0D01*
G03X300000Y15404000I0J-200000D01*
G03X500000Y15204000I200000J0D01*
G01X900000Y-600000D02*
X1100000D01*
Y-400000D01*
X900000D01*
Y-600000D01*
G01X1000000Y-550000D02*
G03X1050000Y-500000I0J50000D01*
G03X1000000Y-450000I-50000J0D01*
G03X950000Y-500000I0J-50000D01*
G03X1000000Y-550000I50000J0D01*
G01X900000Y15304000D02*
X1100000D01*
Y15504000D01*
X900000D01*
Y15304000D01*
G01X1000000Y15354000D02*
G03X1050000Y15404000I0J50000D01*
G03X1000000Y15454000I-50000J0D01*
G03X950000Y15404000I0J-50000D01*
G03X1000000Y15354000I50000J0D01*
G01X5900000Y0D02*
G03X5800000Y-100000I0J-100000D01*
G03X5900000Y-200000I100000J0D01*
G01X7000000D01*
G03X7100000Y-100000I0J100000D01*
G03X7000000Y0I-100000J0D01*
G01X5900000D01*
G01Y7952000D02*
G03X5800000Y7852000I0J-100000D01*
G03X5900000Y7752000I100000J0D01*
G01X7000000D01*
G03X7100000Y7852000I0J100000D01*
G03X7000000Y7952000I-100000J0D01*
G01X5900000D01*
G01X7821000Y-1000000D02*
Y0D01*
G01D02*
X15642000D01*
Y6952000D01*
X7821000D01*
Y0D01*
G01Y6952000D02*
Y7952000D01*
G01D02*
X15642000D01*
Y14904000D01*
X7821000D01*
Y7952000D01*
G01Y14904000D02*
Y15904000D01*
G01X13721000Y0D02*
G03X13621000Y-100000I0J-100000D01*
G03X13721000Y-200000I100000J0D01*
G01X14821000D01*
G03X14921000Y-100000I0J100000D01*
G03X14821000Y0I-100000J0D01*
G01X13721000D01*
G01Y7952000D02*
G03X13621000Y7852000I0J-100000D01*
G03X13721000Y7752000I100000J0D01*
G01X14821000D01*
G03X14921000Y7852000I0J100000D01*
G03X14821000Y7952000I-100000J0D01*
G01X13721000D01*
G01X14542000Y-600000D02*
X14742000D01*
Y-400000D01*
X14542000D01*
Y-600000D01*
G01X14642000Y-550000D02*
G03X14692000Y-500000I0J50000D01*
G03X14642000Y-450000I-50000J0D01*
G03X14592000Y-500000I0J-50000D01*
G03X14642000Y-550000I50000J0D01*
G01X14542000Y15304000D02*
X14742000D01*
Y15504000D01*
X14542000D01*
Y15304000D01*
G01X14642000Y15354000D02*
G03X14692000Y15404000I0J50000D01*
G03X14642000Y15454000I-50000J0D01*
G03X14592000Y15404000I0J-50000D01*
G03X14642000Y15354000I50000J0D01*
G01X15142000Y-700000D02*
G03X15342000Y-500000I0J200000D01*
G03X15142000Y-300000I-200000J0D01*
G03X14942000Y-500000I0J-200000D01*
G03X15142000Y-700000I200000J0D01*
G01Y15204000D02*
G03X15342000Y15404000I0J200000D01*
G03X15142000Y15604000I-200000J0D01*
G03X14942000Y15404000I0J-200000D01*
G03X15142000Y15204000I200000J0D01*
M02*
