G04 ================== begin FILE IDENTIFICATION RECORD ==================*
G04 Layout Name:  C:/RTK0EMA170C00000BJ_rev02/RTK0EMA170C00000BJ_rev02.brd*
G04 Film Name:    SOLDERMASK_BOTTOM*
G04 File Format:  Gerber RS274X*
G04 File Origin:  Cadence Allegro 16.5-S052*
G04 Origin Date:  Tue May 12 15:40:33 2020*
G04 *
G04 Layer:  VIA CLASS/SOLDERMASK_BOTTOM*
G04 Layer:  PIN/SOLDERMASK_BOTTOM*
G04 Layer:  PACKAGE GEOMETRY/SOLDERMASK_BOTTOM*
G04 Layer:  BOARD GEOMETRY/SOLDERMASK_BOTTOM*
G04 *
G04 Offset:    (0.0000 0.0000)*
G04 Mirror:    No*
G04 Mode:      Positive*
G04 Rotation:  0*
G04 FullContactRelief:  No*
G04 UndefLineWidth:     0.2000*
G04 ================== end FILE IDENTIFICATION RECORD ====================*
%FSLAX55Y55*MOMM*%
%IR0*IPPOS*OFA0.00000B0.00000*MIA0B0*SFA1.00000B1.00000*%
%ADD12C,1.*%
%ADD11C,1.2*%
%ADD10C,1.4*%
%ADD13C,2.6*%
%LPD*%
G75*
G54D10*
X350000Y380000D03*
Y1142000D03*
Y888000D03*
Y634000D03*
Y1650000D03*
Y1396000D03*
Y2038000D03*
Y2292000D03*
Y2546000D03*
Y2800000D03*
Y5350000D03*
Y5750000D03*
X604000Y380000D03*
Y1142000D03*
Y888000D03*
Y634000D03*
Y1650000D03*
Y1396000D03*
X709000Y3040000D03*
Y3294000D03*
Y3548000D03*
Y3802000D03*
Y4056000D03*
Y4310000D03*
Y4564000D03*
Y4818000D03*
Y5072000D03*
Y5326000D03*
X550000Y6350000D03*
X804000D03*
X550000Y6604000D03*
X804000D03*
X1200000Y350000D03*
X1450000D03*
X963000Y3040000D03*
Y3294000D03*
Y3548000D03*
Y3802000D03*
Y4056000D03*
Y4310000D03*
Y4564000D03*
Y4818000D03*
Y5072000D03*
Y5326000D03*
X1058000Y6350000D03*
X1312000D03*
X1058000Y6604000D03*
X1312000D03*
X1700000Y350000D03*
X1950000D03*
X1800000Y1000000D03*
X1750000Y1950000D03*
Y2550000D03*
X1700000Y3100000D03*
X1566000Y6350000D03*
X1820000D03*
X1566000Y6604000D03*
X1820000D03*
X2200000Y350000D03*
X2300000Y1000000D03*
X2050000D03*
X2074000Y6350000D03*
X2328000D03*
X2074000Y6604000D03*
X2328000D03*
X3000000Y350000D03*
X2582000Y6350000D03*
X2836000D03*
X3090000D03*
X2582000Y6604000D03*
X2836000D03*
X3090000D03*
X3250000Y350000D03*
X3500000D03*
X3344000Y6350000D03*
X3598000D03*
X3344000Y6604000D03*
X3598000D03*
X3750000Y350000D03*
X3852000Y6350000D03*
X4106000D03*
X3852000Y6604000D03*
X4106000D03*
X4800000Y6600000D03*
X5054000D03*
X5700000Y3100000D03*
Y3400000D03*
X5308000Y6600000D03*
X5816000D03*
X5562000D03*
X6297000Y3040000D03*
Y3294000D03*
Y3548000D03*
Y3802000D03*
Y4056000D03*
Y4310000D03*
Y4564000D03*
Y4818000D03*
Y5072000D03*
Y5326000D03*
X6070000Y6600000D03*
X6551000Y3040000D03*
Y3294000D03*
Y3548000D03*
Y3802000D03*
Y4056000D03*
Y4310000D03*
Y4564000D03*
Y4818000D03*
Y5072000D03*
Y5326000D03*
X6450000Y5950000D03*
X6750000D03*
Y6600000D03*
X6500000D03*
X7400000Y4600000D03*
X7350000Y5950000D03*
X7050000D03*
X7250000Y6600000D03*
X7000000D03*
X7500000Y350000D03*
Y6600000D03*
G54D11*
X2100000Y3200000D03*
Y3000000D03*
Y2800000D03*
Y3700000D03*
Y3500000D03*
Y4200000D03*
Y3900000D03*
Y4400000D03*
Y4600000D03*
X4400000Y300000D03*
Y500000D03*
X4600000Y300000D03*
Y500000D03*
X4650000Y1700000D03*
X4450000D03*
X4250000D03*
X4800000Y300000D03*
Y500000D03*
X5200000Y1900000D03*
Y1700000D03*
X5000000Y1900000D03*
Y1700000D03*
X5600000Y1900000D03*
Y1700000D03*
X5400000Y1900000D03*
Y1700000D03*
X6985000Y3556000D03*
X7450000Y2500000D03*
Y2700000D03*
X7493000Y3454400D03*
Y3657600D03*
G54D12*
X4400000Y1100000D03*
X4527000D03*
X4654000D03*
X4400000Y1227000D03*
X4527000D03*
X4654000D03*
X5162000Y1100000D03*
X5035000D03*
X4908000D03*
X4781000D03*
X5162000Y1227000D03*
X5035000D03*
X4908000D03*
X4781000D03*
X5543000Y1100000D03*
X5416000D03*
X5289000D03*
X5543000Y1227000D03*
X5416000D03*
X5289000D03*
G54D13*
X6985000Y3302000D03*
X7302500D03*
X6985000Y3810000D03*
X7302500D03*
M02*
