G04 ================== begin FILE IDENTIFICATION RECORD ==================*
G04 Layout Name:  C:/RTK0EMA170C00000BJ_rev02/RTK0EMA170C00000BJ_rev02.brd*
G04 Film Name:    SOLDERMASK_TOP*
G04 File Format:  Gerber RS274X*
G04 File Origin:  Cadence Allegro 16.5-S052*
G04 Origin Date:  Tue May 12 15:40:33 2020*
G04 *
G04 Layer:  VIA CLASS/SOLDERMASK_TOP*
G04 Layer:  PIN/SOLDERMASK_TOP*
G04 Layer:  PACKAGE GEOMETRY/SOLDERMASK_TOP*
G04 Layer:  BOARD GEOMETRY/SOLDERMASK_TOP*
G04 *
G04 Offset:    (0.0000 0.0000)*
G04 Mirror:    No*
G04 Mode:      Positive*
G04 Rotation:  0*
G04 FullContactRelief:  No*
G04 UndefLineWidth:     0.2000*
G04 ================== end FILE IDENTIFICATION RECORD ====================*
%FSLAX55Y55*MOMM*%
%IR0*IPPOS*OFA0.00000B0.00000*MIA0B0*SFA1.00000B1.00000*%
%ADD18R,1.6X.4*%
%ADD19R,.4X1.6*%
%ADD16R,1.6X.5*%
%ADD23R,.5X1.6*%
%ADD26R,2.5X.95*%
%ADD27R,.65X1.55*%
%ADD30C,.95*%
%ADD11R,.65X.65*%
%ADD31R,.95X.95*%
%ADD21C,1.*%
%ADD15C,1.2*%
%ADD10C,1.4*%
%ADD29C,2.6*%
%ADD22R,1.75X2.15*%
%ADD12R,.4X.75*%
%ADD20R,2.X2.*%
%ADD14R,1.75X1.55*%
%ADD28R,.33X.805*%
%ADD17R,5.65X2.15*%
%ADD13R,1.8X1.95*%
%ADD24R,1.25X1.25*%
%ADD25R,2.65X3.95*%
%LPD*%
G75*
G54D10*
X350000Y380000D03*
Y1142000D03*
Y888000D03*
Y634000D03*
Y1650000D03*
Y1396000D03*
Y2038000D03*
Y2292000D03*
Y2546000D03*
Y2800000D03*
Y5350000D03*
Y5750000D03*
X604000Y380000D03*
Y1142000D03*
Y888000D03*
Y634000D03*
Y1650000D03*
Y1396000D03*
X709000Y3040000D03*
Y3294000D03*
Y3548000D03*
Y3802000D03*
Y4056000D03*
Y4310000D03*
Y4564000D03*
Y4818000D03*
Y5072000D03*
Y5326000D03*
X550000Y6350000D03*
X804000D03*
X550000Y6604000D03*
X804000D03*
X1200000Y350000D03*
X1450000D03*
X963000Y3040000D03*
Y3294000D03*
Y3548000D03*
Y3802000D03*
Y4056000D03*
Y4310000D03*
Y4564000D03*
Y4818000D03*
Y5072000D03*
Y5326000D03*
X1058000Y6350000D03*
X1312000D03*
X1058000Y6604000D03*
X1312000D03*
X1700000Y350000D03*
X1950000D03*
X1800000Y1000000D03*
X1750000Y1950000D03*
Y2550000D03*
X1700000Y3100000D03*
X1566000Y6350000D03*
X1820000D03*
X1566000Y6604000D03*
X1820000D03*
X2200000Y350000D03*
X2300000Y1000000D03*
X2050000D03*
X2074000Y6350000D03*
X2328000D03*
X2074000Y6604000D03*
X2328000D03*
X3000000Y350000D03*
X2582000Y6350000D03*
X2836000D03*
X3090000D03*
X2582000Y6604000D03*
X2836000D03*
X3090000D03*
X3250000Y350000D03*
X3500000D03*
X3344000Y6350000D03*
X3598000D03*
X3344000Y6604000D03*
X3598000D03*
X3750000Y350000D03*
X3852000Y6350000D03*
X4106000D03*
X3852000Y6604000D03*
X4106000D03*
X4800000Y6600000D03*
X5054000D03*
X5700000Y3100000D03*
Y3400000D03*
X5308000Y6600000D03*
X5816000D03*
X5562000D03*
X6297000Y3040000D03*
Y3294000D03*
Y3548000D03*
Y3802000D03*
Y4056000D03*
Y4310000D03*
Y4564000D03*
Y4818000D03*
Y5072000D03*
Y5326000D03*
X6070000Y6600000D03*
X6551000Y3040000D03*
Y3294000D03*
Y3548000D03*
Y3802000D03*
Y4056000D03*
Y4310000D03*
Y4564000D03*
Y4818000D03*
Y5072000D03*
Y5326000D03*
X6450000Y5950000D03*
X6750000D03*
Y6600000D03*
X6500000D03*
X7400000Y4600000D03*
X7350000Y5950000D03*
X7050000D03*
X7250000Y6600000D03*
X7000000D03*
X7500000Y350000D03*
Y6600000D03*
G54D20*
X2650000Y4650000D03*
X4350000Y2950000D03*
X6000000Y2350000D03*
X7350000Y1050000D03*
G54D11*
X300000Y5095000D03*
Y5005000D03*
X400000Y5095000D03*
Y5005000D03*
X1345000Y2000000D03*
X1255000D03*
X1370000Y2505000D03*
Y2595000D03*
X1170000Y2505000D03*
Y2595000D03*
X1270000Y2505000D03*
Y2595000D03*
X1335000Y3700000D03*
X1245000D03*
Y4050000D03*
X1335000D03*
X1245000Y4150000D03*
X1335000D03*
X1245000Y4250000D03*
X1335000D03*
Y3800000D03*
X1245000D03*
Y4550000D03*
X1335000D03*
X1245000Y4450000D03*
X1335000D03*
X1245000Y4800000D03*
X1335000D03*
Y4350000D03*
X1245000D03*
X1335000Y4700000D03*
X1245000D03*
Y4900000D03*
X1335000D03*
X1245000Y5100000D03*
X1335000D03*
Y5000000D03*
X1245000D03*
X1335000Y5200000D03*
X1245000D03*
X1350000Y5575000D03*
Y5665000D03*
Y5835000D03*
Y5925000D03*
X1250000Y5835000D03*
Y5925000D03*
Y5665000D03*
Y5575000D03*
X1950000Y705000D03*
Y795000D03*
X1700000Y705000D03*
Y795000D03*
X1800000D03*
Y705000D03*
X1750000Y2295000D03*
Y2205000D03*
X1505000Y3700000D03*
X1595000D03*
X1505000Y4050000D03*
X1595000D03*
X1505000Y4250000D03*
X1595000D03*
X1505000Y4150000D03*
X1595000D03*
X1505000Y4450000D03*
X1595000D03*
X1505000Y4800000D03*
X1595000D03*
X1505000Y4550000D03*
X1595000D03*
X1505000Y4350000D03*
X1595000D03*
X1505000Y4700000D03*
X1595000D03*
X1505000Y4900000D03*
X1595000D03*
X1505000Y5100000D03*
X1595000D03*
X1505000Y5000000D03*
X1595000D03*
X1650000Y5665000D03*
Y5575000D03*
X1450000Y5665000D03*
Y5575000D03*
X1750000D03*
Y5665000D03*
X1550000D03*
Y5575000D03*
X1950000Y5925000D03*
Y5835000D03*
X1750000D03*
Y5925000D03*
X1550000D03*
Y5835000D03*
X1450000D03*
Y5925000D03*
X1850000Y5835000D03*
Y5925000D03*
X1650000Y5835000D03*
Y5925000D03*
X1950000Y5665000D03*
Y5575000D03*
X1850000Y5665000D03*
Y5575000D03*
X2200000Y705000D03*
Y795000D03*
X2300000D03*
Y705000D03*
X2050000Y795000D03*
Y705000D03*
X2450000Y3645000D03*
Y3735000D03*
X2350000Y3705000D03*
Y3895000D03*
Y3985000D03*
Y4175000D03*
Y4085000D03*
Y3795000D03*
X2210000Y5835000D03*
Y5925000D03*
X2080000Y5835000D03*
Y5925000D03*
Y5665000D03*
Y5575000D03*
X2210000Y5665000D03*
Y5575000D03*
X2340000Y5665000D03*
Y5575000D03*
Y5925000D03*
Y5835000D03*
X2655000Y1080000D03*
X2745000D03*
X2655000Y1280000D03*
X2745000D03*
X2655000Y1480000D03*
X2745000D03*
Y1180000D03*
X2655000D03*
X2745000Y1380000D03*
X2655000D03*
X2745000Y1580000D03*
X2655000D03*
X3055000Y1850000D03*
X2605000Y5600000D03*
X2695000D03*
X2605000Y5730000D03*
X2695000D03*
X2605000Y5470000D03*
X2695000D03*
X3500000Y795000D03*
Y705000D03*
X3250000Y795000D03*
Y705000D03*
X3145000Y1850000D03*
X3150000Y2655000D03*
X3250000D03*
X3350000D03*
X3150000Y2745000D03*
X3250000D03*
X3350000D03*
X3555000Y4800000D03*
X3505000Y5000000D03*
X3595000D03*
X3600000Y795000D03*
Y705000D03*
X3845000Y1260000D03*
X3755000D03*
X3845000Y1140000D03*
X3755000D03*
X3750000Y1495000D03*
Y1405000D03*
X4005000Y1850000D03*
X3915000D03*
X3650000Y2845000D03*
Y2755000D03*
X3645000Y4800000D03*
X3745000Y5400000D03*
X3655000D03*
X4105000D03*
Y5790000D03*
Y5660000D03*
Y5530000D03*
X3745000Y5660000D03*
X3655000D03*
Y5790000D03*
X3745000D03*
Y5530000D03*
X3655000D03*
X4420000Y3205000D03*
Y3295000D03*
X4455000Y3480000D03*
X4545000D03*
X4450000Y3905000D03*
Y3995000D03*
X4650000Y3805000D03*
Y3895000D03*
X4450000Y4195000D03*
Y4105000D03*
X4550000Y3805000D03*
Y3895000D03*
X4195000Y5400000D03*
Y5790000D03*
Y5660000D03*
Y5530000D03*
X5200000Y5155000D03*
Y5245000D03*
X5205000Y5500000D03*
Y5600000D03*
X5250000Y555000D03*
Y645000D03*
X5530000Y4155000D03*
Y4245000D03*
X5400000Y4155000D03*
Y4245000D03*
X5270000Y4155000D03*
Y4245000D03*
X5340000Y5245000D03*
Y5155000D03*
X5470000Y5245000D03*
Y5155000D03*
X5600000Y5245000D03*
Y5155000D03*
X5295000Y5500000D03*
Y5600000D03*
X5950000Y655000D03*
Y745000D03*
X5850000Y1235000D03*
Y1325000D03*
X5950000Y1235000D03*
Y1325000D03*
Y1605000D03*
Y1695000D03*
X6235000Y2450000D03*
X5905000Y3700000D03*
X5995000D03*
Y4000000D03*
X5905000D03*
X5995000Y4300000D03*
X5905000D03*
X5995000Y3800000D03*
X5905000D03*
X5995000Y3900000D03*
X5905000D03*
X5995000Y4400000D03*
X5905000D03*
X5995000Y4600000D03*
X5905000D03*
X5995000Y4500000D03*
X5905000D03*
X5995000Y4800000D03*
X5905000D03*
Y4700000D03*
X5995000D03*
Y4900000D03*
X5905000D03*
X5995000Y5000000D03*
X5905000D03*
X6695000Y950000D03*
X6605000D03*
X6800000Y945000D03*
Y855000D03*
X6745000Y2450000D03*
X6655000D03*
X6325000D03*
X6550000Y6245000D03*
Y6155000D03*
X6450000D03*
Y6245000D03*
X6750000Y6155000D03*
Y6245000D03*
X6350000Y6155000D03*
Y6245000D03*
X6650000Y6155000D03*
Y6245000D03*
X6900000Y945000D03*
Y855000D03*
X7265000Y2400000D03*
X7175000D03*
X7145000Y2950000D03*
X7055000D03*
X6905000Y5350000D03*
X6995000D03*
X6905000Y5500000D03*
X6995000D03*
X6850000Y6245000D03*
Y6155000D03*
X7150000Y6245000D03*
Y6155000D03*
X7050000D03*
Y6245000D03*
X6950000Y6155000D03*
Y6245000D03*
X7450000Y1605000D03*
Y1695000D03*
Y2205000D03*
Y2295000D03*
G54D12*
X1375000Y2105000D03*
X1325000D03*
X1275000D03*
X1225000D03*
X1375000Y2395000D03*
X1325000D03*
X1225000D03*
X1275000D03*
G54D21*
X4400000Y1100000D03*
X4527000D03*
X4654000D03*
X4400000Y1227000D03*
X4527000D03*
X4654000D03*
X5162000Y1100000D03*
X5035000D03*
X4908000D03*
X4781000D03*
X5162000Y1227000D03*
X5035000D03*
X4908000D03*
X4781000D03*
X5543000Y1100000D03*
X5416000D03*
X5289000D03*
X5543000Y1227000D03*
X5416000D03*
X5289000D03*
G54D30*
X7112000Y3492500D03*
Y3619500D03*
X7239000Y3492500D03*
X7366000D03*
X7239000Y3619500D03*
X7366000D03*
G54D13*
X1300000Y2250000D03*
G54D22*
X4950000Y3080000D03*
Y3620000D03*
G54D31*
X7330000Y5350000D03*
X7170000D03*
Y5500000D03*
X7330000D03*
X7450000Y1920000D03*
Y2080000D03*
G54D14*
X1950000Y2110000D03*
Y2390000D03*
X5930000Y2140000D03*
Y1860000D03*
G54D23*
X5205000Y4412500D03*
Y4987500D03*
X5270000Y4412500D03*
X5335000D03*
X5400000D03*
X5465000D03*
X5530000D03*
X5595000D03*
X5270000Y4987500D03*
X5335000D03*
X5400000D03*
X5465000D03*
X5530000D03*
X5595000D03*
G54D24*
X5255000Y400000D03*
X5545000D03*
G54D15*
X2100000Y3200000D03*
Y3000000D03*
Y2800000D03*
Y3700000D03*
Y3500000D03*
Y4200000D03*
Y3900000D03*
Y4400000D03*
Y4600000D03*
X4400000Y300000D03*
Y500000D03*
X4600000Y300000D03*
Y500000D03*
X4650000Y1700000D03*
X4450000D03*
X4250000D03*
X4800000Y300000D03*
Y500000D03*
X5200000Y1900000D03*
Y1700000D03*
X5000000Y1900000D03*
Y1700000D03*
X5600000Y1900000D03*
Y1700000D03*
X5400000Y1900000D03*
Y1700000D03*
X6985000Y3556000D03*
X7450000Y2500000D03*
Y2700000D03*
X7493000Y3454400D03*
Y3657600D03*
G54D25*
X6020000Y370000D03*
X6860000D03*
G54D16*
X3012500Y1300000D03*
Y1430000D03*
Y1365000D03*
Y1495000D03*
Y1235000D03*
Y1170000D03*
Y1105000D03*
X2912500Y5795000D03*
Y5730000D03*
Y5665000D03*
Y5600000D03*
Y5535000D03*
Y5470000D03*
Y5405000D03*
X3587500Y1430000D03*
Y1365000D03*
Y1495000D03*
Y1300000D03*
Y1235000D03*
Y1170000D03*
Y1105000D03*
X3487500Y5795000D03*
Y5730000D03*
Y5665000D03*
Y5600000D03*
Y5535000D03*
Y5470000D03*
Y5405000D03*
X4412500Y5730000D03*
Y5470000D03*
Y5535000D03*
Y5600000D03*
Y5665000D03*
Y5405000D03*
Y5795000D03*
X4987500Y5470000D03*
Y5535000D03*
Y5600000D03*
Y5665000D03*
Y5730000D03*
Y5405000D03*
Y5795000D03*
G54D17*
X3055000Y2200000D03*
X4005000D03*
G54D26*
X6172500Y90000D03*
X6707500D03*
G54D27*
X6280000Y610000D03*
X6440000D03*
X6360000D03*
X6520000D03*
X6600000D03*
G54D18*
X2732500Y3200000D03*
Y3250000D03*
Y3300000D03*
Y3350000D03*
Y3400000D03*
Y3450000D03*
Y3500000D03*
Y3550000D03*
Y3600000D03*
Y3650000D03*
Y3700000D03*
Y3750000D03*
Y3800000D03*
Y3850000D03*
Y3900000D03*
Y3950000D03*
Y4000000D03*
Y4050000D03*
Y4100000D03*
Y4150000D03*
Y4200000D03*
Y4250000D03*
Y4300000D03*
Y4400000D03*
Y4350000D03*
X4267500Y3200000D03*
Y3250000D03*
Y3300000D03*
Y3350000D03*
Y3400000D03*
Y3450000D03*
Y3500000D03*
Y3550000D03*
Y3600000D03*
Y3650000D03*
Y3700000D03*
Y3750000D03*
Y3800000D03*
Y3850000D03*
Y3900000D03*
Y3950000D03*
Y4100000D03*
Y4150000D03*
Y4200000D03*
Y4000000D03*
Y4050000D03*
Y4250000D03*
Y4300000D03*
Y4350000D03*
Y4400000D03*
X6132500Y1525000D03*
Y1575000D03*
Y1375000D03*
Y1325000D03*
Y1425000D03*
Y1475000D03*
Y2075000D03*
Y1825000D03*
Y1875000D03*
Y1925000D03*
Y1975000D03*
Y2025000D03*
Y1625000D03*
Y1675000D03*
Y1725000D03*
Y1775000D03*
X7267500Y1575000D03*
Y1525000D03*
Y1425000D03*
Y1375000D03*
Y1325000D03*
Y1475000D03*
Y2075000D03*
Y1975000D03*
Y1925000D03*
Y1875000D03*
Y1825000D03*
Y1775000D03*
Y2025000D03*
Y1725000D03*
Y1675000D03*
Y1625000D03*
G54D28*
X6340000Y856250D03*
Y943750D03*
X6420000Y856250D03*
X6380000D03*
Y943750D03*
X6420000D03*
G54D19*
X2900000Y3032500D03*
X2950000D03*
X3000000D03*
X2900000Y4567500D03*
X2950000D03*
X3000000D03*
X3050000Y3032500D03*
X3100000D03*
X3150000D03*
X3200000D03*
X3250000D03*
X3300000D03*
X3350000D03*
X3400000D03*
X3450000D03*
X3500000D03*
X3550000D03*
X3050000Y4567500D03*
X3100000D03*
X3300000D03*
X3350000D03*
X3150000D03*
X3200000D03*
X3250000D03*
X3400000D03*
X3450000D03*
X3500000D03*
X3550000D03*
X3600000Y3032500D03*
X3650000D03*
X3800000D03*
X3850000D03*
X3900000D03*
X3750000D03*
X3700000D03*
X3950000D03*
X4000000D03*
X4050000D03*
X4100000D03*
X3600000Y4567500D03*
X3650000D03*
X3700000D03*
X3750000D03*
X3800000D03*
X3850000D03*
X3900000D03*
X3950000D03*
X4000000D03*
X4050000D03*
X4100000D03*
X6575000Y1132500D03*
X6525000D03*
X6475000D03*
X6425000D03*
X6375000D03*
X6325000D03*
X6775000D03*
X6725000D03*
X6675000D03*
X6625000D03*
X6325000Y2267500D03*
X6375000D03*
X6425000D03*
X6475000D03*
X6525000D03*
X6575000D03*
X6775000D03*
X6625000D03*
X6675000D03*
X6725000D03*
X6825000Y1132500D03*
X7075000D03*
X7025000D03*
X6975000D03*
X6925000D03*
X6875000D03*
X6825000Y2267500D03*
X6875000D03*
X6925000D03*
X6975000D03*
X7025000D03*
X7075000D03*
G54D29*
X6985000Y3302000D03*
X7302500D03*
X6985000Y3810000D03*
X7302500D03*
M02*
