G04 ================== begin FILE IDENTIFICATION RECORD ==================*
G04 Layout Name:  C:/RTK0EMA170C00000BJ_rev02/RTK0EMA170C00000BJ_rev02.brd*
G04 Film Name:    TOP*
G04 File Format:  Gerber RS274X*
G04 File Origin:  Cadence Allegro 16.5-S052*
G04 Origin Date:  Tue May 12 15:40:33 2020*
G04 *
G04 Layer:  VIA CLASS/TOP*
G04 Layer:  PIN/TOP*
G04 Layer:  ETCH/TOP*
G04 *
G04 Offset:    (0.0000 0.0000)*
G04 Mirror:    No*
G04 Mode:      Positive*
G04 Rotation:  0*
G04 FullContactRelief:  No*
G04 UndefLineWidth:     0.0000*
G04 ================== end FILE IDENTIFICATION RECORD ====================*
%FSLAX55Y55*MOMM*%
%IR0*IPPOS*OFA0.00000B0.00000*MIA0B0*SFA1.00000B1.00000*%
%ADD28R,.5X1.4*%
%ADD19R,1.45X.25*%
%ADD27R,2.35X.8*%
%ADD20R,.25X1.45*%
%ADD17R,1.45X.35*%
%ADD24R,.35X1.45*%
%ADD30C,.001*%
%ADD11C,.7*%
%ADD31C,.8*%
%ADD12R,.5X.5*%
%ADD32R,.8X.8*%
%ADD23R,1.6X2.*%
%ADD15R,1.6X1.4*%
%ADD18R,5.5X2.*%
%ADD21C,1.*%
%ADD22C,1.1*%
%ADD26R,2.5X3.8*%
%ADD16C,1.4*%
%ADD13R,.25X.6*%
%ADD10C,1.6*%
%ADD14R,1.65X1.8*%
%ADD25R,1.1X1.1*%
%ADD29R,.2X.675*%
%ADD33C,.2*%
%ADD34C,.3*%
%ADD35C,.22*%
%ADD36C,.5*%
%ADD37C,.15*%
%ADD38C,.25*%
%ADD39C,.35*%
%ADD40C,.45*%
%ADD41C,2.0004*%
%ADD42R,.8X.8*%
G75*
%LPD*%
G75*
G36*
G01X515440Y730000D02*
G02X528940Y700100I-7J-18001D01*
G03X664280Y713820I75066J-66099D01*
G01X660700Y716520D01*
Y730000D01*
X670000D01*
X830000Y890000D01*
Y1090000D01*
X860000Y1120000D01*
Y1310000D01*
X880000Y1330000D01*
X2220000D01*
X2620000Y1730000D01*
Y2370000D01*
X2800000Y2550000D01*
X2880000D01*
X2920000Y2590000D01*
X3430000D01*
Y2510000D01*
X3390000Y2470000D01*
X2950000D01*
X2930000Y2450000D01*
Y2380000D01*
X2910000Y2360000D01*
X2740000D01*
X2720000Y2340000D01*
Y2060000D01*
X2740000Y2040000D01*
X2910000D01*
X2930000Y2020000D01*
Y1950000D01*
X3000000Y1880000D01*
Y1810000D01*
X3020000Y1790000D01*
X3180000D01*
X3200000Y1810000D01*
Y1880000D01*
X3220000Y1900000D01*
X3840000D01*
X3860000Y1880000D01*
Y1810000D01*
X3880000Y1790000D01*
X4020000D01*
X4040000Y1770000D01*
Y1450000D01*
X3940000Y1350000D01*
X3820000D01*
X3800000Y1370000D01*
Y1420000D01*
X3820000Y1440000D01*
X3870000D01*
X3900000Y1470000D01*
Y1530000D01*
X3870000Y1560000D01*
X3500000D01*
X3480000Y1540000D01*
Y1380000D01*
X3455000Y1355000D01*
X3451480D01*
G03X3448720I-1380J-55000D01*
G01X3415000D01*
X3390000Y1330000D01*
Y1080000D01*
X3420000Y1050000D01*
X3680000D01*
X3710000Y1080000D01*
X3960000D01*
X3990000Y1110000D01*
Y1140000D01*
X4160000Y1310000D01*
Y1580000D01*
X4180000Y1600000D01*
X4630000D01*
X4880000Y1350000D01*
Y1330000D01*
X4860000Y1310000D01*
X4580000D01*
X4560000Y1330000D01*
Y1530000D01*
X4530000Y1560000D01*
X4470000D01*
X4440000Y1530000D01*
Y1470000D01*
X4490000Y1420000D01*
Y1330000D01*
X4470000Y1310000D01*
X4360000D01*
X4320000Y1270000D01*
Y1110000D01*
X4240000Y1030000D01*
Y970000D01*
X4270000Y940000D01*
X4330000D01*
X4410000Y1020000D01*
X4800000D01*
X4820000Y1000000D01*
Y960000D01*
X4460000Y600000D01*
X4350000D01*
X4300000Y550000D01*
Y250000D01*
X4350000Y200000D01*
X4850000D01*
X4900000Y250000D01*
Y560000D01*
X5190000Y850000D01*
Y1000000D01*
X5210000Y1020000D01*
X5590000D01*
X5630000Y1060000D01*
Y1300000D01*
X5460000Y1470000D01*
X5120000D01*
X5060000Y1530000D01*
Y1580000D01*
X5080000Y1600000D01*
X5650000D01*
X5700000Y1650000D01*
Y1950000D01*
X5520000Y2130000D01*
Y2240000D01*
X5430000Y2330000D01*
Y3130000D01*
X5460000Y3160000D01*
Y3220000D01*
X5480000Y3240000D01*
X5530000D01*
X5560000Y3270000D01*
Y3530000D01*
X5490000Y3600000D01*
Y3880000D01*
X5520000Y3910000D01*
Y3970000D01*
X5590000Y4040000D01*
Y4290000D01*
X5610000Y4310000D01*
X5680000D01*
X5700000Y4290000D01*
Y3770000D01*
X5830000Y3640000D01*
X6150000D01*
X6190000Y3600000D01*
Y2990000D01*
X6250000Y2930000D01*
X6600000D01*
X6660000Y2990000D01*
Y3840000D01*
X6770000D01*
Y3180000D01*
X7000000Y2950000D01*
Y2830000D01*
X7030000Y2800000D01*
X7080000D01*
X7100000Y2780000D01*
Y2490000D01*
X7080000Y2470000D01*
X6830000D01*
X6810000Y2490000D01*
Y2570000D01*
X6780000Y2600000D01*
X6720000D01*
X6690000Y2570000D01*
Y2530000D01*
X6670000Y2510000D01*
X6190000D01*
X6170000Y2490000D01*
Y2310000D01*
X6120000D01*
Y2460000D01*
X6110000Y2470000D01*
X5890000D01*
X5880000Y2460000D01*
Y2310000D01*
X5820000Y2250000D01*
Y1760000D01*
X5840000Y1740000D01*
X5880000D01*
X5900000Y1720000D01*
Y1680000D01*
X5880000Y1660000D01*
X5830000D01*
X5800000Y1630000D01*
Y1600000D01*
X5790000D01*
Y1120000D01*
X5820000Y1090000D01*
X5880000D01*
X5910000Y1120000D01*
Y1160000D01*
X5930000Y1180000D01*
X5990000D01*
X6010000Y1200000D01*
X6335000D01*
Y1060000D01*
X6260000D01*
X6210000Y1010000D01*
X6150000D01*
X6120000Y980000D01*
Y920000D01*
X6150000Y890000D01*
X6309980D01*
Y889980D01*
X6349980D01*
Y820000D01*
X6230000D01*
X6220000Y810000D01*
Y730000D01*
X6200000Y710000D01*
X6030000D01*
X6010000Y730000D01*
Y780000D01*
X5990000Y800000D01*
X5910000D01*
X5890000Y780000D01*
Y740000D01*
X5870000Y720000D01*
X5720000D01*
X5680000Y680000D01*
Y590000D01*
X5710000Y560000D01*
X6145000D01*
Y210020D01*
X6144980D01*
Y129980D01*
X6289980D01*
Y50020D01*
X6144980D01*
Y50000D01*
X6055020D01*
Y100020D01*
X149980D01*
X100020Y149980D01*
Y2860000D01*
X240000D01*
Y590000D01*
X300000Y530000D01*
X400000D01*
X460000Y590000D01*
Y700000D01*
X490000Y730000D01*
X515440D01*
G37*
G36*
G01X227500Y2016350D02*
X310010Y1968730D01*
X356250Y2038000D01*
X310010Y2107270D01*
X227500Y2059650D01*
G03Y2016350I12500J-21650D01*
G37*
G36*
G01X913160Y1876840D02*
X910000Y1888620D01*
Y1930000D01*
X880000Y1960000D01*
X660000D01*
X640000Y1980000D01*
Y2550000D01*
X460000Y2730000D01*
Y2850000D01*
X400000Y2910000D01*
X300000D01*
X240000Y2850000D01*
X100020D01*
Y4680020D01*
X120000Y4700000D01*
X330000D01*
X370000Y4740000D01*
Y5030000D01*
X430000D01*
Y2960000D01*
X510000Y2880000D01*
X650000D01*
Y2930000D01*
X1050000D01*
Y2880000D01*
X1400000D01*
X1420000Y2860000D01*
Y2670000D01*
X1400000Y2650000D01*
X1130000D01*
X1110000Y2630000D01*
Y2470000D01*
X1180000Y2400000D01*
Y2350000D01*
X1190000Y2340000D01*
X1380000D01*
Y2160000D01*
X1190000D01*
X1180000Y2150000D01*
Y2060000D01*
X1200000Y2040000D01*
Y1960000D01*
X1220000Y1940000D01*
X1260000D01*
X1280000Y1920000D01*
Y1860000D01*
X1260000Y1840000D01*
X950000D01*
X913160Y1876840D01*
G37*
G36*
G01X120000Y4750000D02*
X100020Y4769980D01*
Y4930020D01*
X200000Y5030000D01*
X267480D01*
Y5029980D01*
X330000D01*
Y4770000D01*
X310000Y4750000D01*
X120000D01*
G37*
G36*
G01X332520Y5070000D02*
Y5070020D01*
X269980D01*
X250000Y5090000D01*
Y5400000D01*
X300000Y5450000D01*
X1050000D01*
X1100000Y5400000D01*
Y5250000D01*
X1050000Y5200000D01*
X550000D01*
X420000Y5070000D01*
X332520D01*
G37*
G36*
G01X150000Y5500000D02*
X100020Y5549980D01*
Y6800020D01*
X150000Y6850000D01*
X1620000D01*
X1640000Y6830000D01*
Y6730000D01*
X1620000Y6710000D01*
X500000D01*
X440000Y6650000D01*
Y6550000D01*
X380000Y6490000D01*
Y6270000D01*
X1090000Y5560000D01*
Y5520000D01*
X1070000Y5500000D01*
X150000D01*
G37*
G36*
G01X425690Y717520D02*
X346370Y713910D01*
X348670Y632670D01*
X429910Y630370D01*
X433520Y709690D01*
G03X425690Y717520I-7490J340D01*
G37*
G36*
G01X806490Y1091250D02*
X830310Y1132500D01*
X800000Y1151880D01*
X769690Y1132500D01*
X793510Y1091250D01*
G03X806490I6490J3750D01*
G37*
G36*
G01X425690Y1479520D02*
X346370Y1475910D01*
X348670Y1394670D01*
X429910Y1392370D01*
X433520Y1471690D01*
G03X425690Y1479520I-7490J340D01*
G37*
G36*
G01X716580Y1401540D02*
X657940Y1455070D01*
X602120Y1396000D01*
X657940Y1336930D01*
X716580Y1390460D01*
G03Y1401540I-5060J5540D01*
G37*
G36*
G01X425690Y1225520D02*
X346370Y1221910D01*
X348670Y1140670D01*
X429910Y1138370D01*
X433520Y1217690D01*
G03X425690Y1225520I-7490J340D01*
G37*
G36*
G01X543510Y2158750D02*
X519690Y2117500D01*
X550000Y2098120D01*
X580310Y2117500D01*
X556490Y2158750D01*
G03X543510I-6490J-3750D01*
G37*
G36*
G01X556490Y2041250D02*
X580310Y2082500D01*
X550000Y2101880D01*
X519690Y2082500D01*
X543510Y2041250D01*
G03X556490I6490J3750D01*
G37*
G36*
G01X433520Y1962310D02*
X429910Y2041630D01*
X348670Y2039330D01*
X346370Y1958090D01*
X425690Y1954480D01*
G03X433520Y1962310I340J7490D01*
G37*
G36*
G01X425690Y2121520D02*
X346370Y2117910D01*
X348670Y2036670D01*
X429910Y2034370D01*
X433520Y2113690D01*
G03X425690Y2121520I-7490J340D01*
G37*
G36*
G01X896130Y1863050D02*
X883790Y1909060D01*
X848670Y1901330D01*
X840940Y1866210D01*
X886950Y1853870D01*
G03X896130Y1863050I1940J7240D01*
G37*
G36*
G01X703750Y1656500D02*
X643980Y1690990D01*
X602120Y1650000D01*
X643980Y1609010D01*
X703750Y1643500D01*
G03Y1656500I-3750J6500D01*
G37*
G36*
G01X556490Y2441250D02*
X580310Y2482500D01*
X550000Y2501880D01*
X519690Y2482500D01*
X543510Y2441250D01*
G03X556490I6490J3750D01*
G37*
G36*
G01X543830Y2552630D02*
X521220Y2519900D01*
X550000Y2498120D01*
X578780Y2519900D01*
X556170Y2552630D01*
G03X543830I-6170J-4260D01*
G37*
G36*
G01X433520Y2470310D02*
X429910Y2549630D01*
X348670Y2547330D01*
X346370Y2466090D01*
X425690Y2462480D01*
G03X433520Y2470310I340J7490D01*
G37*
G36*
G01X1980000Y2700000D02*
X1650000D01*
X1420000Y2930000D01*
X1050000D01*
Y2910000D01*
X650000D01*
Y2930000D01*
X520000D01*
X470000Y2980000D01*
Y4920000D01*
X490000Y4940000D01*
X580000D01*
X600000Y4920000D01*
Y3240000D01*
X660000Y3180000D01*
X1010000D01*
X1070000Y3240000D01*
Y3610000D01*
X1100000Y3640000D01*
X1630000D01*
X1650000Y3660000D01*
Y3740000D01*
X1630000Y3760000D01*
X1410000D01*
X1390000Y3780000D01*
Y3840000D01*
X1370000Y3860000D01*
X1210000D01*
X1190000Y3840000D01*
Y3760000D01*
X1170000Y3740000D01*
X1090000D01*
X1070000Y3760000D01*
Y3970000D01*
X1090000Y3990000D01*
X1650000D01*
X1670000Y3970000D01*
Y3470000D01*
X2000000Y3140000D01*
Y2720000D01*
X1980000Y2700000D01*
G37*
G36*
G01X433520Y2724310D02*
X429910Y2803630D01*
X348670Y2801330D01*
X346370Y2720090D01*
X425690Y2716480D01*
G03X433520Y2724310I340J7490D01*
G37*
G36*
G01X782180Y3637950D02*
X698910Y3627350D01*
X706350Y3545350D01*
X788350Y3537910D01*
X798950Y3621180D01*
G03X782180Y3637950I-14880J1890D01*
G37*
G36*
G01Y4145950D02*
X698910Y4135350D01*
X706350Y4053350D01*
X788350Y4045910D01*
X798950Y4129180D01*
G03X782180Y4145950I-14880J1890D01*
G37*
G36*
G01X798950Y4490820D02*
X788350Y4574090D01*
X706350Y4566650D01*
X698910Y4484650D01*
X782180Y4474050D01*
G03X798950Y4490820I1890J14880D01*
G37*
G36*
G01X782180Y4907950D02*
X698910Y4897350D01*
X706350Y4815350D01*
X788350Y4807910D01*
X798950Y4891180D01*
G03X782180Y4907950I-14880J1890D01*
G37*
G36*
G01X639950Y6276820D02*
X629350Y6360090D01*
X547350Y6352650D01*
X539910Y6270650D01*
X623180Y6260050D01*
G03X639950Y6276820I1890J14880D01*
G37*
G36*
G01X815860Y6234650D02*
X867240Y6301030D01*
X804000Y6353750D01*
X740760Y6301030D01*
X792140Y6234650D01*
G03X815860I11860J9180D01*
G37*
G36*
G01X893950Y6530820D02*
X883350Y6614090D01*
X801350Y6606650D01*
X793910Y6524650D01*
X877180Y6514050D01*
G03X893950Y6530820I1890J14880D01*
G37*
G36*
G01X476820Y6514050D02*
X560090Y6524650D01*
X552650Y6606650D01*
X470650Y6614090D01*
X460050Y6530820D01*
G03X476820Y6514050I14880J-1890D01*
G37*
G36*
G01X1241250Y1503510D02*
X1282500Y1479690D01*
X1301880Y1510000D01*
X1282500Y1540310D01*
X1241250Y1516490D01*
G03Y1503510I3750J-6490D01*
G37*
G36*
G01X1358750Y1516490D02*
X1317500Y1540310D01*
X1298120Y1510000D01*
X1317500Y1479690D01*
X1358750Y1503510D01*
G03Y1516490I-3750J6490D01*
G37*
G36*
G01X1008750D02*
X967500Y1540310D01*
X948120Y1510000D01*
X967500Y1479690D01*
X1008750Y1503510D01*
G03Y1516490I-3750J6490D01*
G37*
G36*
G01X888620Y1530780D02*
X918770Y1498560D01*
X951700Y1509210D01*
X945220Y1529950D01*
X896040Y1543140D01*
G03X888620Y1530780I-1939J-7243D01*
G37*
G36*
G01X1340000Y1850000D02*
X1320000Y1870000D01*
Y2020000D01*
X1420000D01*
X1630000Y2230000D01*
X1717480D01*
Y2229980D01*
X1782520D01*
Y2230000D01*
X1810000D01*
X1830000Y2210000D01*
Y1900000D01*
X1780000Y1850000D01*
X1340000D01*
G37*
G36*
G01X1008750Y1756490D02*
X967500Y1780310D01*
X948120Y1750000D01*
X967500Y1719690D01*
X1008750Y1743510D01*
G03Y1756490I-3750J6490D01*
G37*
G36*
G01X891250Y1743510D02*
X932500Y1719690D01*
X951880Y1750000D01*
X932500Y1780310D01*
X891250Y1756490D01*
G03Y1743510I3750J-6490D01*
G37*
G36*
G01X1241250D02*
X1282500Y1719690D01*
X1301880Y1750000D01*
X1282500Y1780310D01*
X1241250Y1756490D01*
G03Y1743510I3750J-6490D01*
G37*
G36*
G01X1358750Y1756490D02*
X1317500Y1780310D01*
X1298120Y1750000D01*
X1317500Y1719690D01*
X1358750Y1743510D01*
G03Y1756490I-3750J6490D01*
G37*
G36*
G01X1241250Y1623510D02*
X1282500Y1599690D01*
X1301880Y1630000D01*
X1282500Y1660310D01*
X1241250Y1636490D01*
G03Y1623510I3750J-6490D01*
G37*
G36*
G01X1358750Y1636490D02*
X1317500Y1660310D01*
X1298120Y1630000D01*
X1317500Y1599690D01*
X1358750Y1623510D01*
G03Y1636490I-3750J6490D01*
G37*
G36*
G01X1008750D02*
X967500Y1660310D01*
X948120Y1630000D01*
X967500Y1599690D01*
X1008750Y1623510D01*
G03Y1636490I-3750J6490D01*
G37*
G36*
G01X897370Y1623830D02*
X930100Y1601220D01*
X951880Y1630000D01*
X930100Y1658780D01*
X897370Y1636170D01*
G03Y1623830I4260J-6170D01*
G37*
G36*
G01X1320290Y1932480D02*
X1316640Y1908820D01*
X1351070Y1893840D01*
X1380300Y1917490D01*
X1366650Y1941160D01*
G03X1320290Y1932480I-21652J-12499D01*
G37*
G36*
G01X1340000Y2470000D02*
Y2530000D01*
X1580000D01*
X1600000Y2510000D01*
Y2390000D01*
X1580000Y2370000D01*
X1315000D01*
Y2445000D01*
X1340000Y2470000D01*
G37*
G36*
G01X1191650Y2647500D02*
X1200300Y2662510D01*
X1170000Y2686250D01*
X1139700Y2662510D01*
X1148350Y2647500D01*
G03X1191650I21650J12500D01*
G37*
G36*
G01X1291650D02*
X1300300Y2662510D01*
X1270000Y2686250D01*
X1239700Y2662510D01*
X1248350Y2647500D01*
G03X1291650I21650J12500D01*
G37*
G36*
G01X1391650D02*
X1400300Y2662510D01*
X1370000Y2686250D01*
X1339700Y2662510D01*
X1348350Y2647500D01*
G03X1391650I21650J12500D01*
G37*
G36*
G01X1372500Y3687010D02*
X1402510Y3669700D01*
X1423750Y3700000D01*
X1402510Y3730300D01*
X1372500Y3712990D01*
G03Y3687010I7500J-12990D01*
G37*
G36*
G01X1192500Y3821650D02*
X1177490Y3830300D01*
X1153750Y3800000D01*
X1177490Y3769700D01*
X1192500Y3778350D01*
G03Y3821650I-12500J21650D01*
G37*
G36*
G01X1078350Y4321860D02*
X1011970Y4373240D01*
X959250Y4310000D01*
X1011970Y4246760D01*
X1078350Y4298140D01*
G03Y4321860I-9180J11860D01*
G37*
G36*
G01Y4067860D02*
X1011970Y4119240D01*
X959250Y4056000D01*
X1011970Y3992760D01*
X1078350Y4044140D01*
G03Y4067860I-9180J11860D01*
G37*
G36*
G01X1372500Y4037010D02*
X1402510Y4019700D01*
X1423750Y4050000D01*
X1402510Y4080300D01*
X1372500Y4062990D01*
G03Y4037010I7500J-12990D01*
G37*
G36*
G01Y4237010D02*
X1402510Y4219700D01*
X1423750Y4250000D01*
X1402510Y4280300D01*
X1372500Y4262990D01*
G03Y4237010I7500J-12990D01*
G37*
G36*
G01Y4137010D02*
X1402510Y4119700D01*
X1423750Y4150000D01*
X1402510Y4180300D01*
X1372500Y4162990D01*
G03Y4137010I7500J-12990D01*
G37*
G36*
G01X1192500Y4371650D02*
X1177490Y4380300D01*
X1153750Y4350000D01*
X1177490Y4319700D01*
X1192500Y4328350D01*
G03Y4371650I-12500J21650D01*
G37*
G36*
G01Y4721650D02*
X1177490Y4730300D01*
X1153750Y4700000D01*
X1177490Y4669700D01*
X1192500Y4678350D01*
G03Y4721650I-12500J21650D01*
G37*
G36*
G01X1078350Y4575860D02*
X1011970Y4627240D01*
X959250Y4564000D01*
X1011970Y4500760D01*
X1078350Y4552140D01*
G03Y4575860I-9180J11860D01*
G37*
G36*
G01Y4829860D02*
X1011970Y4881240D01*
X959250Y4818000D01*
X1011970Y4754760D01*
X1078350Y4806140D01*
G03Y4829860I-9180J11860D01*
G37*
G36*
G01X1372500Y4537010D02*
X1402510Y4519700D01*
X1423750Y4550000D01*
X1402510Y4580300D01*
X1372500Y4562990D01*
G03Y4537010I7500J-12990D01*
G37*
G36*
G01X1192500Y5221650D02*
X1177490Y5230300D01*
X1153750Y5200000D01*
X1177490Y5169700D01*
X1192500Y5178350D01*
G03Y5221650I-12500J21650D01*
G37*
G36*
G01Y5021650D02*
X1177490Y5030300D01*
X1153750Y5000000D01*
X1177490Y4969700D01*
X1192500Y4978350D01*
G03Y5021650I-12500J21650D01*
G37*
G36*
G01X1078350Y5083860D02*
X1011970Y5135240D01*
X959250Y5072000D01*
X1011970Y5008760D01*
X1078350Y5060140D01*
G03Y5083860I-9180J11860D01*
G37*
G36*
G01X1228350Y5522500D02*
X1219700Y5507490D01*
X1250000Y5483750D01*
X1280300Y5507490D01*
X1271650Y5522500D01*
G03X1228350I-21650J-12500D01*
G37*
G36*
G01X1438290Y6002330D02*
X1433800Y6019050D01*
X1395580Y6014420D01*
X1390950Y5976200D01*
X1407670Y5971710D01*
G03X1438290Y6002330I6470J24150D01*
G37*
G36*
G01X1069860Y6234650D02*
X1121240Y6301030D01*
X1058000Y6353750D01*
X994760Y6301030D01*
X1046140Y6234650D01*
G03X1069860I11860J9180D01*
G37*
G36*
G01X1401950Y6276820D02*
X1391350Y6360090D01*
X1309350Y6352650D01*
X1301910Y6270650D01*
X1385180Y6260050D01*
G03X1401950Y6276820I1890J14880D01*
G37*
G36*
G01X1238820Y6514050D02*
X1322090Y6524650D01*
X1314650Y6606650D01*
X1232650Y6614090D01*
X1222050Y6530820D01*
G03X1238820Y6514050I14880J-1890D01*
G37*
G36*
G01X1641250Y1503510D02*
X1682500Y1479690D01*
X1701880Y1510000D01*
X1682500Y1540310D01*
X1641250Y1516490D01*
G03Y1503510I3750J-6490D01*
G37*
G36*
G01X1758750Y1516490D02*
X1717500Y1540310D01*
X1698120Y1510000D01*
X1717500Y1479690D01*
X1758750Y1503510D01*
G03Y1516490I-3750J6490D01*
G37*
G36*
G01X1890000Y1840000D02*
X1870000Y1860000D01*
Y2180000D01*
X2060000D01*
X2080000Y2200000D01*
Y2630000D01*
X2100000Y2650000D01*
X2270000D01*
X2290000Y2630000D01*
Y1930000D01*
X2200000Y1840000D01*
X1890000D01*
G37*
G36*
G01X1641250Y1743510D02*
X1682500Y1719690D01*
X1701880Y1750000D01*
X1682500Y1780310D01*
X1641250Y1756490D01*
G03Y1743510I3750J-6490D01*
G37*
G36*
G01X1758750Y1756490D02*
X1717500Y1780310D01*
X1698120Y1750000D01*
X1717500Y1719690D01*
X1758750Y1743510D01*
G03Y1756490I-3750J6490D01*
G37*
G36*
G01X1641250Y1623510D02*
X1682500Y1599690D01*
X1701880Y1630000D01*
X1682500Y1660310D01*
X1641250Y1636490D01*
G03Y1623510I3750J-6490D01*
G37*
G36*
G01X1758750Y1636490D02*
X1717500Y1660310D01*
X1698120Y1630000D01*
X1717500Y1599690D01*
X1758750Y1623510D01*
G03Y1636490I-3750J6490D01*
G37*
G36*
G01X1670000Y2270000D02*
X1650000Y2290000D01*
Y2600000D01*
X1700000Y2650000D01*
X1980000D01*
X2030000Y2600000D01*
Y2320000D01*
X1860000D01*
X1810000Y2270000D01*
X1782520D01*
Y2270020D01*
X1717480D01*
Y2270000D01*
X1670000D01*
G37*
G36*
G01X1467500Y3712990D02*
X1437490Y3730300D01*
X1416250Y3700000D01*
X1437490Y3669700D01*
X1467500Y3687010D01*
G03Y3712990I-7500J12990D01*
G37*
G36*
G01X1787230Y3624400D02*
X1796200Y3590940D01*
X1832650Y3597350D01*
X1839060Y3633800D01*
X1805600Y3642770D01*
G03X1787230Y3624400I-3880J-14490D01*
G37*
G36*
G01X1647500Y4228350D02*
X1662510Y4219700D01*
X1686250Y4250000D01*
X1662510Y4280300D01*
X1647500Y4271650D01*
G03Y4228350I12500J-21650D01*
G37*
G36*
G01Y4128350D02*
X1662510Y4119700D01*
X1686250Y4150000D01*
X1662510Y4180300D01*
X1647500Y4171650D01*
G03Y4128350I12500J-21650D01*
G37*
G36*
G01X1838140Y3967680D02*
X1802340Y3921420D01*
X1828790Y3896450D01*
X1850000Y3920000D01*
Y3958500D01*
X1838140Y3967680D01*
G37*
G36*
G01X1467500Y4062990D02*
X1437490Y4080300D01*
X1416250Y4050000D01*
X1437490Y4019700D01*
X1467500Y4037010D01*
G03Y4062990I-7500J12990D01*
G37*
G36*
G01Y4262990D02*
X1437490Y4280300D01*
X1416250Y4250000D01*
X1437490Y4219700D01*
X1467500Y4237010D01*
G03Y4262990I-7500J12990D01*
G37*
G36*
G01Y4162990D02*
X1437490Y4180300D01*
X1416250Y4150000D01*
X1437490Y4119700D01*
X1467500Y4137010D01*
G03Y4162990I-7500J12990D01*
G37*
G36*
G01X1452500Y4371650D02*
X1437490Y4380300D01*
X1413750Y4350000D01*
X1437490Y4319700D01*
X1452500Y4328350D01*
G03Y4371650I-12500J21650D01*
G37*
G36*
G01X1647500Y4528350D02*
X1662510Y4519700D01*
X1686250Y4550000D01*
X1662510Y4580300D01*
X1647500Y4571650D01*
G03Y4528350I12500J-21650D01*
G37*
G36*
G01X1452500Y4721650D02*
X1437490Y4730300D01*
X1413750Y4700000D01*
X1437490Y4669700D01*
X1452500Y4678350D01*
G03Y4721650I-12500J21650D01*
G37*
G36*
G01X1621250Y4793510D02*
X1662500Y4769690D01*
X1681880Y4800000D01*
X1662500Y4830310D01*
X1621250Y4806490D01*
G03Y4793510I3750J-6490D01*
G37*
G36*
G01X1632500Y4437010D02*
X1662510Y4419700D01*
X1683750Y4450000D01*
X1662510Y4480300D01*
X1632500Y4462990D01*
G03Y4437010I7500J-12990D01*
G37*
G36*
G01X1467500Y4562990D02*
X1437490Y4580300D01*
X1416250Y4550000D01*
X1437490Y4519700D01*
X1467500Y4537010D01*
G03Y4562990I-7500J12990D01*
G37*
G36*
G01X1452500Y5021650D02*
X1437490Y5030300D01*
X1413750Y5000000D01*
X1437490Y4969700D01*
X1452500Y4978350D01*
G03Y5021650I-12500J21650D01*
G37*
G36*
G01X1621250Y4893510D02*
X1662500Y4869690D01*
X1681880Y4900000D01*
X1662500Y4930310D01*
X1621250Y4906490D01*
G03Y4893510I3750J-6490D01*
G37*
G36*
G01X1647500Y5078350D02*
X1662510Y5069700D01*
X1686250Y5100000D01*
X1662510Y5130300D01*
X1647500Y5121650D01*
G03Y5078350I12500J-21650D01*
G37*
G36*
G01X1471650Y5717500D02*
X1480300Y5732510D01*
X1450000Y5756250D01*
X1419700Y5732510D01*
X1428350Y5717500D01*
G03X1471650I21650J12500D01*
G37*
G36*
G01X1928350Y5522500D02*
X1919700Y5507490D01*
X1950000Y5483750D01*
X1980300Y5507490D01*
X1971650Y5522500D01*
G03X1928350I-21650J-12500D01*
G37*
G36*
G01X1671650Y5717500D02*
X1680300Y5732510D01*
X1650000Y5756250D01*
X1619700Y5732510D01*
X1628350Y5717500D01*
G03X1671650I21650J12500D01*
G37*
G36*
G01X1871650D02*
X1880300Y5732510D01*
X1850000Y5756250D01*
X1819700Y5732510D01*
X1828350Y5717500D01*
G03X1871650I21650J12500D01*
G37*
G36*
G01Y5977500D02*
X1880300Y5992510D01*
X1850000Y6016250D01*
X1819700Y5992510D01*
X1828350Y5977500D01*
G03X1871650I21650J12500D01*
G37*
G36*
G01X1638290Y6002330D02*
X1633800Y6019050D01*
X1595580Y6014420D01*
X1590950Y5976200D01*
X1607670Y5971710D01*
G03X1638290Y6002330I6470J24150D01*
G37*
G36*
G01X1655950Y6276820D02*
X1645350Y6360090D01*
X1563350Y6352650D01*
X1555910Y6270650D01*
X1639180Y6260050D01*
G03X1655950Y6276820I1890J14880D01*
G37*
G36*
G01X7580000Y3770000D02*
X7380000Y3970000D01*
X6910000D01*
X6770000Y3830000D01*
X6660000D01*
Y5260000D01*
X6680000Y5280000D01*
X7450000D01*
X7490000Y5320000D01*
Y5530000D01*
X7450000Y5570000D01*
X6390000D01*
X6190000Y5370000D01*
Y5140000D01*
X6110000Y5060000D01*
X5680000D01*
X5660000Y5080000D01*
Y5360000D01*
X5630000Y5390000D01*
X5310000D01*
X5280000Y5360000D01*
Y5320000D01*
X5260000Y5300000D01*
X5160000D01*
X5140000Y5280000D01*
Y5230000D01*
X5120000Y5210000D01*
X4970000D01*
X4940000Y5180000D01*
Y5020000D01*
X4920000Y5000000D01*
X4040000D01*
X4010000Y5030000D01*
Y5080000D01*
X3980000Y5110000D01*
X3940000D01*
X3920000Y5130000D01*
Y5570000D01*
X3890000Y5600000D01*
Y5690000D01*
X3860000Y5720000D01*
X3820000D01*
X3800000Y5740000D01*
Y5820000D01*
X3820000Y5840000D01*
X3860000D01*
X3890000Y5870000D01*
Y5930000D01*
X3860000Y5960000D01*
X3520000D01*
X3500000Y5980000D01*
Y6263230D01*
G02X3530200Y6276470I18001J4D01*
G03Y6423530I67800J73530D01*
G02X3500000Y6436770I-12199J13236D01*
G01Y6490000D01*
X3450000Y6540000D01*
Y6650000D01*
X3390000Y6710000D01*
X1720000D01*
X1700000Y6730000D01*
Y6830000D01*
X1720000Y6850000D01*
X7670000D01*
X7720000Y6800000D01*
Y3770000D01*
X7580000D01*
G37*
G36*
G01X2041250Y1503510D02*
X2082500Y1479690D01*
X2101880Y1510000D01*
X2082500Y1540310D01*
X2041250Y1516490D01*
G03Y1503510I3750J-6490D01*
G37*
G36*
G01X2158750Y1516490D02*
X2117500Y1540310D01*
X2098120Y1510000D01*
X2117500Y1479690D01*
X2158750Y1503510D01*
G03Y1516490I-3750J6490D01*
G37*
G36*
G01X2041250Y1743510D02*
X2082500Y1719690D01*
X2101880Y1750000D01*
X2082500Y1780310D01*
X2041250Y1756490D01*
G03Y1743510I3750J-6490D01*
G37*
G36*
G01X2158750Y1756490D02*
X2117500Y1780310D01*
X2098120Y1750000D01*
X2117500Y1719690D01*
X2158750Y1743510D01*
G03Y1756490I-3750J6490D01*
G37*
G36*
G01X2041250Y1623510D02*
X2082500Y1599690D01*
X2101880Y1630000D01*
X2082500Y1660310D01*
X2041250Y1636490D01*
G03Y1623510I3750J-6490D01*
G37*
G36*
G01X2158750Y1636490D02*
X2117500Y1660310D01*
X2098120Y1630000D01*
X2117500Y1599690D01*
X2158750Y1623510D01*
G03Y1636490I-3750J6490D01*
G37*
G36*
G01X2220000Y2700000D02*
X2200000Y2720000D01*
Y3040000D01*
X2300000Y3140000D01*
X2450000D01*
X2520000Y3070000D01*
X2570000D01*
X2590000Y3050000D01*
Y2990000D01*
X2300000Y2700000D01*
X2220000D01*
G37*
G36*
G01X2202500Y2821650D02*
X2134990Y2860610D01*
X2093750Y2800000D01*
X2134990Y2739390D01*
X2202500Y2778350D01*
G03Y2821650I-12500J21650D01*
G37*
G36*
G01X1997500Y2778350D02*
X2065010Y2739390D01*
X2106250Y2800000D01*
X2065010Y2860610D01*
X1997500Y2821650D01*
G03Y2778350I12500J-21650D01*
G37*
G36*
G01X2165710Y3083160D02*
X2087430Y3068860D01*
X2097350Y2997350D01*
X2168860Y2987430D01*
X2183160Y3065710D01*
G03X2165710Y3083160I-14760J2690D01*
G37*
G36*
G01X2521250Y3210820D02*
X2487500Y3230310D01*
X2466880Y3200000D01*
X2487500Y3169690D01*
X2521250Y3189180D01*
G03Y3210820I-6250J10820D01*
G37*
G36*
G01X1994730Y3187660D02*
X2060210Y3142420D01*
X2103750Y3200000D01*
X2060210Y3257580D01*
X1994730Y3212340D01*
G03Y3187660I8530J-12340D01*
G37*
G36*
G01X2305980Y3705000D02*
X2275000D01*
X2254060Y3688060D01*
X2277500Y3659700D01*
X2318480Y3683350D01*
X2305980Y3705000D01*
G37*
G36*
G01X2183160Y3634290D02*
X2168860Y3712570D01*
X2097350Y3702650D01*
X2087430Y3631140D01*
X2165710Y3616840D01*
G03X2183160Y3634290I2690J14760D01*
G37*
G36*
G01X2392500Y3641650D02*
X2377490Y3650300D01*
X2353750Y3620000D01*
X2377490Y3589700D01*
X2392500Y3598350D01*
G03Y3641650I-12500J21650D01*
G37*
G36*
G01X2301160Y4106650D02*
X2277490Y4120300D01*
X2253840Y4091070D01*
X2268820Y4056640D01*
X2292480Y4060290D01*
G03X2301160Y4106650I-3819J24708D01*
G37*
G36*
G01Y4006650D02*
X2277490Y4020300D01*
X2253840Y3991070D01*
X2268820Y3956640D01*
X2292480Y3960290D01*
G03X2301160Y4006650I-3819J24708D01*
G37*
G36*
G01X2533890Y3971420D02*
X2523790Y4009050D01*
X2487790Y4002210D01*
X2480950Y3966210D01*
X2518580Y3956110D01*
G03X2533890Y3971420I3240J12070D01*
G37*
G36*
G01Y4191420D02*
X2523790Y4229050D01*
X2487790Y4222210D01*
X2480950Y4186210D01*
X2518580Y4176110D01*
G03X2533890Y4191420I3240J12070D01*
G37*
G36*
G01X2292480Y3919710D02*
X2268820Y3923360D01*
X2253840Y3888930D01*
X2277490Y3859700D01*
X2301160Y3873350D01*
G03X2292480Y3919710I-12499J21652D01*
G37*
G36*
G01Y3819710D02*
X2268820Y3823360D01*
X2253840Y3788930D01*
X2277490Y3759700D01*
X2301160Y3773350D01*
G03X2292480Y3819710I-12499J21652D01*
G37*
G36*
G01X2318480Y4196650D02*
X2277500Y4220300D01*
X2254060Y4191940D01*
X2275000Y4175000D01*
X2305980D01*
X2318480Y4196650D01*
G37*
G36*
G01X2550000Y4450000D02*
X2190000Y4810000D01*
Y5500000D01*
X2210000Y5520000D01*
X2380000D01*
X2400000Y5500000D01*
Y4800000D01*
X2530000Y4670000D01*
Y4540000D01*
X2540000Y4530000D01*
X2670000D01*
X2690000Y4510000D01*
Y4470000D01*
X2670000Y4450000D01*
X2550000D01*
G37*
G36*
G01X2770000Y4500000D02*
Y4760000D01*
X2760000Y4770000D01*
X2500000D01*
X2450000Y4820000D01*
Y5390000D01*
X2470000Y5410000D01*
X2770000D01*
X2830000Y5350000D01*
X3020000D01*
X3040000Y5330000D01*
Y5100000D01*
X3020000Y5080000D01*
X2660000D01*
X2630000Y5050000D01*
Y4990000D01*
X2660000Y4960000D01*
X2701380D01*
X2713160Y4956840D01*
X2850000Y4820000D01*
Y4500000D01*
X2770000D01*
G37*
G36*
G01X2205270Y4412340D02*
X2139790Y4457580D01*
X2096250Y4400000D01*
X2139790Y4342420D01*
X2205270Y4387660D01*
G03Y4412340I-8530J12340D01*
G37*
G36*
G01X2035510Y4646120D02*
X2048430Y4597920D01*
X2102650Y4597350D01*
X2102080Y4651570D01*
X2053880Y4664490D01*
G03X2035510Y4646120I-3880J-14490D01*
G37*
G36*
G01X2052770Y5345600D02*
X2043800Y5379060D01*
X2007350Y5372650D01*
X2000940Y5336200D01*
X2034400Y5327230D01*
G03X2052770Y5345600I3880J14490D01*
G37*
G36*
G01X2420000Y6240000D02*
X2650000D01*
X2970000Y5920000D01*
Y5870000D01*
X2950000Y5850000D01*
X2830000D01*
X2770000Y5790000D01*
X2450000D01*
X2430000Y5810000D01*
Y5840000D01*
X2480000Y5890000D01*
X2730000D01*
X2760000Y5920000D01*
Y5980000D01*
X2730000Y6010000D01*
X2420000D01*
X2400000Y6030000D01*
Y6220000D01*
X2420000Y6240000D01*
G37*
G36*
G01X2318350Y5522500D02*
X2309700Y5507490D01*
X2340000Y5483750D01*
X2370300Y5507490D01*
X2361650Y5522500D01*
G03X2318350I-21650J-12500D01*
G37*
G36*
G01X2058350D02*
X2049700Y5507490D01*
X2080000Y5483750D01*
X2110300Y5507490D01*
X2101650Y5522500D01*
G03X2058350I-21650J-12500D01*
G37*
G36*
G01X2188350D02*
X2179700Y5507490D01*
X2210000Y5483750D01*
X2240300Y5507490D01*
X2231650Y5522500D01*
G03X2188350I-21650J-12500D01*
G37*
G36*
G01X2197010Y5797500D02*
X2179700Y5767490D01*
X2210000Y5746250D01*
X2240300Y5767490D01*
X2222990Y5797500D01*
G03X2197010I-12990J-7500D01*
G37*
G36*
G01X2222990Y5702500D02*
X2240300Y5732510D01*
X2210000Y5753750D01*
X2179700Y5732510D01*
X2197010Y5702500D01*
G03X2222990I12990J7500D01*
G37*
G36*
G01X2252310Y6520480D02*
X2331630Y6524090D01*
X2329330Y6605330D01*
X2248090Y6607630D01*
X2244480Y6528310D01*
G03X2252310Y6520480I7490J-340D01*
G37*
G36*
G01X2860000Y3140000D02*
X2840000Y3160000D01*
Y3840270D01*
G02X2868350Y3854990I17998J-4D01*
G03Y3945010I31650J45010D01*
G02X2840000Y3959730I-10352J14724D01*
G01Y4170000D01*
X2860000Y4190000D01*
X2930000D01*
X2960000Y4220000D01*
Y4280000D01*
X2930000Y4310000D01*
X2860000D01*
X2840000Y4330000D01*
Y4430000D01*
X2820000Y4450000D01*
X2790000D01*
X2770000Y4470000D01*
Y4510000D01*
X2850000D01*
Y4480000D01*
X2870000Y4460000D01*
X4140000D01*
X4160000Y4440000D01*
Y4290000D01*
X4130000Y4260000D01*
X3970000D01*
X3940000Y4230000D01*
Y3770000D01*
X3970000Y3740000D01*
X4140000D01*
X4160000Y3720000D01*
Y3480000D01*
X4140000Y3460000D01*
X4070000D01*
X4040000Y3430000D01*
Y3370000D01*
X4070000Y3340000D01*
X4140000D01*
X4160000Y3320000D01*
Y3280000D01*
X4140000Y3260000D01*
X3880000D01*
X3860000Y3280000D01*
Y3330000D01*
X3830000Y3360000D01*
X3670000D01*
X3640000Y3330000D01*
Y3290000D01*
X3580000Y3230000D01*
Y3160000D01*
X3560000Y3140000D01*
X2860000D01*
G37*
G36*
G01X2735170Y2724600D02*
X2755710Y2704810D01*
X2781880Y2730000D01*
X2755710Y2755190D01*
X2735170Y2735400D01*
G03Y2724600I5210J-5400D01*
G37*
G36*
G01X2755170Y2844600D02*
X2775710Y2824810D01*
X2801880Y2850000D01*
X2775710Y2875190D01*
X2755170Y2855400D01*
G03Y2844600I5210J-5400D01*
G37*
G36*
G01X2775170Y2964600D02*
X2795710Y2944810D01*
X2821880Y2970000D01*
X2795710Y2995190D01*
X2775170Y2975400D01*
G03Y2964600I5210J-5400D01*
G37*
G36*
G01X2604450Y3167510D02*
X2548410Y3164960D01*
X2547160Y3128710D01*
X2580000Y3130000D01*
X2605020Y3155020D01*
X2604450Y3167510D01*
G37*
G36*
G01X2601250Y3280820D02*
X2567500Y3300310D01*
X2546880Y3270000D01*
X2567500Y3239690D01*
X2601250Y3259180D01*
G03Y3280820I-6250J10820D01*
G37*
G36*
G01X2628570Y3610820D02*
X2577500Y3640310D01*
X2556910Y3610500D01*
X2573530Y3578230D01*
X2624600Y3587710D01*
G03X2628570Y3610820I-2283J12288D01*
G37*
G36*
G01X2641250Y4010820D02*
X2607500Y4030310D01*
X2586880Y4000000D01*
X2607500Y3969690D01*
X2641250Y3989180D01*
G03Y4010820I-6250J10820D01*
G37*
G36*
G01X2841250Y4243510D02*
X2882500Y4219690D01*
X2901880Y4250000D01*
X2882500Y4280310D01*
X2841250Y4256490D01*
G03Y4243510I3750J-6490D01*
G37*
G36*
G01X2655710Y4209460D02*
X2612890Y4246470D01*
X2587050Y4221030D01*
X2610000Y4200000D01*
X2647530D01*
X2655710Y4209460D01*
G37*
G36*
G01X2736130Y4983050D02*
X2723790Y5029060D01*
X2688670Y5021330D01*
X2680940Y4986210D01*
X2726950Y4973870D01*
G03X2736130Y4983050I1940J7240D01*
G37*
G36*
G01X2836130D02*
X2823790Y5029060D01*
X2788670Y5021330D01*
X2780940Y4986210D01*
X2826950Y4973870D01*
G03X2836130Y4983050I1940J7240D01*
G37*
G36*
G01X2956130D02*
X2943790Y5029060D01*
X2908670Y5021330D01*
X2900940Y4986210D01*
X2946950Y4973870D01*
G03X2956130Y4983050I1940J7240D01*
G37*
G36*
G01X3056130D02*
X3043790Y5029060D01*
X3008670Y5021330D01*
X3000940Y4986210D01*
X3046950Y4973870D01*
G03X3056130Y4983050I1940J7240D01*
G37*
G36*
G01X2552500Y5491650D02*
X2537490Y5500300D01*
X2513750Y5470000D01*
X2537490Y5439700D01*
X2552500Y5448350D01*
G03Y5491650I-12500J21650D01*
G37*
G36*
G01Y5621650D02*
X2537490Y5630300D01*
X2513750Y5600000D01*
X2537490Y5569700D01*
X2552500Y5578350D01*
G03Y5621650I-12500J21650D01*
G37*
G36*
G01Y5751650D02*
X2537490Y5760300D01*
X2513750Y5730000D01*
X2537490Y5699700D01*
X2552500Y5708350D01*
G03Y5751650I-12500J21650D01*
G37*
G36*
G01X2721250Y5723510D02*
X2762500Y5699690D01*
X2781880Y5730000D01*
X2762500Y5760310D01*
X2721250Y5736490D01*
G03Y5723510I3750J-6490D01*
G37*
G36*
G01X2838750Y5736490D02*
X2797500Y5760310D01*
X2778120Y5730000D01*
X2797500Y5699690D01*
X2838750Y5723510D01*
G03Y5736490I-3750J6490D01*
G37*
G36*
G01X2721250Y5463510D02*
X2762500Y5439690D01*
X2781880Y5470000D01*
X2762500Y5500310D01*
X2721250Y5476490D01*
G03Y5463510I3750J-6490D01*
G37*
G36*
G01X2838750Y5476490D02*
X2797500Y5500310D01*
X2778120Y5470000D01*
X2797500Y5439690D01*
X2838750Y5463510D01*
G03Y5476490I-3750J6490D01*
G37*
G36*
G01Y5606490D02*
X2797500Y5630310D01*
X2778120Y5600000D01*
X2797500Y5569690D01*
X2838750Y5593510D01*
G03Y5606490I-3750J6490D01*
G37*
G36*
G01X2721250Y5593510D02*
X2762500Y5569690D01*
X2781880Y5600000D01*
X2762500Y5630310D01*
X2721250Y5606490D01*
G03Y5593510I3750J-6490D01*
G37*
G36*
G01X2641250Y5943510D02*
X2682500Y5919690D01*
X2701880Y5950000D01*
X2682500Y5980310D01*
X2641250Y5956490D01*
G03Y5943510I3750J-6490D01*
G37*
G36*
G01X2665520Y6274310D02*
X2661910Y6353630D01*
X2580670Y6351330D01*
X2578370Y6270090D01*
X2657690Y6266480D01*
G03X2665520Y6274310I340J7490D01*
G37*
G36*
G01X3037210Y6070810D02*
X3034900Y6102530D01*
X2998670Y6101330D01*
X2997470Y6065100D01*
X3029190Y6062790D01*
G03X3037210Y6070810I540J7480D01*
G37*
G36*
G01X2665520Y6528310D02*
X2661910Y6607630D01*
X2580670Y6605330D01*
X2578370Y6524090D01*
X2657690Y6520480D01*
G03X2665520Y6528310I340J7490D01*
G37*
G36*
G01X3517410Y1111490D02*
X3467500Y1140310D01*
X3448130Y1110150D01*
X3466390Y1079170D01*
X3516310Y1097980D01*
G03X3517410Y1111490I-2651J7016D01*
G37*
G36*
G01X3508750Y1306490D02*
X3467500Y1330310D01*
X3448120Y1300000D01*
X3467500Y1269690D01*
X3508750Y1293510D01*
G03Y1306490I-3750J6490D01*
G37*
G36*
G01X3197500Y1828350D02*
X3212510Y1819700D01*
X3236250Y1850000D01*
X3212510Y1880300D01*
X3197500Y1871650D01*
G03Y1828350I12500J-21650D01*
G37*
G36*
G01X3103050Y4693870D02*
X3149060Y4706210D01*
X3141330Y4741330D01*
X3106210Y4749060D01*
X3093870Y4703050D01*
G03X3103050Y4693870I7240J-1940D01*
G37*
G36*
G01X3226490Y4741250D02*
X3250310Y4782500D01*
X3220000Y4801880D01*
X3189690Y4782500D01*
X3213510Y4741250D01*
G03X3226490I6490J3750D01*
G37*
G36*
G01X3306490Y4801250D02*
X3330310Y4842500D01*
X3300000Y4861880D01*
X3269690Y4842500D01*
X3293510Y4801250D01*
G03X3306490I6490J3750D01*
G37*
G36*
G01X3579710Y4857520D02*
X3583360Y4881180D01*
X3548930Y4896160D01*
X3519700Y4872510D01*
X3533350Y4848840D01*
G03X3579710Y4857520I21652J12499D01*
G37*
G36*
G01X3573290Y4938290D02*
X3550000Y4915000D01*
X3547280Y4884370D01*
X3583800Y4880940D01*
X3597440Y4931820D01*
X3573290Y4938290D01*
G37*
G36*
G01X3278750Y4926490D02*
X3237500Y4950310D01*
X3218120Y4920000D01*
X3237500Y4889690D01*
X3278750Y4913510D01*
G03Y4926490I-3750J6490D01*
G37*
G36*
G01X3241250Y4973510D02*
X3282500Y4949690D01*
X3301880Y4980000D01*
X3282500Y5010310D01*
X3241250Y4986490D01*
G03Y4973510I3750J-6490D01*
G37*
G36*
G01X3173870Y5076950D02*
X3186210Y5030940D01*
X3221330Y5038670D01*
X3229060Y5073790D01*
X3183050Y5086130D01*
G03X3173870Y5076950I-1940J-7240D01*
G37*
G36*
G01X3253870Y5136950D02*
X3266210Y5090940D01*
X3301330Y5098670D01*
X3309060Y5133790D01*
X3263050Y5146130D01*
G03X3253870Y5136950I-1940J-7240D01*
G37*
G36*
G01X3463050Y5053870D02*
X3509060Y5066210D01*
X3501330Y5101330D01*
X3466210Y5109060D01*
X3453870Y5063050D01*
G03X3463050Y5053870I7240J-1940D01*
G37*
G36*
G01X3286490Y5911250D02*
X3310310Y5952500D01*
X3280000Y5971880D01*
X3249690Y5952500D01*
X3273510Y5911250D01*
G03X3286490I6490J3750D01*
G37*
G36*
G01X3349540Y6237420D02*
X3403070Y6296060D01*
X3344000Y6351880D01*
X3284930Y6296060D01*
X3338460Y6237420D01*
G03X3349540I5540J5060D01*
G37*
G36*
G01X3156490Y6041250D02*
X3180310Y6082500D01*
X3150000Y6101880D01*
X3119690Y6082500D01*
X3143510Y6041250D01*
G03X3156490I6490J3750D01*
G37*
G36*
G01X3095540Y6237420D02*
X3149070Y6296060D01*
X3090000Y6351880D01*
X3030930Y6296060D01*
X3084460Y6237420D01*
G03X3095540I5540J5060D01*
G37*
G36*
G01X3427520Y6528310D02*
X3423910Y6607630D01*
X3342670Y6605330D01*
X3340370Y6524090D01*
X3419690Y6520480D01*
G03X3427520Y6528310I340J7490D01*
G37*
G36*
G01X3173520D02*
X3169910Y6607630D01*
X3088670Y6605330D01*
X3086370Y6524090D01*
X3165690Y6520480D01*
G03X3173520Y6528310I340J7490D01*
G37*
G36*
G01X4099190Y1387210D02*
X4067470Y1384900D01*
X4068670Y1348670D01*
X4104900Y1347470D01*
X4107210Y1379190D01*
G03X4099190Y1387210I-7480J540D01*
G37*
G36*
G01X3897500Y1118350D02*
X3912510Y1109700D01*
X3936250Y1140000D01*
X3912510Y1170300D01*
X3897500Y1161650D01*
G03Y1118350I12500J-21650D01*
G37*
G36*
G01X3807520Y1470290D02*
X3831180Y1466640D01*
X3846160Y1501070D01*
X3822510Y1530300D01*
X3798840Y1516650D01*
G03X3807520Y1470290I12499J-21652D01*
G37*
G36*
G01X3897500Y1238350D02*
X3912510Y1229700D01*
X3936250Y1260000D01*
X3912510Y1290300D01*
X3897500Y1281650D01*
G03Y1238350I12500J-21650D01*
G37*
G36*
G01X4180000Y1920000D02*
X4080000Y1820000D01*
X4060000D01*
Y1880000D01*
X4130000Y1950000D01*
Y2020000D01*
X4150000Y2040000D01*
X4320000D01*
X4340000Y2060000D01*
Y2340000D01*
X4320000Y2360000D01*
X4150000D01*
X4130000Y2380000D01*
Y2450000D01*
X4110000Y2470000D01*
X3660000D01*
X3620000Y2510000D01*
Y2680000D01*
X3640000Y2700000D01*
X3690000D01*
X3710000Y2720000D01*
Y2770000D01*
X3730000Y2790000D01*
X3770000D01*
X3810000Y2830000D01*
X4460000D01*
X4470000Y2840000D01*
Y3200000D01*
X4520000D01*
X4540000Y3180000D01*
Y2550000D01*
X4480000Y2490000D01*
Y1950000D01*
X4450000Y1920000D01*
X4180000D01*
G37*
G36*
G01X3862500Y1871650D02*
X3847490Y1880300D01*
X3823750Y1850000D01*
X3847490Y1819700D01*
X3862500Y1828350D01*
G03Y1871650I-12500J21650D01*
G37*
G36*
G01X4106490Y3141250D02*
X4130310Y3182500D01*
X4100000Y3201880D01*
X4069690Y3182500D01*
X4093510Y3141250D01*
G03X4106490I6490J3750D01*
G37*
G36*
G01X4046130Y3163050D02*
X4033790Y3209060D01*
X3998670Y3201330D01*
X3990940Y3166210D01*
X4036950Y3153870D01*
G03X4046130Y3163050I1940J7240D01*
G37*
G36*
G01X4003870Y2926950D02*
X4016210Y2880940D01*
X4051330Y2888670D01*
X4059060Y2923790D01*
X4013050Y2936130D01*
G03X4003870Y2926950I-1940J-7240D01*
G37*
G36*
G01X3943510Y2948750D02*
X3919690Y2907500D01*
X3950000Y2888120D01*
X3980310Y2907500D01*
X3956490Y2948750D01*
G03X3943510I-6490J-3750D01*
G37*
G36*
G01X3896730Y2935620D02*
X3842790Y2924240D01*
X3848530Y2888840D01*
X3883650Y2881050D01*
X3905020Y2925000D01*
G03X3896730Y2935620I-6743J3282D01*
G37*
G36*
G01X3863050Y3153870D02*
X3909060Y3166210D01*
X3901330Y3201330D01*
X3866210Y3209060D01*
X3853870Y3163050D01*
G03X3863050Y3153870I7240J-1940D01*
G37*
G36*
G01X3806490Y3141250D02*
X3830310Y3182500D01*
X3800000Y3201880D01*
X3769690Y3182500D01*
X3793510Y3141250D01*
G03X3806490I6490J3750D01*
G37*
G36*
G01X3657250Y3135220D02*
X3669860Y3182430D01*
X3639710Y3201850D01*
X3611220Y3180100D01*
X3643830Y3132900D01*
G03X3657250Y3135220I6174J4260D01*
G37*
G36*
G01X3707520Y2820290D02*
X3731180Y2816640D01*
X3746160Y2851070D01*
X3722510Y2880300D01*
X3698840Y2866650D01*
G03X3707520Y2820290I12499J-21652D01*
G37*
G36*
G01X4158750Y3406490D02*
X4117500Y3430310D01*
X4098120Y3400000D01*
X4117500Y3369690D01*
X4158750Y3393510D01*
G03Y3406490I-3750J6490D01*
G37*
G36*
G01X3763050Y3253870D02*
X3809060Y3266210D01*
X3801330Y3301330D01*
X3766210Y3309060D01*
X3753870Y3263050D01*
G03X3763050Y3253870I7240J-1940D01*
G37*
G36*
G01X3706490Y3241250D02*
X3730310Y3282500D01*
X3700000Y3301880D01*
X3669690Y3282500D01*
X3693510Y3241250D01*
G03X3706490I6490J3750D01*
G37*
G36*
G01X4036950Y3846130D02*
X3990940Y3833790D01*
X3998670Y3798670D01*
X4033790Y3790940D01*
X4046130Y3836950D01*
G03X4036950Y3846130I-7240J1940D01*
G37*
G36*
G01X4136950D02*
X4090940Y3833790D01*
X4098670Y3798670D01*
X4133790Y3790940D01*
X4146130Y3836950D01*
G03X4136950Y3846130I-7240J1940D01*
G37*
G36*
G01X4058750Y4206490D02*
X4017500Y4230310D01*
X3998120Y4200000D01*
X4017500Y4169690D01*
X4058750Y4193510D01*
G03Y4206490I-3750J6490D01*
G37*
G36*
G01X4143750Y4146500D02*
X4117480Y4161650D01*
X4098130Y4141850D01*
X4117080Y4120230D01*
X4143340Y4133280D01*
G03X4143750Y4146500I-3337J6720D01*
G37*
G36*
G01X4058750Y4086490D02*
X4017500Y4110310D01*
X3998120Y4080000D01*
X4017500Y4049690D01*
X4058750Y4073510D01*
G03Y4086490I-3750J6490D01*
G37*
G36*
G01X4144830Y4025400D02*
X4124290Y4045190D01*
X4098120Y4020000D01*
X4124290Y3994810D01*
X4144830Y4014600D01*
G03Y4025400I-5210J5400D01*
G37*
G36*
G01X4058750Y3966490D02*
X4017500Y3990310D01*
X3998120Y3960000D01*
X4017500Y3929690D01*
X4058750Y3953510D01*
G03Y3966490I-3750J6490D01*
G37*
G36*
G01X3647500Y4978350D02*
X3662510Y4969700D01*
X3686250Y5000000D01*
X3662510Y5030300D01*
X3647500Y5021650D01*
G03Y4978350I12500J-21650D01*
G37*
G36*
G01X3616650Y5058840D02*
X3630300Y5082510D01*
X3601070Y5106160D01*
X3566640Y5091180D01*
X3570290Y5067520D01*
G03X3616650Y5058840I24708J3819D01*
G37*
G36*
G01X3648510Y5377410D02*
X3619690Y5327500D01*
X3649850Y5308130D01*
X3680830Y5326390D01*
X3662020Y5376310D01*
G03X3648510Y5377410I-7016J-2651D01*
G37*
G36*
G01X3903870Y5086950D02*
X3916210Y5040940D01*
X3951330Y5048670D01*
X3959060Y5083790D01*
X3913050Y5096130D01*
G03X3903870Y5086950I-1940J-7240D01*
G37*
G36*
G01Y4986950D02*
X3916210Y4940940D01*
X3951330Y4948670D01*
X3959060Y4983790D01*
X3913050Y4996130D01*
G03X3903870Y4986950I-1940J-7240D01*
G37*
G36*
G01X3666650Y4848840D02*
X3680300Y4872510D01*
X3651070Y4896160D01*
X3616640Y4881180D01*
X3620290Y4857520D01*
G03X3666650Y4848840I24708J3819D01*
G37*
G36*
G01X3720290Y5342480D02*
X3716640Y5318820D01*
X3751070Y5303840D01*
X3780300Y5327490D01*
X3766650Y5351160D01*
G03X3720290Y5342480I-21652J-12499D01*
G37*
G36*
G01X3797500Y5768350D02*
X3812510Y5759700D01*
X3836250Y5790000D01*
X3812510Y5820300D01*
X3797500Y5811650D01*
G03Y5768350I12500J-21650D01*
G37*
G36*
G01Y5878350D02*
X3812510Y5869700D01*
X3836250Y5900000D01*
X3812510Y5930300D01*
X3797500Y5921650D01*
G03Y5878350I12500J-21650D01*
G37*
G36*
G01Y5508350D02*
X3812510Y5499700D01*
X3836250Y5530000D01*
X3812510Y5560300D01*
X3797500Y5551650D01*
G03Y5508350I12500J-21650D01*
G37*
G36*
G01Y5638350D02*
X3812510Y5629700D01*
X3836250Y5660000D01*
X3812510Y5690300D01*
X3797500Y5681650D01*
G03Y5638350I12500J-21650D01*
G37*
G36*
G01X4621650Y197500D02*
X4660610Y265010D01*
X4600000Y306250D01*
X4539390Y265010D01*
X4578350Y197500D01*
G03X4621650I21650J12500D01*
G37*
G36*
G01X4421650D02*
X4460610Y265010D01*
X4400000Y306250D01*
X4339390Y265010D01*
X4378350Y197500D01*
G03X4421650I21650J12500D01*
G37*
G36*
G01X4469030Y577240D02*
X4393050Y569640D01*
X4398670Y498670D01*
X4469640Y493050D01*
X4477240Y569030D01*
G03X4469030Y577240I-7460J750D01*
G37*
G36*
G01X4669030D02*
X4593050Y569640D01*
X4598670Y498670D01*
X4669640Y493050D01*
X4677240Y569030D01*
G03X4669030Y577240I-7460J750D01*
G37*
G36*
G01X4364040Y1033420D02*
X4414230Y1046880D01*
X4404420Y1104420D01*
X4346880Y1114230D01*
X4333420Y1064040D01*
G03X4364040Y1033420I24150J-6470D01*
G37*
G36*
G01X4548300Y1029590D02*
X4573860Y1071220D01*
X4527000Y1106250D01*
X4480140Y1071220D01*
X4505700Y1029590D01*
G03X4548300I21300J13080D01*
G37*
G36*
G01X4675650Y1027500D02*
X4701620Y1072510D01*
X4654000Y1106250D01*
X4606380Y1072510D01*
X4632350Y1027500D01*
G03X4675650I21650J12500D01*
G37*
G36*
G01X4520830Y1314800D02*
X4481760Y1258270D01*
X4527000Y1225120D01*
X4572240Y1258270D01*
X4533170Y1314800D01*
G03X4520830I-6170J-4260D01*
G37*
G36*
G01X4534500Y1472930D02*
X4534720Y1499430D01*
X4498670Y1501330D01*
X4500570Y1465280D01*
X4527070Y1465500D01*
G03X4534500Y1472930I-70J7500D01*
G37*
G36*
G01X4271650Y1597500D02*
X4310610Y1665010D01*
X4250000Y1706250D01*
X4189390Y1665010D01*
X4228350Y1597500D01*
G03X4271650I21650J12500D01*
G37*
G36*
G01X4319030Y1777240D02*
X4243050Y1769640D01*
X4248670Y1698670D01*
X4319640Y1693050D01*
X4327240Y1769030D01*
G03X4319030Y1777240I-7460J750D01*
G37*
G36*
G01X4656500Y1616250D02*
X4684640Y1665020D01*
X4650000Y1701880D01*
X4615360Y1665020D01*
X4643500Y1616250D01*
G03X4656500I6500J3750D01*
G37*
G36*
G01X4599190Y2487210D02*
X4567470Y2484900D01*
X4568670Y2448670D01*
X4604900Y2447470D01*
X4607210Y2479190D01*
G03X4599190Y2487210I-7480J540D01*
G37*
G36*
G01X4576490Y2391250D02*
X4600310Y2432500D01*
X4570000Y2451880D01*
X4539690Y2432500D01*
X4563510Y2391250D01*
G03X4576490I6490J3750D01*
G37*
G36*
G01X4477500Y3148350D02*
X4492510Y3139700D01*
X4516250Y3170000D01*
X4492510Y3200300D01*
X4477500Y3191650D01*
G03Y3148350I12500J-21650D01*
G37*
G36*
G01X4518750Y3576490D02*
X4477500Y3600310D01*
X4458120Y3570000D01*
X4477500Y3539690D01*
X4518750Y3563510D01*
G03Y3576490I-3750J6490D01*
G37*
G36*
G01X4607210Y3360810D02*
X4604900Y3392530D01*
X4568670Y3391330D01*
X4567470Y3355100D01*
X4599190Y3352790D01*
G03X4607210Y3360810I540J7480D01*
G37*
G36*
G01X4498840Y4083350D02*
X4522510Y4069700D01*
X4546160Y4098930D01*
X4531180Y4133360D01*
X4507520Y4129710D01*
G03X4498840Y4083350I3819J-24708D01*
G37*
G36*
G01X4671650Y3967500D02*
X4680300Y3982510D01*
X4650000Y4006250D01*
X4619700Y3982510D01*
X4628350Y3967500D01*
G03X4671650I21650J12500D01*
G37*
G36*
G01X4351250Y4293510D02*
X4392500Y4269690D01*
X4411880Y4300000D01*
X4392500Y4330310D01*
X4351250Y4306490D01*
G03Y4293510I3750J-6490D01*
G37*
G36*
G01X4507520Y4170290D02*
X4531180Y4166640D01*
X4546160Y4201070D01*
X4522510Y4230300D01*
X4498840Y4216650D01*
G03X4507520Y4170290I12499J-21652D01*
G37*
G36*
G01X4571650Y3967500D02*
X4580300Y3982510D01*
X4550000Y4006250D01*
X4519700Y3982510D01*
X4528350Y3967500D01*
G03X4571650I21650J12500D01*
G37*
G36*
G01X4517520Y3970290D02*
X4541180Y3966640D01*
X4556160Y4001070D01*
X4532510Y4030300D01*
X4508840Y4016650D01*
G03X4517520Y3970290I12499J-21652D01*
G37*
G36*
G01X4258750Y4826490D02*
X4217500Y4850310D01*
X4198120Y4820000D01*
X4217500Y4789690D01*
X4258750Y4813510D01*
G03Y4826490I-3750J6490D01*
G37*
G36*
G01Y4706490D02*
X4217500Y4730310D01*
X4198120Y4700000D01*
X4217500Y4669690D01*
X4258750Y4693510D01*
G03Y4706490I-3750J6490D01*
G37*
G36*
G01Y4586490D02*
X4217500Y4610310D01*
X4198120Y4580000D01*
X4217500Y4549690D01*
X4258750Y4573510D01*
G03Y4586490I-3750J6490D01*
G37*
G36*
G01X4156950Y4466130D02*
X4110940Y4453790D01*
X4118670Y4418670D01*
X4153790Y4410940D01*
X4166130Y4456950D01*
G03X4156950Y4466130I-7240J1940D01*
G37*
G36*
G01X4560990Y4406050D02*
X4530660Y4428230D01*
X4508120Y4400000D01*
X4530660Y4371770D01*
X4560990Y4393950D01*
G03Y4406050I-4430J6050D01*
G37*
G36*
G01X4463870Y4336950D02*
X4476210Y4290940D01*
X4511330Y4298670D01*
X4519060Y4333790D01*
X4473050Y4346130D01*
G03X4463870Y4336950I-1940J-7240D01*
G37*
G36*
G01X4821650Y197500D02*
X4860610Y265010D01*
X4800000Y306250D01*
X4739390Y265010D01*
X4778350Y197500D01*
G03X4821650I21650J12500D01*
G37*
G36*
G01X4869030Y577240D02*
X4793050Y569640D01*
X4798670Y498670D01*
X4869640Y493050D01*
X4877240Y569030D01*
G03X4869030Y577240I-7460J750D01*
G37*
G36*
G01X5168170Y1012200D02*
X5207240Y1068730D01*
X5162000Y1101880D01*
X5116760Y1068730D01*
X5155830Y1012200D01*
G03X5168170I6170J4260D01*
G37*
G36*
G01X5041170D02*
X5080240Y1068730D01*
X5035000Y1101880D01*
X4989760Y1068730D01*
X5028830Y1012200D01*
G03X5041170I6170J4260D01*
G37*
G36*
G01X4914170D02*
X4953240Y1068730D01*
X4908000Y1101880D01*
X4862760Y1068730D01*
X4901830Y1012200D01*
G03X4914170I6170J4260D01*
G37*
G36*
G01X5155950Y1311860D02*
X5117630Y1259470D01*
X5162000Y1225120D01*
X5206370Y1259470D01*
X5168050Y1311860D01*
G03X5155950I-6050J-4430D01*
G37*
G36*
G01X5029070Y1309180D02*
X4991520Y1260670D01*
X5035000Y1225120D01*
X5078480Y1260670D01*
X5040930Y1309180D01*
G03X5029070I-5930J-4590D01*
G37*
G36*
G01X4901830Y1314800D02*
X4862760Y1258270D01*
X4908000Y1225120D01*
X4953240Y1258270D01*
X4914170Y1314800D01*
G03X4901830I-6170J-4260D01*
G37*
G36*
G01X4683510Y2058750D02*
X4659690Y2017500D01*
X4690000Y1998120D01*
X4720310Y2017500D01*
X4696490Y2058750D01*
G03X4683510I-6490J-3750D01*
G37*
G36*
G01X4696490Y1941250D02*
X4720310Y1982500D01*
X4690000Y2001880D01*
X4659690Y1982500D01*
X4683510Y1941250D01*
G03X4696490I6490J3750D01*
G37*
G36*
G01X4840000Y2680000D02*
Y2930000D01*
X4860000Y2950000D01*
X5050000D01*
X5070000Y2930000D01*
Y2460000D01*
X4990000Y2380000D01*
Y2320000D01*
X5020000Y2290000D01*
X5080000D01*
X5100000Y2270000D01*
Y2140000D01*
X4940000Y1980000D01*
X4920000D01*
X4900000Y2000000D01*
Y2620000D01*
X4840000Y2680000D01*
G37*
G36*
G01X5196490Y2121250D02*
X5220310Y2162500D01*
X5190000Y2181880D01*
X5159690Y2162500D01*
X5183510Y2121250D01*
G03X5196490I6490J3750D01*
G37*
G36*
G01X5194200Y2003430D02*
X5145830Y1944330D01*
X5200000Y1898120D01*
X5254170Y1944330D01*
X5205800Y2003430D01*
G03X5194200I-5800J-4750D01*
G37*
G36*
G01X4994200D02*
X4945830Y1944330D01*
X5000000Y1898120D01*
X5054170Y1944330D01*
X5005800Y2003430D01*
G03X4994200I-5800J-4750D01*
G37*
G36*
G01X5183510Y2238750D02*
X5159690Y2197500D01*
X5190000Y2178120D01*
X5220310Y2197500D01*
X5196490Y2238750D01*
G03X5183510I-6490J-3750D01*
G37*
G36*
G01X4696490Y2391250D02*
X4720310Y2432500D01*
X4690000Y2451880D01*
X4659690Y2432500D01*
X4683510Y2391250D01*
G03X4696490I6490J3750D01*
G37*
G36*
G01X4652790Y2479190D02*
X4655100Y2447470D01*
X4691330Y2448670D01*
X4692530Y2484900D01*
X4660810Y2487210D01*
G03X4652790Y2479190I-540J-7480D01*
G37*
G36*
G01X5086950Y2396130D02*
X5040940Y2383790D01*
X5048670Y2348670D01*
X5083790Y2340940D01*
X5096130Y2386950D01*
G03X5086950Y2396130I-7240J1940D01*
G37*
G36*
G01X4928350Y2942500D02*
X4919700Y2927490D01*
X4950000Y2903750D01*
X4980300Y2927490D01*
X4971650Y2942500D01*
G03X4928350I-21650J-12500D01*
G37*
G36*
G01X4897370Y4673830D02*
X4930100Y4651220D01*
X4951880Y4680000D01*
X4930100Y4708780D01*
X4897370Y4686170D01*
G03Y4673830I4260J-6170D01*
G37*
G36*
G01X5003870Y4716950D02*
X5016210Y4670940D01*
X5051330Y4678670D01*
X5059060Y4713790D01*
X5013050Y4726130D01*
G03X5003870Y4716950I-1940J-7240D01*
G37*
G36*
G01X4903870Y4836950D02*
X4916210Y4790940D01*
X4951330Y4798670D01*
X4959060Y4833790D01*
X4913050Y4846130D01*
G03X4903870Y4836950I-1940J-7240D01*
G37*
G36*
G01X5003870D02*
X5016210Y4790940D01*
X5051330Y4798670D01*
X5059060Y4833790D01*
X5013050Y4846130D01*
G03X5003870Y4836950I-1940J-7240D01*
G37*
G36*
G01X5221650Y5297500D02*
X5230300Y5312510D01*
X5200000Y5336250D01*
X5169700Y5312510D01*
X5178350Y5297500D01*
G03X5221650I21650J12500D01*
G37*
G36*
G01X5046130Y5113050D02*
X5033790Y5159060D01*
X4998670Y5151330D01*
X4990940Y5116210D01*
X5036950Y5103870D01*
G03X5046130Y5113050I1940J7240D01*
G37*
G36*
G01X5142480Y5179710D02*
X5118820Y5183360D01*
X5103840Y5148930D01*
X5127490Y5119700D01*
X5151160Y5133350D01*
G03X5142480Y5179710I-12499J21652D01*
G37*
G36*
G01X5564300Y1029590D02*
X5589860Y1071220D01*
X5543000Y1106250D01*
X5496140Y1071220D01*
X5521700Y1029590D01*
G03X5564300I21300J13080D01*
G37*
G36*
G01X5437300D02*
X5462860Y1071220D01*
X5416000Y1106250D01*
X5369140Y1071220D01*
X5394700Y1029590D01*
G03X5437300I21300J13080D01*
G37*
G36*
G01X5310300D02*
X5335860Y1071220D01*
X5289000Y1106250D01*
X5242140Y1071220D01*
X5267700Y1029590D01*
G03X5310300I21300J13080D01*
G37*
G36*
G01X5740000Y680000D02*
X6300000D01*
Y540000D01*
X6240000D01*
X6190000Y590000D01*
X5740000D01*
X5720000Y610000D01*
Y660000D01*
X5740000Y680000D01*
G37*
G36*
G01X5536830Y1314800D02*
X5497760Y1258270D01*
X5543000Y1225120D01*
X5588240Y1258270D01*
X5549170Y1314800D01*
G03X5536830I-6170J-4260D01*
G37*
G36*
G01X5409830D02*
X5370760Y1258270D01*
X5416000Y1225120D01*
X5461240Y1258270D01*
X5422170Y1314800D01*
G03X5409830I-6170J-4260D01*
G37*
G36*
G01X5282830D02*
X5243760Y1258270D01*
X5289000Y1225120D01*
X5334240Y1258270D01*
X5295170Y1314800D01*
G03X5282830I-6170J-4260D01*
G37*
G36*
G01X5426170Y2112900D02*
X5458780Y2160100D01*
X5430290Y2181850D01*
X5400140Y2162430D01*
X5412750Y2115220D01*
G03X5426170Y2112900I7246J1940D01*
G37*
G36*
G01X5306170D02*
X5338780Y2160100D01*
X5310290Y2181850D01*
X5280140Y2162430D01*
X5292750Y2115220D01*
G03X5306170Y2112900I7246J1940D01*
G37*
G36*
G01X5394200Y2003430D02*
X5345830Y1944330D01*
X5400000Y1898120D01*
X5454170Y1944330D01*
X5405800Y2003430D01*
G03X5394200I-5800J-4750D01*
G37*
G36*
G01X5594200D02*
X5545830Y1944330D01*
X5600000Y1898120D01*
X5654170Y1944330D01*
X5605800Y2003430D01*
G03X5594200I-5800J-4750D01*
G37*
G36*
G01X5423830Y2232630D02*
X5401220Y2199900D01*
X5430000Y2178120D01*
X5458780Y2199900D01*
X5436170Y2232630D01*
G03X5423830I-6170J-4260D01*
G37*
G36*
G01X5303830D02*
X5281220Y2199900D01*
X5310000Y2178120D01*
X5338780Y2199900D01*
X5316170Y2232630D01*
G03X5303830I-6170J-4260D01*
G37*
G36*
G01X5453870Y3236950D02*
X5466210Y3190940D01*
X5501330Y3198670D01*
X5509060Y3233790D01*
X5463050Y3246130D01*
G03X5453870Y3236950I-1940J-7240D01*
G37*
G36*
G01X5316490Y3041250D02*
X5340310Y3082500D01*
X5310000Y3101880D01*
X5279690Y3082500D01*
X5303510Y3041250D01*
G03X5316490I6490J3750D01*
G37*
G36*
G01X5272790Y3129190D02*
X5275100Y3097470D01*
X5311330Y3098670D01*
X5312530Y3134900D01*
X5280810Y3137210D01*
G03X5272790Y3129190I-540J-7480D01*
G37*
G36*
G01X5406490Y3141250D02*
X5430310Y3182500D01*
X5400000Y3201880D01*
X5369690Y3182500D01*
X5393510Y3141250D01*
G03X5406490I6490J3750D01*
G37*
G36*
G01X5353870Y3236950D02*
X5366210Y3190940D01*
X5401330Y3198670D01*
X5409060Y3233790D01*
X5363050Y3246130D01*
G03X5353870Y3236950I-1940J-7240D01*
G37*
G36*
G01X5453870Y3536950D02*
X5466210Y3490940D01*
X5501330Y3498670D01*
X5509060Y3533790D01*
X5463050Y3546130D01*
G03X5453870Y3536950I-1940J-7240D01*
G37*
G36*
G01Y3436950D02*
X5466210Y3390940D01*
X5501330Y3398670D01*
X5509060Y3433790D01*
X5463050Y3446130D01*
G03X5453870Y3436950I-1940J-7240D01*
G37*
G36*
G01Y3336950D02*
X5466210Y3290940D01*
X5501330Y3298670D01*
X5509060Y3333790D01*
X5463050Y3346130D01*
G03X5453870Y3336950I-1940J-7240D01*
G37*
G36*
G01X5248350Y4102500D02*
X5239700Y4087490D01*
X5270000Y4063750D01*
X5300300Y4087490D01*
X5291650Y4102500D01*
G03X5248350I-21650J-12500D01*
G37*
G36*
G01X5378350D02*
X5369700Y4087490D01*
X5400000Y4063750D01*
X5430300Y4087490D01*
X5421650Y4102500D01*
G03X5378350I-21650J-12500D01*
G37*
G36*
G01X5508350D02*
X5499700Y4087490D01*
X5530000Y4063750D01*
X5560300Y4087490D01*
X5551650Y4102500D01*
G03X5508350I-21650J-12500D01*
G37*
G36*
G01X5588350Y4290220D02*
X5596210Y4260940D01*
X5633090Y4266910D01*
X5639060Y4303790D01*
X5609780Y4311650D01*
G03X5588350Y4290220I-4530J-16900D01*
G37*
G36*
G01X5453510Y3998750D02*
X5429690Y3957500D01*
X5460000Y3938120D01*
X5490310Y3957500D01*
X5466490Y3998750D01*
G03X5453510I-6490J-3750D01*
G37*
G36*
G01X5276490Y4491250D02*
X5300310Y4532500D01*
X5270000Y4551880D01*
X5239690Y4532500D01*
X5263510Y4491250D01*
G03X5276490I6490J3750D01*
G37*
G36*
G01X5406490D02*
X5430310Y4532500D01*
X5400000Y4551880D01*
X5369690Y4532500D01*
X5393510Y4491250D01*
G03X5406490I6490J3750D01*
G37*
G36*
G01X5536490D02*
X5560310Y4532500D01*
X5530000Y4551880D01*
X5499690Y4532500D01*
X5523510Y4491250D01*
G03X5536490I6490J3750D01*
G37*
G36*
G01X5328510Y4917410D02*
X5299690Y4867500D01*
X5329850Y4848130D01*
X5360830Y4866390D01*
X5342020Y4916310D01*
G03X5328510Y4917410I-7016J-2651D01*
G37*
G36*
G01X5458510D02*
X5429690Y4867500D01*
X5459850Y4848130D01*
X5490830Y4866390D01*
X5472020Y4916310D01*
G03X5458510Y4917410I-7016J-2651D01*
G37*
G36*
G01X5588510D02*
X5559690Y4867500D01*
X5589850Y4848130D01*
X5620830Y4866390D01*
X5602020Y4916310D01*
G03X5588510Y4917410I-7016J-2651D01*
G37*
G36*
G01X5621650Y5297500D02*
X5630300Y5312510D01*
X5600000Y5336250D01*
X5569700Y5312510D01*
X5578350Y5297500D01*
G03X5621650I21650J12500D01*
G37*
G36*
G01X5491650D02*
X5500300Y5312510D01*
X5470000Y5336250D01*
X5439700Y5312510D01*
X5448350Y5297500D01*
G03X5491650I21650J12500D01*
G37*
G36*
G01X5361650D02*
X5370300Y5312510D01*
X5340000Y5336250D01*
X5309700Y5312510D01*
X5318350Y5297500D01*
G03X5361650I21650J12500D01*
G37*
G36*
G01X6150000Y960000D02*
X6170000Y980000D01*
X6349980D01*
Y910020D01*
X6169980D01*
X6150000Y930000D01*
Y960000D01*
G37*
G36*
G01X7070000Y1460000D02*
Y1350000D01*
X7020000Y1300000D01*
Y1260000D01*
X7000000Y1240000D01*
X6810000D01*
X6790000Y1260000D01*
Y1300000D01*
X6760000Y1330000D01*
X6700000D01*
X6670000Y1300000D01*
Y1260000D01*
X6650000Y1240000D01*
X6260000D01*
X6240000Y1260000D01*
Y2100000D01*
X6220000Y2120000D01*
X6060000D01*
X6040000Y2140000D01*
Y2210000D01*
X6060000Y2230000D01*
X6110000D01*
X6120000Y2240000D01*
Y2320000D01*
X6170000D01*
X6200000Y2290000D01*
X6260000D01*
X6280000Y2270000D01*
Y2180000D01*
X6300000Y2160000D01*
X7100000D01*
X7120000Y2180000D01*
Y2220000D01*
X7140000Y2240000D01*
X7220000D01*
X7240000Y2220000D01*
Y2140000D01*
X7220000Y2120000D01*
X7180000D01*
X7160000Y2100000D01*
Y2050000D01*
X7140000Y2030000D01*
X7100000D01*
X7070000Y2000000D01*
Y1940000D01*
X7100000Y1910000D01*
X7140000D01*
X7160000Y1890000D01*
Y1510000D01*
X7140000Y1490000D01*
X7100000D01*
X7070000Y1460000D01*
G37*
G36*
G01X5828350Y1182500D02*
X5819700Y1167490D01*
X5850000Y1143750D01*
X5880300Y1167490D01*
X5871650Y1182500D01*
G03X5828350I-21650J-12500D01*
G37*
G36*
G01X5928350D02*
X5919700Y1167490D01*
X5950000Y1143750D01*
X5980300Y1167490D01*
X5971650Y1182500D01*
G03X5928350I-21650J-12500D01*
G37*
G36*
G01X5892480Y1629710D02*
X5868820Y1633360D01*
X5853840Y1598930D01*
X5877490Y1569700D01*
X5901160Y1583350D01*
G03X5892480Y1629710I-12499J21652D01*
G37*
G36*
G01X6228510Y2417410D02*
X6199690Y2367500D01*
X6229850Y2348130D01*
X6260830Y2366390D01*
X6242020Y2416310D01*
G03X6228510Y2417410I-7016J-2651D01*
G37*
G36*
G01X6184420Y3796460D02*
X6243060Y3742930D01*
X6298880Y3802000D01*
X6243060Y3861070D01*
X6184420Y3807540D01*
G03Y3796460I5060J-5540D01*
G37*
G36*
G01Y4050460D02*
X6243060Y3996930D01*
X6298880Y4056000D01*
X6243060Y4115070D01*
X6184420Y4061540D01*
G03Y4050460I5060J-5540D01*
G37*
G36*
G01Y4304460D02*
X6243060Y4250930D01*
X6298880Y4310000D01*
X6243060Y4369070D01*
X6184420Y4315540D01*
G03Y4304460I5060J-5540D01*
G37*
G36*
G01X5878750Y4006490D02*
X5837500Y4030310D01*
X5818120Y4000000D01*
X5837500Y3969690D01*
X5878750Y3993510D01*
G03Y4006490I-3750J6490D01*
G37*
G36*
G01Y4306490D02*
X5837500Y4330310D01*
X5818120Y4300000D01*
X5837500Y4269690D01*
X5878750Y4293510D01*
G03Y4306490I-3750J6490D01*
G37*
G36*
G01Y3906490D02*
X5837500Y3930310D01*
X5818120Y3900000D01*
X5837500Y3869690D01*
X5878750Y3893510D01*
G03Y3906490I-3750J6490D01*
G37*
G36*
G01X6047500Y4678350D02*
X6062510Y4669700D01*
X6086250Y4700000D01*
X6062510Y4730300D01*
X6047500Y4721650D01*
G03Y4678350I12500J-21650D01*
G37*
G36*
G01X6184420Y4558460D02*
X6243060Y4504930D01*
X6298880Y4564000D01*
X6243060Y4623070D01*
X6184420Y4569540D01*
G03Y4558460I5060J-5540D01*
G37*
G36*
G01Y4812460D02*
X6243060Y4758930D01*
X6298880Y4818000D01*
X6243060Y4877070D01*
X6184420Y4823540D01*
G03Y4812460I5060J-5540D01*
G37*
G36*
G01X5878750Y4406490D02*
X5837500Y4430310D01*
X5818120Y4400000D01*
X5837500Y4369690D01*
X5878750Y4393510D01*
G03Y4406490I-3750J6490D01*
G37*
G36*
G01Y4506490D02*
X5837500Y4530310D01*
X5818120Y4500000D01*
X5837500Y4469690D01*
X5878750Y4493510D01*
G03Y4506490I-3750J6490D01*
G37*
G36*
G01Y4606490D02*
X5837500Y4630310D01*
X5818120Y4600000D01*
X5837500Y4569690D01*
X5878750Y4593510D01*
G03Y4606490I-3750J6490D01*
G37*
G36*
G01X6184420Y5066460D02*
X6243060Y5012930D01*
X6298880Y5072000D01*
X6243060Y5131070D01*
X6184420Y5077540D01*
G03Y5066460I5060J-5540D01*
G37*
G36*
G01X5878750Y5006490D02*
X5837500Y5030310D01*
X5818120Y5000000D01*
X5837500Y4969690D01*
X5878750Y4993510D01*
G03Y5006490I-3750J6490D01*
G37*
G36*
G01Y4906490D02*
X5837500Y4930310D01*
X5818120Y4900000D01*
X5837500Y4869690D01*
X5878750Y4893510D01*
G03Y4906490I-3750J6490D01*
G37*
G36*
G01X6735020Y50000D02*
Y50020D01*
X6590020D01*
Y129980D01*
X6735020D01*
Y210020D01*
X6735000D01*
Y540000D01*
X6580000D01*
Y700000D01*
X6530000Y750000D01*
Y960000D01*
X6550000Y980000D01*
X6630000D01*
Y840000D01*
X6760000Y710000D01*
X6930000D01*
X6960000Y740000D01*
Y1000000D01*
X6980000Y1020000D01*
X7100000D01*
X7120000Y1040000D01*
Y1220000D01*
X7170000Y1270000D01*
X7440000D01*
X7470000Y1300000D01*
Y1450000D01*
X7510000Y1490000D01*
Y1730000D01*
X7490000Y1750000D01*
X7420000D01*
X7400000Y1770000D01*
Y1830000D01*
X7420000Y1850000D01*
X7500000D01*
X7509980Y1859980D01*
X7510020D01*
Y1860020D01*
X7520000Y1870000D01*
Y2190000D01*
X7600000Y2270000D01*
Y2330000D01*
X7550000Y2380000D01*
Y2550000D01*
X7500000Y2600000D01*
X7480040D01*
Y2614930D01*
X7485490Y2617270D01*
G03X7391400Y2631660I-35493J82729D01*
G02X7379680Y2600000I-11718J-13662D01*
G01X7220000D01*
X7200000Y2620000D01*
Y3120000D01*
X7220000Y3140000D01*
X7380000D01*
X7580000Y3340000D01*
Y3780000D01*
X7720000D01*
Y150000D01*
X7670020Y100020D01*
X6824980D01*
Y50000D01*
X6735020D01*
G37*
G36*
G01X6670290Y892480D02*
X6666640Y868820D01*
X6701070Y853840D01*
X6730300Y877490D01*
X6716650Y901160D01*
G03X6670290Y892480I-21652J-12499D01*
G37*
G36*
G01X6778350Y802500D02*
X6769700Y787490D01*
X6800000Y763750D01*
X6830300Y787490D01*
X6821650Y802500D01*
G03X6778350I-21650J-12500D01*
G37*
G36*
G01X6731490Y1202590D02*
X6760310Y1252500D01*
X6730150Y1271870D01*
X6699170Y1253610D01*
X6717980Y1203690D01*
G03X6731490Y1202590I7016J2651D01*
G37*
G36*
G01X6766650Y2498840D02*
X6780300Y2522510D01*
X6751070Y2546160D01*
X6716640Y2531180D01*
X6720290Y2507520D01*
G03X6766650Y2498840I24708J3819D01*
G37*
G36*
G01X6586830Y2352300D02*
X6601310Y2394710D01*
X6569710Y2413110D01*
X6539690Y2392500D01*
X6564180Y2350090D01*
G03X6586830Y2352300I10823J6252D01*
G37*
G36*
G01X6475370Y3717440D02*
X6554730Y3722090D01*
X6552320Y3803330D01*
X6471090Y3805630D01*
X6467440Y3725270D01*
G03X6475370Y3717440I7492J-343D01*
G37*
G36*
G01X6475310Y3972480D02*
X6554630Y3976090D01*
X6552330Y4057330D01*
X6471090Y4059630D01*
X6467480Y3980310D01*
G03X6475310Y3972480I7490J-340D01*
G37*
G36*
G01X6467480Y4385690D02*
X6471090Y4306370D01*
X6552330Y4308670D01*
X6554630Y4389910D01*
X6475310Y4393520D01*
G03X6467480Y4385690I-340J-7490D01*
G37*
G36*
G01Y4639690D02*
X6471090Y4560370D01*
X6552330Y4562670D01*
X6554630Y4643910D01*
X6475310Y4647520D01*
G03X6467480Y4639690I-340J-7490D01*
G37*
G36*
G01X6372690Y5409520D02*
X6293370Y5405910D01*
X6295670Y5324670D01*
X6376910Y5322370D01*
X6380520Y5401690D01*
G03X6372690Y5409520I-7490J340D01*
G37*
G36*
G01X6659190Y5357260D02*
X6589110Y5375330D01*
X6549170Y5325590D01*
X6590980Y5303060D01*
X6661070Y5343500D01*
G03X6659190Y5357260I-3749J6496D01*
G37*
G36*
G01X6475310Y4988480D02*
X6554630Y4992090D01*
X6552330Y5073330D01*
X6471090Y5075630D01*
X6467480Y4996310D01*
G03X6475310Y4988480I7490J-340D01*
G37*
G36*
G01X6878350Y802500D02*
X6869700Y787490D01*
X6900000Y763750D01*
X6930300Y787490D01*
X6921650Y802500D01*
G03X6878350I-21650J-12500D01*
G37*
G36*
G01X7081490Y1202590D02*
X7110310Y1252500D01*
X7080150Y1271870D01*
X7049170Y1253610D01*
X7067980Y1203690D01*
G03X7081490Y1202590I7016J2651D01*
G37*
G36*
G01X7343690Y1317980D02*
X7393610Y1299170D01*
X7411870Y1330150D01*
X7392500Y1360310D01*
X7342590Y1331490D01*
G03X7343690Y1317980I3751J-6494D01*
G37*
G36*
G01X7197410Y1431490D02*
X7147500Y1460310D01*
X7128130Y1430150D01*
X7146390Y1399170D01*
X7196310Y1417980D01*
G03X7197410Y1431490I-2651J7016D01*
G37*
G36*
G01X7196310Y1982020D02*
X7146390Y2000830D01*
X7128130Y1969850D01*
X7147500Y1939690D01*
X7197410Y1968510D01*
G03X7196310Y1982020I-3751J6494D01*
G37*
G36*
G01X7258750Y2506490D02*
X7217500Y2530310D01*
X7198120Y2500000D01*
X7217500Y2469690D01*
X7258750Y2493510D01*
G03Y2506490I-3750J6490D01*
G37*
G36*
G01X7153870Y2536950D02*
X7166210Y2490940D01*
X7201330Y2498670D01*
X7209060Y2533790D01*
X7163050Y2546130D01*
G03X7153870Y2536950I-1940J-7240D01*
G37*
G36*
G01X7168510Y2367410D02*
X7139690Y2317500D01*
X7169850Y2298130D01*
X7200830Y2316390D01*
X7182020Y2366310D01*
G03X7168510Y2367410I-7016J-2651D01*
G37*
G36*
G01X6936830Y2352300D02*
X6951310Y2394710D01*
X6919710Y2413110D01*
X6889690Y2392500D01*
X6914180Y2350090D01*
G03X6936830Y2352300I10823J6252D01*
G37*
G36*
G01X7030290Y2892480D02*
X7026640Y2868820D01*
X7061070Y2853840D01*
X7090300Y2877490D01*
X7076650Y2901160D01*
G03X7030290Y2892480I-21652J-12499D01*
G37*
G36*
G01X7189880Y3677800D02*
X7177540Y3723810D01*
X7142420Y3716080D01*
X7134690Y3680960D01*
X7180700Y3668620D01*
G03X7189880Y3677800I1940J7240D01*
G37*
G36*
G01X6908750Y3646490D02*
X6867500Y3670310D01*
X6848120Y3640000D01*
X6867500Y3609690D01*
X6908750Y3633510D01*
G03Y3646490I-3750J6490D01*
G37*
G36*
G01X7428350Y1552500D02*
X7419700Y1537490D01*
X7450000Y1513750D01*
X7480300Y1537490D01*
X7471650Y1552500D01*
G03X7428350I-21650J-12500D01*
G37*
G36*
G01X7471650Y1747500D02*
X7480300Y1762510D01*
X7450000Y1786250D01*
X7419700Y1762510D01*
X7428350Y1747500D01*
G03X7471650I21650J12500D01*
G37*
G36*
G01X7346570Y2494200D02*
X7405670Y2445830D01*
X7451880Y2500000D01*
X7405670Y2554170D01*
X7346570Y2505800D01*
G03Y2494200I4750J-5800D01*
G37*
G36*
G01X7507520Y2270290D02*
X7531180Y2266640D01*
X7546160Y2301070D01*
X7522510Y2330300D01*
X7498840Y2316650D01*
G03X7507520Y2270290I12499J-21652D01*
G37*
G36*
G01X7397500Y5328350D02*
X7412510Y5319700D01*
X7436250Y5350000D01*
X7412510Y5380300D01*
X7397500Y5371650D01*
G03Y5328350I12500J-21650D01*
G37*
G36*
G01Y5478350D02*
X7412510Y5469700D01*
X7436250Y5500000D01*
X7412510Y5530300D01*
X7397500Y5521650D01*
G03Y5478350I12500J-21650D01*
G37*
%LPC*%
G75*
G36*
G01X2360000Y670000D02*
X2310000Y620000D01*
Y300000D01*
X2250000Y240000D01*
X1650000D01*
X1590000Y300000D01*
Y400000D01*
X1640000Y450000D01*
Y910000D01*
X1690000Y960000D01*
Y1050000D01*
X1750000Y1110000D01*
X2350000D01*
X2410000Y1050000D01*
Y950000D01*
X2360000Y900000D01*
Y670000D01*
G37*
G36*
G01X3280000Y480000D02*
X3360000Y400000D01*
Y300000D01*
X3300000Y240000D01*
X3200000D01*
X3140000Y300000D01*
Y400000D01*
X3220000Y480000D01*
Y640000D01*
X3190000Y670000D01*
Y910000D01*
X3220000Y940000D01*
X3280000D01*
X3310000Y910000D01*
Y780000D01*
X3330000Y760000D01*
X3370000D01*
X3400000Y730000D01*
Y670000D01*
X3370000Y640000D01*
X3300000D01*
X3280000Y620000D01*
Y480000D01*
G37*
G36*
G01X3530000D02*
X3610000Y400000D01*
Y300000D01*
X3550000Y240000D01*
X3450000D01*
X3390000Y300000D01*
Y400000D01*
X3470000Y480000D01*
Y640000D01*
X3440000Y670000D01*
Y910000D01*
X3470000Y940000D01*
X3530000D01*
X3560000Y910000D01*
Y870000D01*
X3580000Y850000D01*
X3640000D01*
X3660000Y830000D01*
Y670000D01*
X3640000Y650000D01*
X3550000D01*
X3530000Y630000D01*
Y480000D01*
G37*
G36*
G01X5600000Y700000D02*
X5630000Y670000D01*
Y330000D01*
X5610000Y310000D01*
X5190000D01*
X5170000Y330000D01*
Y770000D01*
X5200000Y800000D01*
X5390000D01*
X5490000Y700000D01*
X5600000D01*
G37*
G36*
G01X3120000Y1070000D02*
X3100000Y1050000D01*
X2890000D01*
X2860000Y1020000D01*
X2540000D01*
X2510000Y1050000D01*
Y1110000D01*
X2540000Y1140000D01*
X2580000D01*
X2600000Y1160000D01*
Y1200000D01*
X2580000Y1220000D01*
X2540000D01*
X2510000Y1250000D01*
Y1310000D01*
X2540000Y1340000D01*
X2580000D01*
X2600000Y1360000D01*
Y1400000D01*
X2580000Y1420000D01*
X2540000D01*
X2510000Y1450000D01*
Y1510000D01*
X2540000Y1540000D01*
X2580000D01*
X2600000Y1560000D01*
Y1620000D01*
X2620000Y1640000D01*
X2860000D01*
X2890000Y1610000D01*
Y1570000D01*
X2910000Y1550000D01*
X3100000D01*
X3120000Y1530000D01*
Y1070000D01*
G37*
G36*
G01X4010000Y6230000D02*
X4310000D01*
X4690000Y5850000D01*
X5080000D01*
X5100000Y5830000D01*
Y5680000D01*
X5120000Y5660000D01*
X5410000D01*
X5440000Y5630000D01*
Y5470000D01*
X5410000Y5440000D01*
X5120000D01*
X5100000Y5420000D01*
Y5370000D01*
X5080000Y5350000D01*
X4820000D01*
X4790000Y5380000D01*
Y5470000D01*
X4760000Y5500000D01*
Y5700000D01*
X4290000Y6170000D01*
X3990000D01*
X3920000Y6240000D01*
X3800000D01*
X3740000Y6300000D01*
Y6400000D01*
X3800000Y6460000D01*
X3910000D01*
X3970000Y6400000D01*
Y6270000D01*
X4010000Y6230000D01*
G37*
G36*
G01X4580000Y5790000D02*
X4610000Y5760000D01*
Y5440000D01*
X4580000Y5410000D01*
X4540000D01*
X4520000Y5390000D01*
Y5370000D01*
X4500000Y5350000D01*
X4280000D01*
X4260000Y5330000D01*
Y5270000D01*
X4230000Y5240000D01*
X4170000D01*
X4140000Y5270000D01*
Y5320000D01*
X4120000Y5340000D01*
X4070000D01*
X4050000Y5360000D01*
Y5450000D01*
X4030000Y5470000D01*
X3990000D01*
X3960000Y5500000D01*
Y5820000D01*
X3990000Y5850000D01*
X4500000D01*
X4520000Y5830000D01*
Y5810000D01*
X4540000Y5790000D01*
X4580000D01*
G37*
G36*
G01X7210000Y6040000D02*
X7160000Y5990000D01*
Y5900000D01*
X7100000Y5840000D01*
X6400000D01*
X6340000Y5900000D01*
Y6070000D01*
X6290000Y6120000D01*
Y6280000D01*
X6310000Y6300000D01*
X6370000D01*
X6390000Y6320000D01*
Y6650000D01*
X6450000Y6710000D01*
X7050000D01*
X7110000Y6650000D01*
Y6380000D01*
X7210000Y6280000D01*
Y6040000D01*
G37*
G36*
G01X7460000Y1170000D02*
X7470000Y1160000D01*
Y940000D01*
X7460000Y930000D01*
X7240000D01*
X7230000Y940000D01*
Y1160000D01*
X7240000Y1170000D01*
X7460000D01*
G37*
G54D41*
X5700000Y3400000D03*
Y3100000D03*
X3750000Y350000D03*
X3000000D03*
X1450000D03*
X1200000D03*
X604000Y380000D03*
X350000D03*
Y5750000D03*
X709000Y3040000D03*
X963000D03*
X1700000Y3100000D03*
X3598000Y6604000D03*
X4106000Y6350000D03*
Y6604000D03*
X3852000D03*
X5054000Y6600000D03*
X4800000D03*
X5816000D03*
X5308000D03*
X5562000D03*
X6070000D03*
X7400000Y4600000D03*
X7350000Y5950000D03*
X7250000Y6600000D03*
X7500000D03*
Y350000D03*
G54D42*
X2020000Y2050000D03*
%LPD*%
G75*
G36*
G01X1694460Y462580D02*
X1640930Y403940D01*
X1700000Y348120D01*
X1759070Y403940D01*
X1705540Y462580D01*
G03X1694460I-5540J-5060D01*
G37*
G36*
G01X1944460D02*
X1890930Y403940D01*
X1950000Y348120D01*
X2009070Y403940D01*
X1955540Y462580D01*
G03X1944460I-5540J-5060D01*
G37*
G36*
G01X1721650Y847500D02*
X1730300Y862510D01*
X1700000Y886250D01*
X1669700Y862510D01*
X1678350Y847500D01*
G03X1721650I21650J12500D01*
G37*
G36*
G01X1971650D02*
X1980300Y862510D01*
X1950000Y886250D01*
X1919700Y862510D01*
X1928350Y847500D01*
G03X1971650I21650J12500D01*
G37*
G36*
G01X1805540Y887420D02*
X1859070Y946060D01*
X1800000Y1001880D01*
X1740930Y946060D01*
X1794460Y887420D01*
G03X1805540I5540J5060D01*
G37*
G36*
G01X2194460Y462580D02*
X2140930Y403940D01*
X2200000Y348120D01*
X2259070Y403940D01*
X2205540Y462580D01*
G03X2194460I-5540J-5060D01*
G37*
G36*
G01X2221650Y847500D02*
X2230300Y862510D01*
X2200000Y886250D01*
X2169700Y862510D01*
X2178350Y847500D01*
G03X2221650I21650J12500D01*
G37*
G36*
G01X2055540Y887420D02*
X2109070Y946060D01*
X2050000Y1001880D01*
X1990930Y946060D01*
X2044460Y887420D01*
G03X2055540I5540J5060D01*
G37*
G36*
G01X2305540D02*
X2359070Y946060D01*
X2300000Y1001880D01*
X2240930Y946060D01*
X2294460Y887420D01*
G03X2305540I5540J5060D01*
G37*
G36*
G01X2771250Y1073510D02*
X2812500Y1049690D01*
X2831880Y1080000D01*
X2812500Y1110310D01*
X2771250Y1086490D01*
G03Y1073510I3750J-6490D01*
G37*
G36*
G01X2602500Y1101650D02*
X2587490Y1110300D01*
X2563750Y1080000D01*
X2587490Y1049700D01*
X2602500Y1058350D01*
G03Y1101650I-12500J21650D01*
G37*
G36*
G01Y1601650D02*
X2587490Y1610300D01*
X2563750Y1580000D01*
X2587490Y1549700D01*
X2602500Y1558350D01*
G03Y1601650I-12500J21650D01*
G37*
G36*
G01Y1401650D02*
X2587490Y1410300D01*
X2563750Y1380000D01*
X2587490Y1349700D01*
X2602500Y1358350D01*
G03Y1401650I-12500J21650D01*
G37*
G36*
G01Y1201650D02*
X2587490Y1210300D01*
X2563750Y1180000D01*
X2587490Y1149700D01*
X2602500Y1158350D01*
G03Y1201650I-12500J21650D01*
G37*
G36*
G01X2876130Y1543050D02*
X2863790Y1589060D01*
X2828670Y1581330D01*
X2820940Y1546210D01*
X2866950Y1533870D01*
G03X2876130Y1543050I1940J7240D01*
G37*
G36*
G01X2771250Y1573510D02*
X2812500Y1549690D01*
X2831880Y1580000D01*
X2812500Y1610310D01*
X2771250Y1586490D01*
G03Y1573510I3750J-6490D01*
G37*
G36*
G01X2894300Y1370670D02*
X2852890Y1406470D01*
X2828180Y1380460D01*
X2849030Y1351780D01*
X2890430Y1357570D01*
G03X2894300Y1370670I-1039J7429D01*
G37*
G36*
G01X2771250Y1373510D02*
X2812500Y1349690D01*
X2831880Y1380000D01*
X2812500Y1410310D01*
X2771250Y1386490D01*
G03Y1373510I3750J-6490D01*
G37*
G36*
G01X2866950Y1226130D02*
X2820940Y1213790D01*
X2828670Y1178670D01*
X2863790Y1170940D01*
X2876130Y1216950D01*
G03X2866950Y1226130I-7240J1940D01*
G37*
G36*
G01X2771250Y1173510D02*
X2812500Y1149690D01*
X2831880Y1180000D01*
X2812500Y1210310D01*
X2771250Y1186490D01*
G03Y1173510I3750J-6490D01*
G37*
G36*
G01X2866950Y1126130D02*
X2820940Y1113790D01*
X2828670Y1078670D01*
X2863790Y1070940D01*
X2876130Y1116950D01*
G03X2866950Y1126130I-7240J1940D01*
G37*
G36*
G01X2888210Y1300000D02*
X2850000D01*
X2828230Y1279390D01*
X2854950Y1255470D01*
X2893560Y1294740D01*
X2888210Y1300000D01*
G37*
G36*
G01X2771250Y1273510D02*
X2812500Y1249690D01*
X2831880Y1280000D01*
X2812500Y1310310D01*
X2771250Y1286490D01*
G03Y1273510I3750J-6490D01*
G37*
G36*
G01X2876130Y1443050D02*
X2863790Y1489060D01*
X2828670Y1481330D01*
X2820940Y1446210D01*
X2866950Y1433870D01*
G03X2876130Y1443050I1940J7240D01*
G37*
G36*
G01X2771250Y1473510D02*
X2812500Y1449690D01*
X2831880Y1480000D01*
X2812500Y1510310D01*
X2771250Y1486490D01*
G03Y1473510I3750J-6490D01*
G37*
G36*
G01X2602500Y1301650D02*
X2587490Y1310300D01*
X2563750Y1280000D01*
X2587490Y1249700D01*
X2602500Y1258350D01*
G03Y1301650I-12500J21650D01*
G37*
G36*
G01Y1501650D02*
X2587490Y1510300D01*
X2563750Y1480000D01*
X2587490Y1449700D01*
X2602500Y1458350D01*
G03Y1501650I-12500J21650D01*
G37*
G36*
G01X2875600Y3157230D02*
X2909060Y3166200D01*
X2902650Y3202650D01*
X2866200Y3209060D01*
X2857230Y3175600D01*
G03X2875600Y3157230I14490J-3880D01*
G37*
G36*
G01X3244460Y462580D02*
X3190930Y403940D01*
X3250000Y348120D01*
X3309070Y403940D01*
X3255540Y462580D01*
G03X3244460I-5540J-5060D01*
G37*
G36*
G01X3494460D02*
X3440930Y403940D01*
X3500000Y348120D01*
X3559070Y403940D01*
X3505540Y462580D01*
G03X3494460I-5540J-5060D01*
G37*
G36*
G01X3271650Y847500D02*
X3280300Y862510D01*
X3250000Y886250D01*
X3219700Y862510D01*
X3228350Y847500D01*
G03X3271650I21650J12500D01*
G37*
G36*
G01X3272590Y698510D02*
X3322500Y669690D01*
X3341870Y699850D01*
X3323610Y730830D01*
X3273690Y712020D01*
G03X3272590Y698510I2651J-7016D01*
G37*
G36*
G01X3506490Y821250D02*
X3530310Y862500D01*
X3500000Y881880D01*
X3469690Y862500D01*
X3493510Y821250D01*
G03X3506490I6490J3750D01*
G37*
G36*
G01X3578350Y652500D02*
X3569700Y637490D01*
X3600000Y613750D01*
X3630300Y637490D01*
X3621650Y652500D01*
G03X3578350I-21650J-12500D01*
G37*
G36*
G01X4052500Y5421650D02*
X4037490Y5430300D01*
X4013750Y5400000D01*
X4037490Y5369700D01*
X4052500Y5378350D01*
G03Y5421650I-12500J21650D01*
G37*
G36*
G01Y5681650D02*
X4037490Y5690300D01*
X4013750Y5660000D01*
X4037490Y5629700D01*
X4052500Y5638350D01*
G03Y5681650I-12500J21650D01*
G37*
G36*
G01Y5551650D02*
X4037490Y5560300D01*
X4013750Y5530000D01*
X4037490Y5499700D01*
X4052500Y5508350D01*
G03Y5551650I-12500J21650D01*
G37*
G36*
G01Y5811650D02*
X4037490Y5820300D01*
X4013750Y5790000D01*
X4037490Y5759700D01*
X4052500Y5768350D01*
G03Y5811650I-12500J21650D01*
G37*
G36*
G01X3935520Y6274310D02*
X3931910Y6353630D01*
X3850670Y6351330D01*
X3848370Y6270090D01*
X3927690Y6266480D01*
G03X3935520Y6274310I340J7490D01*
G37*
G36*
G01X4170290Y5332480D02*
X4166640Y5308820D01*
X4201070Y5293840D01*
X4230300Y5317490D01*
X4216650Y5341160D01*
G03X4170290Y5332480I-21652J-12499D01*
G37*
G36*
G01X4491250Y5463510D02*
X4532500Y5439690D01*
X4551880Y5470000D01*
X4532500Y5500310D01*
X4491250Y5476490D01*
G03Y5463510I3750J-6490D01*
G37*
G36*
G01Y5593510D02*
X4532500Y5569690D01*
X4551880Y5600000D01*
X4532500Y5630310D01*
X4491250Y5606490D01*
G03Y5593510I3750J-6490D01*
G37*
G36*
G01Y5723510D02*
X4532500Y5699690D01*
X4551880Y5730000D01*
X4532500Y5760310D01*
X4491250Y5736490D01*
G03Y5723510I3750J-6490D01*
G37*
G36*
G01X4221250Y5783510D02*
X4262500Y5759690D01*
X4281880Y5790000D01*
X4262500Y5820310D01*
X4221250Y5796490D01*
G03Y5783510I3750J-6490D01*
G37*
G36*
G01X4346310Y5802020D02*
X4296390Y5820830D01*
X4278130Y5789850D01*
X4297500Y5759690D01*
X4347410Y5788510D01*
G03X4346310Y5802020I-3751J6494D01*
G37*
G36*
G01X4221250Y5653510D02*
X4262500Y5629690D01*
X4281880Y5660000D01*
X4262500Y5690310D01*
X4221250Y5666490D01*
G03Y5653510I3750J-6490D01*
G37*
G36*
G01X4346310Y5672020D02*
X4296390Y5690830D01*
X4278130Y5659850D01*
X4297500Y5629690D01*
X4347410Y5658510D01*
G03X4346310Y5672020I-3751J6494D01*
G37*
G36*
G01X4221250Y5523510D02*
X4262500Y5499690D01*
X4281880Y5530000D01*
X4262500Y5560310D01*
X4221250Y5536490D01*
G03Y5523510I3750J-6490D01*
G37*
G36*
G01X4346310Y5542020D02*
X4296390Y5560830D01*
X4278130Y5529850D01*
X4297500Y5499690D01*
X4347410Y5528510D01*
G03X4346310Y5542020I-3751J6494D01*
G37*
G36*
G01X5061250Y5593510D02*
X5102500Y5569690D01*
X5121880Y5600000D01*
X5102500Y5630310D01*
X5061250Y5606490D01*
G03Y5593510I3750J-6490D01*
G37*
G36*
G01X5178750Y5606490D02*
X5137500Y5630310D01*
X5118120Y5600000D01*
X5137500Y5569690D01*
X5178750Y5593510D01*
G03Y5606490I-3750J6490D01*
G37*
G36*
G01X4917410Y5541490D02*
X4867500Y5570310D01*
X4848130Y5540150D01*
X4866390Y5509170D01*
X4916310Y5527980D01*
G03X4917410Y5541490I-2651J7016D01*
G37*
G36*
G01Y5411490D02*
X4867500Y5440310D01*
X4848130Y5410150D01*
X4866390Y5379170D01*
X4916310Y5397980D01*
G03X4917410Y5411490I-2651J7016D01*
G37*
G36*
G01X5200000Y350000D02*
Y560000D01*
X5219980Y579980D01*
X5290020D01*
X5310000Y560000D01*
Y350000D01*
X5200000D01*
G37*
G36*
G01X5600000D02*
X5490000D01*
Y650000D01*
X5510000Y670000D01*
X5580000D01*
X5600000Y650000D01*
Y350000D01*
G37*
G36*
G01X5282520Y620000D02*
Y620020D01*
X5219980D01*
X5200000Y640000D01*
Y750000D01*
X5220000Y770000D01*
X5370000D01*
X5390000Y750000D01*
Y640000D01*
X5370000Y620000D01*
X5282520D01*
G37*
G36*
G01X5347500Y5478350D02*
X5362510Y5469700D01*
X5386250Y5500000D01*
X5362510Y5530300D01*
X5347500Y5521650D01*
G03Y5478350I12500J-21650D01*
G37*
G36*
G01Y5578350D02*
X5362510Y5569700D01*
X5386250Y5600000D01*
X5362510Y5630300D01*
X5347500Y5621650D01*
G03Y5578350I12500J-21650D01*
G37*
G36*
G01X6528350Y6102500D02*
X6519700Y6087490D01*
X6550000Y6063750D01*
X6580300Y6087490D01*
X6571650Y6102500D01*
G03X6528350I-21650J-12500D01*
G37*
G36*
G01X6371650Y6297500D02*
X6380300Y6312510D01*
X6350000Y6336250D01*
X6319700Y6312510D01*
X6328350Y6297500D01*
G03X6371650I21650J12500D01*
G37*
G36*
G01X6671650D02*
X6680300Y6312510D01*
X6650000Y6336250D01*
X6619700Y6312510D01*
X6628350Y6297500D01*
G03X6671650I21650J12500D01*
G37*
G36*
G01X6744460Y6062580D02*
X6690930Y6003940D01*
X6750000Y5948120D01*
X6809070Y6003940D01*
X6755540Y6062580D01*
G03X6744460I-5540J-5060D01*
G37*
G36*
G01X6444460D02*
X6390930Y6003940D01*
X6450000Y5948120D01*
X6509070Y6003940D01*
X6455540Y6062580D01*
G03X6444460I-5540J-5060D01*
G37*
G36*
G01X6755540Y6487420D02*
X6809070Y6546060D01*
X6750000Y6601880D01*
X6690930Y6546060D01*
X6744460Y6487420D01*
G03X6755540I5540J5060D01*
G37*
G36*
G01X6456500Y6503800D02*
X6488940Y6560020D01*
X6500890Y6601650D01*
X6438850Y6563270D01*
X6442520Y6507060D01*
G03X6456500Y6503800I7484J489D01*
G37*
G36*
G01X7128350Y6102500D02*
X7119700Y6087490D01*
X7150000Y6063750D01*
X7180300Y6087490D01*
X7171650Y6102500D01*
G03X7128350I-21650J-12500D01*
G37*
G36*
G01X6828350D02*
X6819700Y6087490D01*
X6850000Y6063750D01*
X6880300Y6087490D01*
X6871650Y6102500D01*
G03X6828350I-21650J-12500D01*
G37*
G36*
G01X6971650Y6297500D02*
X6980300Y6312510D01*
X6950000Y6336250D01*
X6919700Y6312510D01*
X6928350Y6297500D01*
G03X6971650I21650J12500D01*
G37*
G36*
G01X7044460Y6062580D02*
X6990930Y6003940D01*
X7050000Y5948120D01*
X7109070Y6003940D01*
X7055540Y6062580D01*
G03X7044460I-5540J-5060D01*
G37*
G36*
G01X7057480Y6507060D02*
X7061150Y6563270D01*
X6999110Y6601650D01*
X7011060Y6560020D01*
X7043500Y6503800D01*
G03X7057480Y6507060I6496J3749D01*
G37*
G54D10*
X350000Y380000D03*
Y1142000D03*
Y888000D03*
Y634000D03*
Y1650000D03*
Y1396000D03*
Y2038000D03*
Y2292000D03*
Y2546000D03*
Y2800000D03*
Y5350000D03*
Y5750000D03*
X604000Y380000D03*
Y1142000D03*
Y888000D03*
Y634000D03*
Y1650000D03*
Y1396000D03*
X709000Y3040000D03*
Y3294000D03*
Y3548000D03*
Y3802000D03*
Y4056000D03*
Y4310000D03*
Y4564000D03*
Y4818000D03*
Y5072000D03*
Y5326000D03*
X550000Y6350000D03*
X804000D03*
X550000Y6604000D03*
X804000D03*
X1200000Y350000D03*
X1450000D03*
X963000Y3040000D03*
Y3294000D03*
Y3548000D03*
Y3802000D03*
Y4056000D03*
Y4310000D03*
Y4564000D03*
Y4818000D03*
Y5072000D03*
Y5326000D03*
X1058000Y6350000D03*
X1312000D03*
X1058000Y6604000D03*
X1312000D03*
X1700000Y350000D03*
X1950000D03*
X1800000Y1000000D03*
X1750000Y1950000D03*
Y2550000D03*
X1700000Y3100000D03*
X1566000Y6350000D03*
X1820000D03*
X1566000Y6604000D03*
X1820000D03*
X2200000Y350000D03*
X2300000Y1000000D03*
X2050000D03*
X2074000Y6350000D03*
X2328000D03*
X2074000Y6604000D03*
X2328000D03*
X3000000Y350000D03*
X2582000Y6350000D03*
X2836000D03*
X3090000D03*
X2582000Y6604000D03*
X2836000D03*
X3090000D03*
X3250000Y350000D03*
X3500000D03*
X3344000Y6350000D03*
X3598000D03*
X3344000Y6604000D03*
X3598000D03*
X3750000Y350000D03*
X3852000Y6350000D03*
X4106000D03*
X3852000Y6604000D03*
X4106000D03*
X4800000Y6600000D03*
X5054000D03*
X5700000Y3100000D03*
Y3400000D03*
X5308000Y6600000D03*
X5816000D03*
X5562000D03*
X6297000Y3040000D03*
Y3294000D03*
Y3548000D03*
Y3802000D03*
Y4056000D03*
Y4310000D03*
Y4564000D03*
Y4818000D03*
Y5072000D03*
Y5326000D03*
X6070000Y6600000D03*
X6551000Y3040000D03*
Y3294000D03*
Y3548000D03*
Y3802000D03*
Y4056000D03*
Y4310000D03*
Y4564000D03*
Y4818000D03*
Y5072000D03*
Y5326000D03*
X6450000Y5950000D03*
X6750000D03*
Y6600000D03*
X6500000D03*
X7400000Y4600000D03*
X7350000Y5950000D03*
X7050000D03*
X7250000Y6600000D03*
X7000000D03*
X7500000Y350000D03*
Y6600000D03*
G54D11*
X250000Y4800000D03*
X150000D03*
Y4900000D03*
X300000Y5180000D03*
X250000Y4900000D03*
X300000Y6300000D03*
Y6700000D03*
X800000Y400000D03*
X900000Y900000D03*
Y1300000D03*
X800000Y1150000D03*
X850000Y2000000D03*
X550000Y2100000D03*
X850000Y1900000D03*
X550000Y2500000D03*
X750000Y2650000D03*
X850000D03*
X500000Y2750000D03*
Y3200000D03*
Y3000000D03*
X850000Y2750000D03*
Y2850000D03*
X750000Y2750000D03*
X500000Y2850000D03*
X750000D03*
X500000Y4700000D03*
Y4900000D03*
Y5250000D03*
Y5360000D03*
X400000Y5180000D03*
X600000Y5600000D03*
Y6000000D03*
X1300000Y900000D03*
X950000Y1510000D03*
X1300000D03*
Y1630000D03*
X950000D03*
X1300000Y1300000D03*
X1150000Y2100000D03*
Y1900000D03*
Y2000000D03*
X1050000D03*
Y1900000D03*
Y2100000D03*
X1300000Y1750000D03*
X950000D03*
X1350000Y1900000D03*
X1250000D03*
X1100000Y2400000D03*
X1460000D03*
Y2500000D03*
X1370000Y2680000D03*
X1170000D03*
X1270000D03*
X950000Y2650000D03*
X1200000Y3100000D03*
X950000Y2750000D03*
Y2850000D03*
X1200000Y3500000D03*
X1160000Y3800000D03*
X1420000Y3700000D03*
Y4250000D03*
Y4050000D03*
Y4150000D03*
X1160000Y4700000D03*
Y4350000D03*
X1420000D03*
Y4700000D03*
Y4550000D03*
X1160000Y5000000D03*
X1420000D03*
X1160000Y5200000D03*
X1000000Y5600000D03*
X1250000Y5490000D03*
X1450000Y5750000D03*
X1400000Y6010000D03*
X1950000Y880000D03*
X1700000D03*
Y1510000D03*
Y1630000D03*
X1900000Y1300000D03*
X1700000Y1750000D03*
X2000000Y1950000D03*
X1900000D03*
X1550000Y2000000D03*
X1650000Y2100000D03*
X1550000Y1900000D03*
X1750000Y2100000D03*
X1560000Y2400000D03*
Y2500000D03*
X2000000Y2550000D03*
X1800000Y2400000D03*
X1900000Y2550000D03*
X1700000Y2400000D03*
Y2900000D03*
X1830000Y3600000D03*
X1680000Y4250000D03*
Y4150000D03*
X1830000Y3900000D03*
X1680000Y4550000D03*
Y4450000D03*
Y4800000D03*
Y4900000D03*
Y5100000D03*
X1850000Y5750000D03*
X1650000D03*
X1950000Y5490000D03*
X1850000Y6010000D03*
X1600000D03*
X1800000Y6800000D03*
X2400000Y400000D03*
X2200000Y880000D03*
X2100000Y1510000D03*
Y1630000D03*
X2200000Y2050000D03*
X2100000D03*
Y1750000D03*
X2200000Y1950000D03*
X2100000D03*
X2200000Y2600000D03*
X2300000Y2800000D03*
X2470000Y3200000D03*
X2360000Y3620000D03*
X2260000Y3790000D03*
Y3690000D03*
Y4190000D03*
Y4090000D03*
Y3890000D03*
Y3990000D03*
X2490000Y4000000D03*
Y4220000D03*
X2400000Y4700000D03*
X2500000Y5020000D03*
Y5310000D03*
X2010000Y5370000D03*
X2520000Y5600000D03*
Y5730000D03*
Y5470000D03*
X2340000Y5490000D03*
X2080000D03*
X2210000Y5750000D03*
Y5490000D03*
X2500000Y6150000D03*
X2200000Y6800000D03*
X2800000Y400000D03*
X2600000Y900000D03*
X3000000D03*
X2570000Y1080000D03*
X2830000D03*
Y1280000D03*
X2570000Y1380000D03*
X2830000Y1480000D03*
Y1580000D03*
Y1180000D03*
X2570000Y1580000D03*
Y1180000D03*
Y1480000D03*
X2830000Y1380000D03*
X2570000Y1280000D03*
X2890000Y2000000D03*
X2780000Y2730000D03*
X2650000Y2200000D03*
X2900000Y2500000D03*
X3050000D03*
Y2650000D03*
X2800000Y2850000D03*
X2820000Y2970000D03*
X2550000Y3030000D03*
X2900000Y3200000D03*
X2550000Y3130000D03*
X2900000Y3500000D03*
Y3800000D03*
X2550000Y3270000D03*
X2560000Y3610000D03*
X2900000Y4100000D03*
Y3900000D03*
X2590000Y4220000D03*
X2900000Y4250000D03*
X2590000Y4000000D03*
X2650000Y4490000D03*
X2900000Y4400000D03*
X3010000Y5310000D03*
X2890000D03*
X2770000D03*
X2790000Y5020000D03*
X2910000D03*
X3010000D03*
X2690000D03*
X2850000Y5950000D03*
X2700000D03*
X2780000Y5730000D03*
Y5600000D03*
Y5470000D03*
X3000000Y6100000D03*
X3450000Y1000000D03*
X3600000Y620000D03*
X3500000Y880000D03*
X3450000Y1110000D03*
X3250000Y880000D03*
X3340000Y700000D03*
X3150000Y1110000D03*
X3400000Y1500000D03*
X3450000Y1300000D03*
X3230000Y1850000D03*
X3200000Y2500000D03*
X3350000D03*
X3500000Y3200000D03*
X3200000D03*
X3500000Y3800000D03*
X3200000D03*
X3500000Y3500000D03*
X3200000D03*
X3500000Y4100000D03*
X3200000D03*
X3500000Y4400000D03*
X3200000D03*
X3140000Y4740000D03*
X3220000Y4800000D03*
X3300000Y4860000D03*
X3600000Y5100000D03*
X3550000Y5310000D03*
X3500000Y5100000D03*
X3550000Y4890000D03*
X3220000Y4920000D03*
X3300000Y4980000D03*
Y5100000D03*
X3220000Y5040000D03*
X3280000Y5970000D03*
X3150000Y6100000D03*
X3800000Y800000D03*
X3750000Y1050000D03*
X4070000Y1350000D03*
X3840000Y1400000D03*
X3930000Y1260000D03*
X3840000Y1500000D03*
X3930000Y1140000D03*
X3830000Y1850000D03*
X4150000Y2500000D03*
X4000000D03*
X3850000D03*
X3700000D03*
X3740000Y2850000D03*
Y2750000D03*
X4100000Y3200000D03*
X3800000D03*
X3900000D03*
X4000000D03*
X3850000Y2890000D03*
X4050000D03*
X3950000D03*
X3640000Y3200000D03*
X3900000Y3300000D03*
X4100000Y3500000D03*
X3800000Y3800000D03*
Y3500000D03*
X4100000Y3300000D03*
X4000000Y3800000D03*
X4100000D03*
X3800000Y3300000D03*
X3700000D03*
X4100000Y3400000D03*
X3800000Y4100000D03*
X4100000Y4141770D03*
Y4020000D03*
X4000000Y3960000D03*
Y4200000D03*
Y4080000D03*
X4120000Y4420000D03*
X3800000Y4400000D03*
X3680000Y5000000D03*
X4050000Y5200000D03*
Y5050000D03*
X3650000Y5310000D03*
X4020000Y5400000D03*
X3950000Y5050000D03*
X3750000Y5310000D03*
X3950000Y4950000D03*
X3650000Y4890000D03*
X3830000Y5900000D03*
X4020000Y5530000D03*
X3830000Y5790000D03*
Y5660000D03*
Y5530000D03*
X4020000Y5660000D03*
Y5790000D03*
X4200000Y400000D03*
X4300000Y1000000D03*
X4200000Y800000D03*
X4600000Y790000D03*
X4200000Y1350000D03*
X4590000Y1340000D03*
X4400000Y1500000D03*
X4500000D03*
X4450000Y1970000D03*
X4690000Y2000000D03*
X4170000D03*
X4570000Y2450000D03*
X4690000D03*
X4500000Y2600000D03*
X4400000Y2200000D03*
X4510000Y3170000D03*
X4570000Y3390000D03*
X4460000Y3570000D03*
X4510000Y3270000D03*
Y4300000D03*
X4540000Y4100000D03*
Y4200000D03*
X4410000Y4300000D03*
X4550000Y4000000D03*
X4650000D03*
X4200000Y4700000D03*
Y4580000D03*
Y4820000D03*
X4510000Y4400000D03*
X4550000Y5370000D03*
X4200000Y5300000D03*
X4550000Y5830000D03*
Y5600000D03*
Y5730000D03*
Y5470000D03*
X4280000Y5530000D03*
Y5660000D03*
Y5790000D03*
X4400000Y6350000D03*
X4600000Y6600000D03*
X5000000Y400000D03*
X4780000Y980000D03*
X5100000Y1580000D03*
X4720000Y1340000D03*
X4840000D03*
X5070000Y2180000D03*
X5190000D03*
X4950000Y2350000D03*
X5050000D03*
X4950000Y2910000D03*
X5050000Y4680000D03*
X4950000Y4800000D03*
X5050000D03*
X4950000Y4680000D03*
X4900000Y5150000D03*
X5000000D03*
X5110000D03*
X5200000Y5330000D03*
X4850000Y5410000D03*
X4800000Y5900000D03*
X5120000Y5600000D03*
Y5800000D03*
X4850000Y5540000D03*
X5180000Y6500000D03*
X4930000D03*
X5550000Y520000D03*
X5350000Y730000D03*
X5750000Y650000D03*
X5550000Y620000D03*
X5600000Y800000D03*
X5250000Y730000D03*
X5700000Y1580000D03*
X5500000D03*
X5300000D03*
X5310000Y2180000D03*
X5430000D03*
X5500000Y2350000D03*
Y3200000D03*
Y3000000D03*
X5400000Y3200000D03*
X5310000Y3100000D03*
X5600000Y3600000D03*
X5500000Y3500000D03*
Y3300000D03*
Y3400000D03*
X5650000Y3850000D03*
X5460000Y3940000D03*
X5630000Y4270000D03*
X5530000Y4070000D03*
X5400000D03*
X5270000D03*
X5630000Y4550000D03*
X5460000Y4850000D03*
X5400000Y4550000D03*
X5330000Y4850000D03*
X5270000Y4550000D03*
X5530000D03*
X5590000Y4850000D03*
X5700000Y5100000D03*
X5600000Y5330000D03*
X5470000D03*
X5340000D03*
X5700000Y5800000D03*
X5380000Y5500000D03*
Y5600000D03*
X5700000Y6000000D03*
X5300000D03*
X5440000Y6500000D03*
X5830000Y300000D03*
Y500000D03*
Y400000D03*
X6180000Y1050000D03*
Y950000D03*
X5850000Y750000D03*
Y650000D03*
X6180000Y850000D03*
X6300000Y1300000D03*
X5850000Y1150000D03*
X5950000D03*
X6250000D03*
X5860000Y1600000D03*
X6300000Y1700000D03*
Y2100000D03*
X5860000Y1700000D03*
X6100000Y2600000D03*
X6230000Y2250000D03*
X5800000Y2350000D03*
X6230000D03*
X6100000Y3000000D03*
Y3400000D03*
X5820000Y3900000D03*
Y4000000D03*
Y4300000D03*
Y4600000D03*
Y4400000D03*
Y4500000D03*
X6080000Y4700000D03*
X6100000Y5300000D03*
X5820000Y5000000D03*
Y4900000D03*
X6100000Y5800000D03*
Y6000000D03*
X6620000Y750000D03*
X6700000Y670000D03*
X6800000D03*
X6600000Y860000D03*
X6800000Y770000D03*
X6700000Y860000D03*
X6730000Y1270000D03*
X6700000Y1700000D03*
Y2100000D03*
X6570000Y2410000D03*
X6650000Y2540000D03*
X6750000D03*
X6850000Y3640000D03*
X6800000Y4400000D03*
Y4800000D03*
Y5200000D03*
X6650000Y6330000D03*
X6550000Y6070000D03*
X6850000D03*
X6350000Y6330000D03*
X6800000Y6800000D03*
X6400000D03*
X7050000Y300000D03*
Y400000D03*
Y500000D03*
X6900000Y670000D03*
X7000000D03*
X6900000Y770000D03*
Y1270000D03*
X7030000Y1400000D03*
X7080000Y1270000D03*
X7130000Y1430000D03*
X7100000Y1700000D03*
Y2100000D03*
X7130000Y1970000D03*
X7000000Y2600000D03*
X7200000Y2200000D03*
Y2500000D03*
X7170000Y2300000D03*
X6920000Y2410000D03*
X7060000Y2860000D03*
X7250000Y2950000D03*
X7143750Y3714750D03*
X7200000Y4800000D03*
Y4400000D03*
Y5200000D03*
X6950000Y6330000D03*
X7150000Y6070000D03*
X7200000Y6800000D03*
X7500000Y900000D03*
Y600000D03*
Y1200000D03*
X7410000Y1330000D03*
X7450000Y1520000D03*
Y1780000D03*
X7540000Y2300000D03*
X7600000Y4000000D03*
Y4400000D03*
Y4800000D03*
Y5200000D03*
X7430000Y5350000D03*
X7600000Y5600000D03*
X7430000Y5500000D03*
X7600000Y6400000D03*
Y6000000D03*
Y6800000D03*
G54D20*
X2900000Y3032500D03*
X2950000D03*
X3000000D03*
X2900000Y4567500D03*
X2950000D03*
X3000000D03*
X3050000Y3032500D03*
X3100000D03*
X3150000D03*
X3200000D03*
X3250000D03*
X3300000D03*
X3350000D03*
X3400000D03*
X3450000D03*
X3500000D03*
X3550000D03*
X3050000Y4567500D03*
X3100000D03*
X3300000D03*
X3350000D03*
X3150000D03*
X3200000D03*
X3250000D03*
X3400000D03*
X3450000D03*
X3500000D03*
X3550000D03*
X3600000Y3032500D03*
X3650000D03*
X3800000D03*
X3850000D03*
X3900000D03*
X3750000D03*
X3700000D03*
X3950000D03*
X4000000D03*
X4050000D03*
X4100000D03*
X3600000Y4567500D03*
X3650000D03*
X3700000D03*
X3750000D03*
X3800000D03*
X3850000D03*
X3900000D03*
X3950000D03*
X4000000D03*
X4050000D03*
X4100000D03*
X6575000Y1132500D03*
X6525000D03*
X6475000D03*
X6425000D03*
X6375000D03*
X6325000D03*
X6775000D03*
X6725000D03*
X6675000D03*
X6625000D03*
X6325000Y2267500D03*
X6375000D03*
X6425000D03*
X6475000D03*
X6525000D03*
X6575000D03*
X6775000D03*
X6625000D03*
X6675000D03*
X6725000D03*
X6825000Y1132500D03*
X7075000D03*
X7025000D03*
X6975000D03*
X6925000D03*
X6875000D03*
X6825000Y2267500D03*
X6875000D03*
X6925000D03*
X6975000D03*
X7025000D03*
X7075000D03*
G54D21*
G01X709000Y3294000D02*
X963000D01*
G01X1820000Y6350000D02*
Y6604000D01*
G01D02*
Y6780000D01*
G01D02*
X1800000Y6800000D01*
G01X6297000Y3040000D02*
X6551000D01*
G01X6297000Y3294000D02*
X6186000D01*
G01X6297000Y3548000D02*
X6551000D01*
G01X6297000Y3294000D02*
X6551000D01*
G01D02*
X6666000D01*
X2650000Y4650000D03*
X4350000Y2950000D03*
X6000000Y2350000D03*
X7350000Y1050000D03*
G54D12*
X300000Y5095000D03*
Y5005000D03*
X400000Y5095000D03*
Y5005000D03*
X1345000Y2000000D03*
X1255000D03*
X1370000Y2505000D03*
Y2595000D03*
X1170000Y2505000D03*
Y2595000D03*
X1270000Y2505000D03*
Y2595000D03*
X1335000Y3700000D03*
X1245000D03*
Y4050000D03*
X1335000D03*
X1245000Y4150000D03*
X1335000D03*
X1245000Y4250000D03*
X1335000D03*
Y3800000D03*
X1245000D03*
Y4550000D03*
X1335000D03*
X1245000Y4450000D03*
X1335000D03*
X1245000Y4800000D03*
X1335000D03*
Y4350000D03*
X1245000D03*
X1335000Y4700000D03*
X1245000D03*
Y4900000D03*
X1335000D03*
X1245000Y5100000D03*
X1335000D03*
Y5000000D03*
X1245000D03*
X1335000Y5200000D03*
X1245000D03*
X1350000Y5575000D03*
Y5665000D03*
Y5835000D03*
Y5925000D03*
X1250000Y5835000D03*
Y5925000D03*
Y5665000D03*
Y5575000D03*
X1950000Y705000D03*
Y795000D03*
X1700000Y705000D03*
Y795000D03*
X1800000D03*
Y705000D03*
X1750000Y2295000D03*
Y2205000D03*
X1505000Y3700000D03*
X1595000D03*
X1505000Y4050000D03*
X1595000D03*
X1505000Y4250000D03*
X1595000D03*
X1505000Y4150000D03*
X1595000D03*
X1505000Y4450000D03*
X1595000D03*
X1505000Y4800000D03*
X1595000D03*
X1505000Y4550000D03*
X1595000D03*
X1505000Y4350000D03*
X1595000D03*
X1505000Y4700000D03*
X1595000D03*
X1505000Y4900000D03*
X1595000D03*
X1505000Y5100000D03*
X1595000D03*
X1505000Y5000000D03*
X1595000D03*
X1650000Y5665000D03*
Y5575000D03*
X1450000Y5665000D03*
Y5575000D03*
X1750000D03*
Y5665000D03*
X1550000D03*
Y5575000D03*
X1950000Y5925000D03*
Y5835000D03*
X1750000D03*
Y5925000D03*
X1550000D03*
Y5835000D03*
X1450000D03*
Y5925000D03*
X1850000Y5835000D03*
Y5925000D03*
X1650000Y5835000D03*
Y5925000D03*
X1950000Y5665000D03*
Y5575000D03*
X1850000Y5665000D03*
Y5575000D03*
X2200000Y705000D03*
Y795000D03*
X2300000D03*
Y705000D03*
X2050000Y795000D03*
Y705000D03*
X2450000Y3645000D03*
Y3735000D03*
X2350000Y3705000D03*
Y3895000D03*
Y3985000D03*
Y4175000D03*
Y4085000D03*
Y3795000D03*
X2210000Y5835000D03*
Y5925000D03*
X2080000Y5835000D03*
Y5925000D03*
Y5665000D03*
Y5575000D03*
X2210000Y5665000D03*
Y5575000D03*
X2340000Y5665000D03*
Y5575000D03*
Y5925000D03*
Y5835000D03*
X2655000Y1080000D03*
X2745000D03*
X2655000Y1280000D03*
X2745000D03*
X2655000Y1480000D03*
X2745000D03*
Y1180000D03*
X2655000D03*
X2745000Y1380000D03*
X2655000D03*
X2745000Y1580000D03*
X2655000D03*
X3055000Y1850000D03*
X2605000Y5600000D03*
X2695000D03*
X2605000Y5730000D03*
X2695000D03*
X2605000Y5470000D03*
X2695000D03*
X3500000Y795000D03*
Y705000D03*
X3250000Y795000D03*
Y705000D03*
X3145000Y1850000D03*
X3150000Y2655000D03*
X3250000D03*
X3350000D03*
X3150000Y2745000D03*
X3250000D03*
X3350000D03*
X3555000Y4800000D03*
X3505000Y5000000D03*
X3595000D03*
X3600000Y795000D03*
Y705000D03*
X3845000Y1260000D03*
X3755000D03*
X3845000Y1140000D03*
X3755000D03*
X3750000Y1495000D03*
Y1405000D03*
X4005000Y1850000D03*
X3915000D03*
X3650000Y2845000D03*
Y2755000D03*
X3645000Y4800000D03*
X3745000Y5400000D03*
X3655000D03*
X4105000D03*
Y5790000D03*
Y5660000D03*
Y5530000D03*
X3745000Y5660000D03*
X3655000D03*
Y5790000D03*
X3745000D03*
Y5530000D03*
X3655000D03*
X4420000Y3205000D03*
Y3295000D03*
X4455000Y3480000D03*
X4545000D03*
X4450000Y3905000D03*
Y3995000D03*
X4650000Y3805000D03*
Y3895000D03*
X4450000Y4195000D03*
Y4105000D03*
X4550000Y3805000D03*
Y3895000D03*
X4195000Y5400000D03*
Y5790000D03*
Y5660000D03*
Y5530000D03*
X5200000Y5155000D03*
Y5245000D03*
X5205000Y5500000D03*
Y5600000D03*
X5250000Y555000D03*
Y645000D03*
X5530000Y4155000D03*
Y4245000D03*
X5400000Y4155000D03*
Y4245000D03*
X5270000Y4155000D03*
Y4245000D03*
X5340000Y5245000D03*
Y5155000D03*
X5470000Y5245000D03*
Y5155000D03*
X5600000Y5245000D03*
Y5155000D03*
X5295000Y5500000D03*
Y5600000D03*
X5950000Y655000D03*
Y745000D03*
X5850000Y1235000D03*
Y1325000D03*
X5950000Y1235000D03*
Y1325000D03*
Y1605000D03*
Y1695000D03*
X6235000Y2450000D03*
X5905000Y3700000D03*
X5995000D03*
Y4000000D03*
X5905000D03*
X5995000Y4300000D03*
X5905000D03*
X5995000Y3800000D03*
X5905000D03*
X5995000Y3900000D03*
X5905000D03*
X5995000Y4400000D03*
X5905000D03*
X5995000Y4600000D03*
X5905000D03*
X5995000Y4500000D03*
X5905000D03*
X5995000Y4800000D03*
X5905000D03*
Y4700000D03*
X5995000D03*
Y4900000D03*
X5905000D03*
X5995000Y5000000D03*
X5905000D03*
X6695000Y950000D03*
X6605000D03*
X6800000Y945000D03*
Y855000D03*
X6745000Y2450000D03*
X6655000D03*
X6325000D03*
X6550000Y6245000D03*
Y6155000D03*
X6450000D03*
Y6245000D03*
X6750000Y6155000D03*
Y6245000D03*
X6350000Y6155000D03*
Y6245000D03*
X6650000Y6155000D03*
Y6245000D03*
X6900000Y945000D03*
Y855000D03*
X7265000Y2400000D03*
X7175000D03*
X7145000Y2950000D03*
X7055000D03*
X6905000Y5350000D03*
X6995000D03*
X6905000Y5500000D03*
X6995000D03*
X6850000Y6245000D03*
Y6155000D03*
X7150000Y6245000D03*
Y6155000D03*
X7050000D03*
Y6245000D03*
X6950000Y6155000D03*
Y6245000D03*
X7450000Y1605000D03*
Y1695000D03*
Y2205000D03*
Y2295000D03*
G54D30*
X6985000Y3302000D03*
X7302500D03*
X6985000Y3556000D03*
Y3810000D03*
X7302500D03*
X7493000Y3454400D03*
Y3657600D03*
G54D40*
G01X350000Y5750000D02*
X459020D01*
G01X240980D02*
X350000D01*
G01D02*
Y5859020D01*
G01Y5640980D02*
Y5750000D01*
G01X604000Y380000D02*
X713020D01*
G01X494980D02*
X604000D01*
G01D02*
Y489020D01*
G01Y270980D02*
Y380000D01*
G01Y524980D02*
Y634000D01*
G01D02*
X713020D01*
G01X494980D02*
X604000D01*
G01X709000Y3040000D02*
X818020D01*
G01X599980D02*
X709000D01*
G01D02*
Y3149020D01*
G01Y2930980D02*
Y3040000D01*
G01X853980D02*
X963000D01*
G01X1340980Y350000D02*
X1450000D01*
G01X963000Y3040000D02*
X1072020D01*
G01X963000D02*
Y3149020D01*
G01Y2930980D02*
Y3040000D01*
G01X1450000Y350000D02*
X1559020D01*
G01X1450000D02*
Y459020D01*
G01Y240980D02*
Y350000D01*
G01X1700000Y3100000D02*
X1809020D01*
G01X1590980D02*
X1700000D01*
G01D02*
Y3209020D01*
G01Y2990980D02*
Y3100000D01*
G01X3488980Y6604000D02*
X3598000D01*
G01X3750000Y350000D02*
X3859020D01*
G01X3640980D02*
X3750000D01*
G01D02*
Y459020D01*
G01Y240980D02*
Y350000D01*
G01X3598000Y6350000D02*
X3707020D01*
G01X3598000D02*
Y6459020D01*
G01Y6240980D02*
Y6350000D01*
G01Y6604000D02*
X3707020D01*
G01X3598000D02*
Y6713020D01*
G01Y6494980D02*
Y6604000D01*
G01X5706980Y6600000D02*
X5816000D01*
G01D02*
X5925020D01*
G01X5816000D02*
Y6709020D01*
G01Y6490980D02*
Y6600000D01*
G01X7350980Y2700000D02*
X7450000D01*
G01X7290980Y4600000D02*
X7400000D01*
G01X7250000Y6600000D02*
X7359020D01*
G01X7140980D02*
X7250000D01*
G01D02*
Y6709020D01*
G01Y6490980D02*
Y6600000D01*
G01X7500000Y350000D02*
X7609020D01*
G01X7390980D02*
X7500000D01*
G01D02*
Y459020D01*
G01Y240980D02*
Y350000D01*
G01X7450000Y2700000D02*
X7549020D01*
G01X7450000D02*
Y2799020D01*
G01X7400000Y4600000D02*
X7509020D01*
G01X7400000D02*
Y4709020D01*
G01Y4490980D02*
Y4600000D01*
G54D13*
X1375000Y2105000D03*
X1325000D03*
X1275000D03*
X1225000D03*
X1375000Y2395000D03*
X1325000D03*
X1225000D03*
X1275000D03*
G54D22*
X4400000Y1100000D03*
X4527000D03*
X4654000D03*
X4400000Y1227000D03*
X4527000D03*
X4654000D03*
X5162000Y1100000D03*
X5035000D03*
X4908000D03*
X4781000D03*
X5162000Y1227000D03*
X5035000D03*
X4908000D03*
X4781000D03*
X5543000Y1100000D03*
X5416000D03*
X5289000D03*
X5543000Y1227000D03*
X5416000D03*
X5289000D03*
G54D31*
X7112000Y3492500D03*
Y3619500D03*
X7239000Y3492500D03*
X7366000D03*
X7239000Y3619500D03*
X7366000D03*
G54D14*
X1300000Y2250000D03*
G54D23*
X4950000Y3080000D03*
Y3620000D03*
G54D32*
X7330000Y5350000D03*
X7170000D03*
Y5500000D03*
X7330000D03*
X7450000Y1920000D03*
Y2080000D03*
G54D33*
G01X3055000Y1850000D02*
Y2200000D01*
G01X3500000Y3032500D02*
Y2470000D01*
X3230000Y2200000D01*
X3055000D01*
G01X3550000Y3032500D02*
Y2480000D01*
X3830000Y2200000D01*
X4005000D01*
G01D02*
Y1850000D01*
G54D15*
X1950000Y2110000D03*
Y2390000D03*
X5930000Y2140000D03*
Y1860000D03*
G54D24*
X5205000Y4412500D03*
Y4987500D03*
X5270000Y4412500D03*
X5335000D03*
X5400000D03*
X5465000D03*
X5530000D03*
X5595000D03*
X5270000Y4987500D03*
X5335000D03*
X5400000D03*
X5465000D03*
X5530000D03*
X5595000D03*
G54D34*
G01X1245000Y3700000D02*
X1100000D01*
X1075000Y3675000D01*
X836000D01*
X709000Y3548000D01*
G01Y4056000D02*
X836000Y4183000D01*
X1097000D01*
X1130000Y4150000D01*
X1245000D01*
G01X709000Y4564000D02*
X836000Y4437000D01*
X1232000D01*
X1245000Y4450000D01*
G01X709000Y4818000D02*
X836000Y4945000D01*
X1095000D01*
X1140000Y4900000D01*
X1245000D01*
G01X1830000Y3600000D02*
X1760000Y3670000D01*
Y3940000D01*
X1800000Y3980000D01*
Y5170000D01*
X1620000Y5350000D01*
X1220000D01*
X1130000Y5440000D01*
Y5580000D01*
X420000Y6290000D01*
Y6474000D01*
X550000Y6604000D01*
G01X1250000Y5925000D02*
X975000D01*
X550000Y6350000D01*
G01X1350000Y5925000D02*
Y5960000D01*
X1280000Y6030000D01*
X1010000D01*
X804000Y6236000D01*
Y6350000D01*
G01X1550000Y5925000D02*
Y5960000D01*
X1430000Y6080000D01*
X1090000D01*
X931000Y6239000D01*
Y6477000D01*
X804000Y6604000D01*
G01X1505000Y3700000D02*
X1420000D01*
G01X1335000D02*
Y3800000D01*
G01Y3700000D02*
X1420000D01*
G01X963000Y4310000D02*
X1090000D01*
X1150000Y4250000D01*
X1245000D01*
G01X963000Y4056000D02*
X1104000D01*
X1110000Y4050000D01*
X1245000D01*
G01X1505000D02*
X1420000D01*
G01D02*
X1335000D01*
G01X1505000Y4250000D02*
X1420000D01*
G01D02*
X1335000D01*
G01X1505000Y4150000D02*
X1420000D01*
G01D02*
X1335000D01*
G01X963000Y4564000D02*
X1096000D01*
X1110000Y4550000D01*
X1245000D01*
G01X1335000Y4350000D02*
Y4450000D01*
G01D02*
X1505000D01*
G01X963000Y4818000D02*
X1102000D01*
X1120000Y4800000D01*
X1245000D01*
G01X1335000D02*
X1505000D01*
G01Y4550000D02*
X1420000D01*
G01D02*
X1335000D01*
G01X963000Y5072000D02*
X1102000D01*
X1130000Y5100000D01*
X1245000D01*
G01X1335000Y5000000D02*
Y4900000D01*
G01D02*
X1505000D01*
G01X1335000Y5100000D02*
X1505000D01*
G01X1335000Y5200000D02*
Y5100000D01*
G01X1350000Y5835000D02*
X1450000D01*
G01X1350000D02*
Y5665000D01*
G01X1450000Y5575000D02*
X1350000D01*
G01X1830000Y3900000D02*
X1850000Y3920000D01*
Y5190000D01*
X1640000Y5400000D01*
X1240000D01*
X1180000Y5460000D01*
Y5640000D01*
X1205000Y5665000D01*
X1250000D01*
G01Y5835000D02*
Y5665000D01*
G01X1950000Y5925000D02*
Y6010000D01*
X1885000Y6075000D01*
X1705000D01*
X1600000Y6180000D01*
X1250000D01*
X1185000Y6245000D01*
Y6477000D01*
X1312000Y6604000D01*
G01X1750000Y5925000D02*
Y5960000D01*
X1580000Y6130000D01*
X1170000D01*
X1058000Y6242000D01*
Y6350000D01*
G01X1312000D02*
X1432000Y6230000D01*
X1620000D01*
X1730000Y6120000D01*
X1960000D01*
X2080000Y6000000D01*
Y5925000D01*
G01X1505000Y5100000D02*
Y5155000D01*
X1530000Y5180000D01*
X1710000D01*
X1750000Y5140000D01*
Y4000000D01*
X1710000Y3960000D01*
Y3490000D01*
X2000000Y3200000D01*
X2100000D01*
G01X2610000Y3390000D02*
X2420000D01*
X2330000Y3300000D01*
X2010000D01*
X1900000Y3410000D01*
Y5210000D01*
X1660000Y5450000D01*
X1500000D01*
X1450000Y5500000D01*
Y5575000D01*
G01X2600000Y3440000D02*
X2390000D01*
X2300000Y3350000D01*
X2030000D01*
X1950000Y3430000D01*
Y5230000D01*
X1650000Y5530000D01*
Y5575000D01*
G01X1595000Y4450000D02*
Y4350000D01*
G01Y4450000D02*
X1680000D01*
G01X1595000Y4900000D02*
Y5000000D01*
G01X2590000Y3490000D02*
X2360000D01*
X2270000Y3400000D01*
X2050000D01*
X2000000Y3450000D01*
Y5250000D01*
X1850000Y5400000D01*
Y5575000D01*
G01X1750000Y5835000D02*
X1850000D01*
G01X1750000Y5665000D02*
Y5835000D01*
G01X1550000D02*
X1650000D01*
G01X1550000Y5665000D02*
Y5835000D01*
G01X1650000Y5575000D02*
X1550000D01*
G01X1850000D02*
X1750000D01*
G01X2630000Y4350000D02*
X2520000D01*
X2100000Y4770000D01*
Y5378070D01*
X2015000Y5463070D01*
Y5635000D01*
X1985000Y5665000D01*
X1950000D01*
G01D02*
Y5835000D01*
G01X1610000Y6740000D02*
X1693000Y6657000D01*
Y6297000D01*
X1770000Y6220000D01*
X2060000D01*
X2275000Y6005000D01*
Y5505000D01*
G01X1566000Y6350000D02*
X1746000Y6170000D01*
X2040000D01*
X2210000Y6000000D01*
Y5925000D01*
G01X2280000Y2630000D02*
X2330000D01*
X2900000Y3200000D01*
G01X2100000Y3000000D02*
X2440000Y3340000D01*
X2600000D01*
G01X2580000Y3540000D02*
X2260000D01*
X2100000Y3700000D01*
G01X2630000Y4300000D02*
X2500000D01*
X2400000Y4400000D01*
X2100000D01*
G01X2630000D02*
X2540000D01*
X2150000Y4790000D01*
Y5450000D01*
X2145000Y5455000D01*
Y5635000D01*
X2115000Y5665000D01*
X2080000D01*
G01X2010000Y5370000D02*
X2050000Y5330000D01*
Y4650000D01*
X2100000Y4600000D01*
G01X2480000Y5380000D02*
X2450000Y5410000D01*
Y5810000D01*
G01X2080000Y5665000D02*
Y5835000D01*
G01X2210000Y5750000D02*
Y5835000D01*
G01Y5665000D02*
Y5750000D01*
G01X2455000Y6225000D02*
Y6725000D01*
G01X2770000Y5390000D02*
X2785000Y5405000D01*
X2912500D01*
G01X3587500Y1430000D02*
X3680000D01*
X3705000Y1405000D01*
X3750000D01*
G01X5120000Y5690000D02*
X5095000Y5665000D01*
X4987500D01*
G01X7112000Y3492500D02*
X7084500Y3465000D01*
X6885000D01*
X6810000Y3390000D01*
Y3195000D01*
X7055000Y2950000D01*
G01X7650000Y3556000D02*
X7429500D01*
X7366000Y3492500D01*
G54D25*
X5255000Y400000D03*
X5545000D03*
G54D16*
X2100000Y3200000D03*
Y3000000D03*
Y2800000D03*
Y3700000D03*
Y3500000D03*
Y4200000D03*
Y3900000D03*
Y4400000D03*
Y4600000D03*
X4400000Y300000D03*
Y500000D03*
X4600000Y300000D03*
Y500000D03*
X4650000Y1700000D03*
X4450000D03*
X4250000D03*
X4800000Y300000D03*
Y500000D03*
X5200000Y1900000D03*
Y1700000D03*
X5000000Y1900000D03*
Y1700000D03*
X5600000Y1900000D03*
Y1700000D03*
X5400000Y1900000D03*
Y1700000D03*
X7450000Y2500000D03*
Y2700000D03*
G54D35*
G01X6425000Y1132500D02*
Y1047500D01*
X6417500Y1040000D01*
Y990000D01*
X6420000Y987500D01*
Y943750D01*
G01X6375000Y1132500D02*
Y1047500D01*
X6382500Y1040000D01*
Y992500D01*
X6380000Y990000D01*
Y943750D01*
G01X6360000Y610000D02*
Y680000D01*
X6382500Y702500D01*
Y807500D01*
X6380000Y810000D01*
Y856250D01*
G01X6440000Y610000D02*
Y680000D01*
X6417500Y702500D01*
Y807500D01*
X6420000Y810000D01*
Y856250D01*
G01D02*
Y943750D01*
G01X6380000Y856250D02*
Y943750D01*
G54D26*
X6020000Y370000D03*
X6860000D03*
G54D17*
X3012500Y1300000D03*
Y1430000D03*
Y1365000D03*
Y1495000D03*
Y1235000D03*
Y1170000D03*
Y1105000D03*
X2912500Y5795000D03*
Y5730000D03*
Y5665000D03*
Y5600000D03*
Y5535000D03*
Y5470000D03*
Y5405000D03*
X3587500Y1430000D03*
Y1365000D03*
Y1495000D03*
Y1300000D03*
Y1235000D03*
Y1170000D03*
Y1105000D03*
X3487500Y5795000D03*
Y5730000D03*
Y5665000D03*
Y5600000D03*
Y5535000D03*
Y5470000D03*
Y5405000D03*
X4412500Y5730000D03*
Y5470000D03*
Y5535000D03*
Y5600000D03*
Y5665000D03*
Y5405000D03*
Y5795000D03*
X4987500Y5470000D03*
Y5535000D03*
Y5600000D03*
Y5665000D03*
Y5730000D03*
Y5405000D03*
Y5795000D03*
G54D36*
G01X350000Y2038000D02*
X232000D01*
G01X1250000Y1900000D02*
X1255000Y1905000D01*
G01D02*
Y2000000D01*
G01X1350000Y1900000D02*
X1345000Y1905000D01*
Y2000000D01*
G01X1370000Y2595000D02*
Y2680000D01*
G01X1270000Y2595000D02*
Y2680000D01*
G01X1170000Y2595000D02*
Y2680000D01*
G01X1245000Y3800000D02*
Y3875000D01*
G01Y3800000D02*
X1160000D01*
G01X1245000Y4350000D02*
X1160000D01*
G01X1505000D02*
X1420000D01*
G01X1245000Y4700000D02*
X1160000D01*
G01X1505000D02*
X1420000D01*
G01X1245000Y5200000D02*
X1160000D01*
G01X1245000Y5000000D02*
X1160000D01*
G01X1505000D02*
X1420000D01*
G01X1250000Y5575000D02*
Y5490000D01*
G01X1400000Y6010000D02*
X1450000Y5960000D01*
Y5925000D01*
G01X1700000Y795000D02*
Y880000D01*
G01X1950000Y795000D02*
Y880000D01*
G01X1595000Y3615000D02*
X1590000Y3610000D01*
G01X1595000Y3700000D02*
Y3615000D01*
G01Y3700000D02*
Y3785000D01*
G01D02*
X1590000Y3790000D01*
G01X1595000Y4050000D02*
Y3975000D01*
G01Y4050000D02*
Y4150000D01*
G01D02*
Y4250000D01*
G01D02*
X1680000D01*
G01X1595000Y4150000D02*
X1680000D01*
G01X1595000Y4550000D02*
X1680000D01*
G01X1595000Y5100000D02*
X1680000D01*
G01X1600000Y6010000D02*
X1650000Y5960000D01*
Y5925000D01*
G01X1450000Y5665000D02*
Y5750000D01*
G01X1950000Y5575000D02*
Y5490000D01*
G01X1650000Y5665000D02*
Y5750000D01*
G01X1850000Y5665000D02*
Y5750000D01*
G01Y5925000D02*
Y6010000D01*
G01X2200000Y795000D02*
Y880000D01*
G01X2100000Y2800000D02*
X1980000D01*
G01X2100000D02*
X2220000D01*
G01X2350000Y3705000D02*
X2275000D01*
X2260000Y3690000D01*
G01X2450000Y3735000D02*
X2415000D01*
X2385000Y3705000D01*
X2350000D01*
G01X2450000Y3645000D02*
X2425000Y3620000D01*
X2360000D01*
G01X2260000Y4090000D02*
X2265000Y4085000D01*
X2350000D01*
G01X2260000Y3990000D02*
X2265000Y3985000D01*
X2350000D01*
G01Y3895000D02*
X2265000D01*
X2260000Y3890000D01*
G01X2350000Y3795000D02*
X2265000D01*
X2260000Y3790000D01*
G01X2350000Y4175000D02*
X2275000D01*
X2260000Y4190000D01*
G01X2340000Y5575000D02*
Y5490000D01*
G01X2080000Y5575000D02*
Y5490000D01*
G01X2210000Y5575000D02*
Y5490000D01*
G01X2655000Y1580000D02*
X2570000D01*
G01X2655000Y1380000D02*
X2570000D01*
G01X2655000Y1180000D02*
X2570000D01*
G01X2655000Y1080000D02*
X2570000D01*
G01X2655000Y1280000D02*
X2570000D01*
G01X2655000Y1480000D02*
X2570000D01*
G01X3050000Y2650000D02*
Y2690000D01*
X3105000Y2745000D01*
X3150000D01*
G01X2605000Y5470000D02*
X2520000D01*
G01X2605000Y5600000D02*
X2520000D01*
G01X2605000Y5730000D02*
X2520000D01*
G01X3250000Y795000D02*
Y880000D01*
G01X3145000Y1850000D02*
X3230000D01*
G01X3350000Y2655000D02*
Y2580000D01*
G01X3250000Y2655000D02*
Y2580000D01*
G01X3150000Y2655000D02*
Y2580000D01*
G01X3555000Y4800000D02*
Y4885000D01*
X3550000Y4890000D01*
G01X3595000Y5000000D02*
Y4960000D01*
X3550000Y4915000D01*
Y4890000D01*
G01X3595000Y5000000D02*
Y5095000D01*
X3600000Y5100000D01*
G01Y705000D02*
Y620000D01*
G01X3840000Y1400000D02*
X3835000Y1405000D01*
G01D02*
X3750000D01*
G01X3845000Y1140000D02*
X3930000D01*
G01X3750000Y1495000D02*
X3835000D01*
X3840000Y1500000D01*
G01X3845000Y1260000D02*
X3930000D01*
G01X3915000Y1850000D02*
X3830000D01*
G01X3650000Y2755000D02*
Y2680000D01*
G01X3740000Y2750000D02*
X3735000Y2755000D01*
G01D02*
X3650000D01*
G01Y2845000D02*
X3735000D01*
X3740000Y2850000D01*
G01X3645000Y4800000D02*
Y4885000D01*
X3650000Y4890000D01*
G01X3595000Y5000000D02*
X3680000D01*
G01X3745000Y5400000D02*
Y5315000D01*
X3750000Y5310000D01*
G01X3830000Y5900000D02*
X3700000D01*
X3655000Y5855000D01*
Y5790000D01*
G01X3745000D02*
X3830000D01*
G01X4105000Y5400000D02*
X4020000D01*
G01X4105000Y5660000D02*
X4020000D01*
G01X4105000Y5530000D02*
X4020000D01*
G01X3745000D02*
X3830000D01*
G01X3745000Y5660000D02*
X3830000D01*
G01X4105000Y5790000D02*
X4020000D01*
G01X4400000Y300000D02*
Y180000D01*
G01X4600000Y300000D02*
Y180000D01*
G01X4527000Y1100000D02*
Y1003000D01*
G01X4654000Y1100000D02*
Y1004000D01*
G01X4400000Y1100000D02*
X4300000Y1000000D01*
G01X4250000Y1700000D02*
Y1590000D01*
G01X4510000Y3170000D02*
X4455000D01*
X4420000Y3205000D01*
G01X4510000Y3270000D02*
X4485000Y3295000D01*
X4420000D01*
G01X4650000Y3895000D02*
Y4000000D01*
G01X4540000Y4100000D02*
X4535000Y4105000D01*
X4450000D01*
G01X4550000Y4000000D02*
X4545000Y3995000D01*
X4450000D01*
G01X4550000Y3895000D02*
Y4000000D01*
G01X4450000Y4195000D02*
X4535000D01*
X4540000Y4200000D01*
G01X4195000Y5400000D02*
Y5305000D01*
X4200000Y5300000D01*
G01X4800000Y300000D02*
Y180000D01*
G01X4950000Y3080000D02*
Y2910000D01*
G01X5200000Y5245000D02*
Y5330000D01*
G01Y5155000D02*
X5115000D01*
X5110000Y5150000D01*
G01X5289000Y1100000D02*
Y999000D01*
G01X5416000Y1100000D02*
Y999000D01*
G01X5543000Y1100000D02*
Y999000D01*
G01X5270000Y4155000D02*
Y4070000D01*
G01X5400000Y4155000D02*
Y4070000D01*
G01X5530000Y4155000D02*
Y4070000D01*
G01X5470000Y5245000D02*
Y5330000D01*
G01X5340000Y5245000D02*
Y5330000D01*
G01X5600000Y5245000D02*
Y5330000D01*
G01X5295000Y5500000D02*
X5380000D01*
G01X5295000Y5600000D02*
X5380000D01*
G01X5950000Y745000D02*
Y830000D01*
G01Y745000D02*
X6020000D01*
G01X5850000Y750000D02*
X5855000Y745000D01*
G01D02*
X5950000D01*
G01X5850000Y1235000D02*
Y1150000D01*
G01X5950000Y1235000D02*
Y1150000D01*
G01Y1605000D02*
X5865000D01*
X5860000Y1600000D01*
G01Y1700000D02*
X5865000Y1695000D01*
G01D02*
X5950000D01*
G01X5930000Y2140000D02*
X5790000D01*
G01X6070000Y2160000D02*
X6050000Y2140000D01*
G01D02*
X5930000D01*
G01X5995000Y4700000D02*
X6080000D01*
G01X6800000Y855000D02*
Y770000D01*
G01X6700000Y860000D02*
X6695000Y865000D01*
Y950000D01*
G01X6655000Y2450000D02*
Y2535000D01*
G01D02*
X6650000Y2540000D01*
G01X6745000Y2450000D02*
Y2535000D01*
X6750000Y2540000D01*
G01X6550000Y6155000D02*
Y6070000D01*
G01X6350000Y6245000D02*
Y6330000D01*
G01X6650000Y6245000D02*
Y6330000D01*
G01X6900000Y855000D02*
Y770000D01*
G01X7055000Y2950000D02*
Y2865000D01*
X7060000Y2860000D01*
G01X7330000Y5350000D02*
X7430000D01*
G01X7330000Y5500000D02*
X7430000D01*
G01X7150000Y6155000D02*
Y6070000D01*
G01X6850000Y6155000D02*
Y6070000D01*
G01X6950000Y6245000D02*
Y6330000D01*
G01X7450000Y1605000D02*
Y1520000D01*
G01Y1695000D02*
Y1780000D01*
G01Y2295000D02*
X7535000D01*
X7540000Y2300000D01*
G54D18*
X3055000Y2200000D03*
X4005000D03*
G54D27*
X6172500Y90000D03*
X6707500D03*
G54D37*
G01X230000Y2670000D02*
X430000D01*
X550000Y2550000D01*
Y2500000D01*
G01X230000Y2420000D02*
X410000D01*
X460000Y2370000D01*
Y2148000D01*
X350000Y2038000D01*
G01X800000Y1150000D02*
Y900000D01*
X661000Y761000D01*
X477000D01*
X350000Y634000D01*
G01Y2038000D02*
X438000Y1950000D01*
X480000D01*
X920000Y1510000D01*
X950000D01*
G01X3200000Y3032500D02*
Y2910000D01*
X2870000Y2580000D01*
X2790000D01*
X2590000Y2380000D01*
Y1740000D01*
X2210000Y1360000D01*
X810000D01*
X719000Y1269000D01*
X477000D01*
X350000Y1142000D01*
G01X3150000Y3032500D02*
Y2910000D01*
X2850000Y2610000D01*
X2770000D01*
X2560000Y2400000D01*
Y1760000D01*
X2190000Y1390000D01*
X756000D01*
X750000Y1396000D01*
X604000D01*
G01X350000D02*
X477000Y1523000D01*
X727000D01*
X830000Y1420000D01*
X2170000D01*
X2530000Y1780000D01*
Y2420000D01*
X2750000Y2640000D01*
X2830000D01*
X3100000Y2910000D01*
Y3032500D01*
G01X3050000D02*
Y2910000D01*
X2810000Y2670000D01*
X2730000D01*
X2500000Y2440000D01*
Y1800000D01*
X2150000Y1450000D01*
X900000D01*
X700000Y1650000D01*
X604000D01*
G01X660000Y1970000D02*
X880000Y1750000D01*
X950000D01*
G01X350000Y2800000D02*
X610000Y2540000D01*
Y1970000D01*
X890000Y1690000D01*
X2190000D01*
X2380000Y1880000D01*
Y2520000D01*
X2770010Y2910000D01*
X2910000D01*
X2950000Y2950000D01*
Y3032500D01*
G01X950000Y1630000D02*
X900000D01*
X550000Y1980000D01*
Y2100000D01*
G01X3000000Y3032500D02*
Y2930000D01*
X2860000Y2790000D01*
X2750000D01*
X2440000Y2480000D01*
Y1840000D01*
X2170000Y1570000D01*
X910000D01*
X490000Y1990000D01*
Y2406000D01*
X350000Y2546000D01*
G01X850000Y1900000D02*
X940000Y1810000D01*
X2210000D01*
X2320000Y1920000D01*
Y2560000D01*
X2792500Y3032500D01*
X2900000D01*
G01X550000Y2100000D02*
Y2500000D01*
G01X1700000Y1510000D02*
X1300000D01*
G01D02*
X950000D01*
G01X1300000Y1750000D02*
X1700000D01*
G01X1300000D02*
X950000D01*
G01X1700000Y1630000D02*
X1300000D01*
G01D02*
X950000D01*
G01X1225000Y2395000D02*
Y2450000D01*
X1170000Y2505000D01*
G01X1275000Y2395000D02*
Y2500000D01*
X1270000Y2505000D01*
G01X1700000Y350000D02*
Y705000D01*
G01X1950000Y350000D02*
Y705000D01*
G01X1800000Y795000D02*
Y1000000D01*
G01X1700000Y705000D02*
X1800000D01*
G01X1950000D02*
X2050000D01*
G01X2100000Y1510000D02*
X1700000D01*
G01X2100000Y1750000D02*
X1700000D01*
G01X2100000Y1630000D02*
X1700000D01*
G01X1595000Y4800000D02*
X1680000D01*
G01X1595000Y4900000D02*
X1680000D01*
G01X2200000Y350000D02*
Y705000D01*
G01D02*
X2300000D01*
G01X2050000Y795000D02*
Y1000000D01*
G01X2300000Y795000D02*
Y1000000D01*
G01X2780000Y2730000D02*
X2740000D01*
X2470000Y2460000D01*
Y1820000D01*
X2160000Y1510000D01*
X2100000D01*
G01X2800000Y2850000D02*
X2760000D01*
X2410000Y2500000D01*
Y1860000D01*
X2180000Y1630000D01*
X2100000D01*
G01X2820000Y2970000D02*
X2780000D01*
X2350000Y2540000D01*
Y1900000D01*
X2200000Y1750000D01*
X2100000D01*
G01X2700000Y5950000D02*
X2500000D01*
X2385000Y5835000D01*
X2340000D01*
G01Y5665000D02*
Y5835000D01*
G01Y5925000D02*
Y6110000D01*
X2201000Y6249000D01*
Y6477000D01*
X2328000Y6604000D01*
G01X2745000Y1580000D02*
X2830000D01*
G01X3012500Y1495000D02*
X2915000D01*
X2830000Y1580000D01*
G01X2745000Y1380000D02*
X2830000D01*
G01X3012500Y1365000D02*
X2845000D01*
X2830000Y1380000D01*
G01X2745000Y1180000D02*
X2830000D01*
G01X3012500Y1235000D02*
X2885000D01*
X2830000Y1180000D01*
G01X2745000Y1080000D02*
X2830000D01*
G01X3012500Y1170000D02*
X2920000D01*
X2830000Y1080000D01*
G01X2745000Y1280000D02*
X2830000D01*
G01X3012500Y1300000D02*
X2850000D01*
X2830000Y1280000D01*
G01X2745000Y1480000D02*
X2830000D01*
G01X3012500Y1430000D02*
X2880000D01*
X2830000Y1480000D01*
G01X2732500Y4250000D02*
X2900000D01*
G01X2690000Y5020000D02*
X2900000Y4810000D01*
Y4567500D01*
G01X2950000D02*
Y4860000D01*
X2790000Y5020000D01*
G01X2910000D02*
X3000000Y4930000D01*
Y4567500D01*
G01X3010000Y5020000D02*
X3050000Y4980000D01*
Y4567500D01*
G01X2912500Y5535000D02*
X3005000D01*
X3030000Y5510000D01*
Y5380000D01*
X3070000Y5340000D01*
Y5100000D01*
X3190000Y4980000D01*
X3300000D01*
G01Y4567500D02*
Y4660000D01*
X3390000Y4750000D01*
Y5100000D01*
X3160000Y5330000D01*
Y5400000D01*
X3120000Y5440000D01*
Y5730000D01*
X3000000Y5850000D01*
Y5932000D01*
X2582000Y6350000D01*
G01X3000000Y6100000D02*
X3030000Y6070000D01*
Y5870000D01*
X3150000Y5750000D01*
Y5460000D01*
X3190000Y5420000D01*
Y5350000D01*
X3420000Y5120000D01*
Y4730000D01*
X3350000Y4660000D01*
Y4567500D01*
G01X2912500Y5730000D02*
X2780000D01*
G01D02*
X2695000D01*
G01X2912500Y5470000D02*
X2780000D01*
G01D02*
X2695000D01*
G01Y5600000D02*
X2780000D01*
G01D02*
X2912500D01*
G01Y5665000D02*
X3005000D01*
X3060000Y5610000D01*
Y5400000D01*
X3100000Y5360000D01*
Y5160000D01*
X3220000Y5040000D01*
G01X2912500Y5795000D02*
X3005000D01*
X3090000Y5710000D01*
Y5420000D01*
X3130000Y5380000D01*
Y5270000D01*
X3300000Y5100000D01*
G01X2582000Y6604000D02*
X2709000Y6477000D01*
Y6291000D01*
X2800000Y6200000D01*
X3000000D01*
X3060000Y6140000D01*
Y5890000D01*
X3180000Y5770000D01*
Y5480000D01*
X3220000Y5440000D01*
Y5370000D01*
X3430000Y5160000D01*
X3630000D01*
X3740000Y5050000D01*
Y4800000D01*
X3600000Y4660000D01*
Y4567500D01*
G01X3250000Y350000D02*
Y705000D01*
G01X3500000D02*
Y350000D01*
G01X3340000Y700000D02*
X3335000Y705000D01*
X3250000D01*
G01X3600000Y795000D02*
X3500000D01*
G01Y880000D02*
Y795000D01*
G01X3587500Y1105000D02*
X3455000D01*
X3450000Y1110000D01*
G01Y1300000D02*
X3587500D01*
G01X3350000Y2745000D02*
Y3032500D01*
G01X3250000Y2745000D02*
Y2795000D01*
X3300000Y2845000D01*
Y3032500D01*
G01X3450000Y4567500D02*
Y4667570D01*
X3480000Y4697570D01*
Y4975000D01*
X3505000Y5000000D01*
G01X3140000Y4740000D02*
X3100000Y4700000D01*
Y4567500D01*
G01X3220000Y4800000D02*
Y4730000D01*
X3150000Y4660000D01*
Y4567500D01*
G01X3200000D02*
Y4660000D01*
X3300000Y4760000D01*
Y4860000D01*
G01X3250000Y4567500D02*
Y4660000D01*
X3360000Y4770000D01*
Y4890000D01*
X3330000Y4920000D01*
X3220000D01*
G01X3400000Y4567500D02*
Y4660000D01*
X3450000Y4710000D01*
Y5050000D01*
X3500000Y5100000D01*
G01X3090000Y6604000D02*
X3217000Y6477000D01*
Y5883000D01*
X3270000Y5830000D01*
Y5540000D01*
X3310000Y5500000D01*
Y5430000D01*
X3490000Y5250000D01*
X3690000D01*
X3830000Y5110000D01*
Y4740000D01*
X3750000Y4660000D01*
Y4567500D01*
G01X3090000Y6350000D02*
Y5910000D01*
X3210000Y5790000D01*
Y5500000D01*
X3250000Y5460000D01*
Y5390000D01*
X3450000Y5190000D01*
X3650000D01*
X3770000Y5070000D01*
Y4780000D01*
X3650000Y4660000D01*
Y4567500D01*
G01X3150000Y6100000D02*
Y5900000D01*
X3240000Y5810000D01*
Y5520000D01*
X3280000Y5480000D01*
Y5410000D01*
X3470000Y5220000D01*
X3670000D01*
X3800000Y5090000D01*
Y4760000D01*
X3700000Y4660000D01*
Y4567500D01*
G01X3280000Y5970000D02*
Y5870000D01*
X3300000Y5850000D01*
Y5560000D01*
X3390000Y5470000D01*
X3487500D01*
G01Y5600000D02*
X3390000D01*
X3330000Y5660000D01*
Y5880000D01*
X3344000Y5894000D01*
Y6350000D01*
G01Y6604000D02*
X3471000Y6477000D01*
Y5971000D01*
X3360000Y5860000D01*
Y5760000D01*
X3390000Y5730000D01*
X3487500D01*
G01Y5405000D02*
X3595000D01*
X3600000Y5400000D01*
X3655000D01*
G01X3487500Y5665000D02*
X3595000D01*
X3600000Y5660000D01*
X3655000D01*
G01X3487500Y5535000D02*
X3595000D01*
X3600000Y5530000D01*
X3655000D01*
G01X3755000Y1140000D02*
Y1175000D01*
X3780000Y1200000D01*
X4010000D01*
X4130000Y1320000D01*
Y1730000D01*
X4230000Y1830000D01*
X4520000D01*
X4630000Y1940000D01*
Y3440000D01*
X4590000Y3480000D01*
X4545000D01*
G01X3755000Y1260000D02*
Y1295000D01*
X3780000Y1320000D01*
X3950000D01*
X4070000Y1440000D01*
Y1770000D01*
X4190000Y1890000D01*
X4460000D01*
X4510000Y1940000D01*
Y2480000D01*
X4570000Y2540000D01*
Y3300000D01*
X4500000Y3370000D01*
X4440000D01*
X4360000Y3450000D01*
X4267500D01*
G01X4570000Y2450000D02*
Y1940000D01*
X4490000Y1860000D01*
X4210000D01*
X4100000Y1750000D01*
Y1380000D01*
X4070000Y1350000D01*
G01X3587500Y1170000D02*
X3680000D01*
X3710000Y1140000D01*
X3755000D01*
G01X3587500Y1235000D02*
X3675000D01*
X3700000Y1260000D01*
X3755000D01*
G01X4080000Y1830000D02*
X4020000Y1770000D01*
G01X4100000Y3032500D02*
Y3200000D01*
G01X4000000D02*
X4050000Y3150000D01*
Y3032500D01*
G01Y2890000D02*
X4000000Y2940000D01*
Y3032500D01*
G01X3950000Y2890000D02*
Y3032500D01*
G01X3850000Y2890000D02*
X3860000D01*
X3900000Y2930000D01*
Y3032500D01*
G01X3850000D02*
Y3150000D01*
X3900000Y3200000D01*
G01X3800000D02*
Y3032500D01*
G01X3750000D02*
Y3150000D01*
X3740000Y3160000D01*
Y3240000D01*
X3800000Y3300000D01*
G01X3700000Y3032500D02*
Y3300000D01*
G01X3650000Y3032500D02*
Y3190000D01*
X3640000Y3200000D01*
G01X4267500Y3400000D02*
X4100000D01*
G01Y4141770D02*
X4101770Y4140000D01*
X4140000D01*
X4180000Y4100000D01*
X4267500D01*
G01Y4250000D02*
X4170000D01*
X4120000Y4200000D01*
X4000000D01*
G01Y4080000D02*
X4140000D01*
X4170000Y4050000D01*
X4267500D01*
G01X4100000Y4020000D02*
X4140000D01*
X4160000Y4000000D01*
X4267500D01*
G01X4000000Y3960000D02*
X4140000D01*
X4150000Y3950000D01*
X4267500D01*
G01X4000000Y3800000D02*
X4100000Y3900000D01*
X4267500D01*
G01X4100000Y3800000D02*
X4150000Y3850000D01*
X4267500D01*
G01X4100000Y4567500D02*
X4131170D01*
X4176170Y4522500D01*
X4177500D01*
X4180000Y4520000D01*
X4564860D01*
X4960000Y4124860D01*
Y3985420D01*
X5220000Y3725420D01*
Y2260000D01*
X5250000Y2230000D01*
Y2050000D01*
X5200000Y2000000D01*
Y1900000D01*
G01X4050000Y4567500D02*
Y4650000D01*
X4070000Y4670000D01*
X4140000D01*
X4170000Y4640000D01*
X4529720D01*
X5020000Y4149720D01*
Y4010280D01*
X5280000Y3750280D01*
Y3130000D01*
X5310000Y3100000D01*
G01X4000000Y4567500D02*
Y4660000D01*
X4100000Y4760000D01*
X4494580D01*
X5080000Y4174580D01*
Y4035140D01*
X5340000Y3775140D01*
Y3260000D01*
X5400000Y3200000D01*
G01X5050000Y4800000D02*
X4880000Y4970000D01*
X4110000D01*
X3800000Y4660000D01*
Y4567500D01*
G01X5050000Y4680000D02*
X4990000Y4740000D01*
X4900000D01*
X4730000Y4910000D01*
X4150000D01*
X3900000Y4660000D01*
Y4567500D01*
G01X4950000Y4800000D02*
X4810000Y4940000D01*
X4130000D01*
X3850000Y4660000D01*
Y4567500D01*
G01X4950000Y4680000D02*
X4900000D01*
X4700000Y4880000D01*
X4170000D01*
X3950000Y4660000D01*
Y4567500D01*
G01X3655000Y5400000D02*
Y5315000D01*
X3650000Y5310000D01*
G01X3950000Y5050000D02*
X3890000Y5110000D01*
Y5560000D01*
X3850000Y5600000D01*
X3680000D01*
X3655000Y5625000D01*
Y5660000D01*
G01X3950000Y4950000D02*
X3860000Y5040000D01*
Y5430000D01*
X3820000Y5470000D01*
X3680000D01*
X3655000Y5495000D01*
Y5530000D01*
G01X3852000Y6350000D02*
X4002000Y6200000D01*
X4300000D01*
X4790000Y5710000D01*
Y5510000D01*
X4830000Y5470000D01*
X4987500D01*
G01X4908000Y1100000D02*
Y1008000D01*
X4400000Y500000D01*
G01X5035000Y1100000D02*
Y935000D01*
X4600000Y500000D01*
G01X4527000Y1227000D02*
Y1473000D01*
X4500000Y1500000D01*
G01X4690000Y2000000D02*
Y1940000D01*
X4550000Y1800000D01*
X4350000D01*
X4250000Y1700000D01*
G01X4908000Y1227000D02*
Y1362000D01*
X4650000Y1620000D01*
Y1700000D01*
G01X4570000Y2450000D02*
X4600000Y2480000D01*
Y3360000D01*
X4570000Y3390000D01*
G01X4690000Y2450000D02*
X4660000Y2480000D01*
Y3460000D01*
X4550000Y3570000D01*
X4460000D01*
G01X5543000Y1227000D02*
Y1317000D01*
X5420000Y1440000D01*
X5110000D01*
X4870000Y1680000D01*
Y2610000D01*
X4810000Y2670000D01*
Y3560000D01*
X4620000Y3750000D01*
X4267500D01*
G01X5416000Y1227000D02*
Y1314000D01*
X5320000Y1410000D01*
X5090000D01*
X4840000Y1660000D01*
Y2590000D01*
X4780000Y2650000D01*
Y3540000D01*
X4600000Y3720000D01*
X4370000D01*
X4350000Y3700000D01*
X4267500D01*
G01X5289000Y1227000D02*
Y1311000D01*
X5220000Y1380000D01*
X5070000D01*
X4810000Y1640000D01*
Y2570000D01*
X4750000Y2630000D01*
Y3520000D01*
X4580000Y3690000D01*
X4390000D01*
X4350000Y3650000D01*
X4267500D01*
G01X5162000Y1227000D02*
Y1308000D01*
X5120000Y1350000D01*
X5050000D01*
X4780000Y1620000D01*
Y2550000D01*
X4720000Y2610000D01*
Y3500000D01*
X4560000Y3660000D01*
X4410000D01*
X4350000Y3600000D01*
X4267500D01*
G01X5035000Y1227000D02*
Y1305000D01*
X4750000Y1590000D01*
Y2530000D01*
X4690000Y2590000D01*
Y3480000D01*
X4540000Y3630000D01*
X4430000D01*
X4350000Y3550000D01*
X4267500D01*
G01Y3500000D02*
X4400000D01*
X4420000Y3480000D01*
X4455000D01*
G01X4950000Y3620000D02*
X4835000D01*
X4650000Y3805000D01*
G01X4550000D02*
X4650000D01*
G01X4267500Y3900000D02*
X4445000D01*
X4450000Y3905000D01*
G01X4550000Y3805000D02*
X4545000Y3800000D01*
X4267500D01*
G01X5080000Y2270000D02*
X5130000Y2320000D01*
Y3688130D01*
X4870000Y3948130D01*
Y4087570D01*
X4557570Y4400000D01*
X4510000D01*
G01X4200000Y4580000D02*
X4547290D01*
X4990000Y4137290D01*
Y3997850D01*
X5250000Y3737850D01*
Y2290000D01*
X5310000Y2230000D01*
Y2180000D01*
G01X4200000Y4820000D02*
X4477010D01*
X5110000Y4187010D01*
Y4047570D01*
X5370000Y3787570D01*
Y3330000D01*
X5500000Y3200000D01*
G01X4200000Y4700000D02*
X4512150D01*
X5050000Y4162150D01*
Y4022710D01*
X5310000Y3762710D01*
Y3190000D01*
X5370000Y3130000D01*
Y2290000D01*
X5430000Y2230000D01*
Y2180000D01*
G01X4120000Y4420000D02*
X4190000Y4490000D01*
X4552430D01*
X4930000Y4112430D01*
Y3972990D01*
X5190000Y3712990D01*
Y2180000D01*
G01X4267500Y4400000D02*
X4360000D01*
X4420000Y4460000D01*
X4540000D01*
X4900000Y4100000D01*
Y3960560D01*
X5160000Y3700560D01*
Y2260000D01*
X5130000Y2230000D01*
Y2130000D01*
X5000000Y2000000D01*
Y1900000D01*
G01X4267500Y4350000D02*
X4370000D01*
X4380000Y4360000D01*
X4450000D01*
X4510000Y4300000D01*
G01X4267500D02*
X4410000D01*
G01X4412500Y5470000D02*
X4550000D01*
G01X4412500Y5600000D02*
X4550000D01*
G01X4412500Y5730000D02*
X4550000D01*
G01X4195000Y5790000D02*
X4280000D01*
G01X4412500Y5795000D02*
X4285000D01*
X4280000Y5790000D01*
G01X4195000Y5660000D02*
X4280000D01*
G01X4412500Y5665000D02*
X4285000D01*
X4280000Y5660000D01*
G01X4195000Y5530000D02*
X4280000D01*
G01X4412500Y5535000D02*
X4285000D01*
X4280000Y5530000D01*
G01X5162000Y1100000D02*
Y862000D01*
X4800000Y500000D01*
G01X4920000Y2000000D02*
X4900000Y1980000D01*
Y1840000D01*
X4940000Y1800000D01*
X5070000D01*
X5100000Y1830000D01*
G01X4690000Y2000000D02*
Y2450000D01*
G01X5190000Y2180000D02*
Y2090000D01*
X5100000Y2000000D01*
Y1830000D01*
G01D02*
X5130000Y1800000D01*
X5260000D01*
X5300000Y1840000D01*
G01X5050000Y2350000D02*
X5100000Y2400000D01*
Y3560000D01*
X5040000Y3620000D01*
X4950000D01*
G01X5500000Y3300000D02*
X5400000Y3400000D01*
Y3800000D01*
X5140000Y4060000D01*
Y5010000D01*
X5000000Y5150000D01*
G01X4987500Y5470000D02*
X5175000D01*
X5205000Y5500000D01*
G01X4987500Y5600000D02*
X5120000D01*
G01X5205000D02*
X5120000D01*
G01X4987500Y5535000D02*
X4855000D01*
X4850000Y5540000D01*
G01X4987500Y5405000D02*
X4855000D01*
X4850000Y5410000D01*
G01X5600000Y1900000D02*
Y2000000D01*
X5490000Y2109990D01*
Y2230000D01*
X5400000Y2320000D01*
Y3200000D01*
G01X5430000Y2180000D02*
X5420000Y2170000D01*
Y2080000D01*
X5500000Y2000000D01*
Y1840000D01*
X5460000Y1800000D01*
X5340000D01*
X5300000Y1840000D01*
G01X5400000Y1900000D02*
Y2000000D01*
X5370000Y2030000D01*
Y2230000D01*
X5310000Y2290000D01*
Y3100000D01*
G01Y2180000D02*
X5300000Y2170000D01*
Y1840000D01*
G01X5500000Y3400000D02*
X5430000Y3470000D01*
Y3820000D01*
X5205000Y4045000D01*
Y4412500D01*
G01X5335000D02*
Y3965000D01*
X5460000Y3840000D01*
Y3540000D01*
X5500000Y3500000D01*
G01X5270000Y4412500D02*
Y4245000D01*
G01X5400000Y4412500D02*
Y4245000D01*
G01X5530000Y4412500D02*
Y4245000D01*
G01X5905000Y3700000D02*
X5820000D01*
X5730000Y3790000D01*
Y4570000D01*
X5600000Y4700000D01*
X5380000D01*
X5270000Y4810000D01*
Y4987500D01*
G01X5460000Y3940000D02*
Y4030000D01*
X5465000Y4035000D01*
Y4412500D01*
G01X5530000Y4987500D02*
Y4820000D01*
X5560000Y4790000D01*
X5840000D01*
X5850610Y4800610D01*
X5904390D01*
X5905000Y4800000D01*
G01X5270000Y4550000D02*
Y4412500D01*
G01X5400000D02*
Y4550000D01*
G01X5530000Y4412500D02*
Y4550000D01*
G01X5905000Y3800000D02*
X5820000D01*
X5760000Y3860000D01*
Y4590000D01*
X5620000Y4730000D01*
X5470000D01*
X5400000Y4800000D01*
Y4987500D01*
G01X5335000D02*
Y5150000D01*
X5340000Y5155000D01*
G01X5330000Y4850000D02*
X5335000Y4855000D01*
Y4987500D01*
G01X5465000D02*
Y5150000D01*
X5470000Y5155000D01*
G01X5460000Y4850000D02*
X5465000Y4855000D01*
Y4987500D01*
G01X5595000D02*
Y5150000D01*
X5600000Y5155000D01*
G01X5590000Y4850000D02*
X5595000Y4855000D01*
Y4987500D01*
G01X6230000Y2350000D02*
X6235000Y2355000D01*
Y2450000D01*
G01X5995000Y3700000D02*
X6100000D01*
X6125000Y3675000D01*
X6425000D01*
X6551000Y3801000D01*
Y3802000D01*
G01X5995000Y4000000D02*
X6100000D01*
X6156000Y4056000D01*
X6297000D01*
G01Y3802000D02*
X6102000D01*
X6100000Y3800000D01*
X5995000D01*
G01Y3900000D02*
X6100000D01*
X6129000Y3929000D01*
X6424000D01*
X6551000Y4056000D01*
G01X5905000Y4000000D02*
X5820000D01*
G01X5905000Y3900000D02*
X5820000D01*
G01X5995000Y4400000D02*
X6100000D01*
X6137000Y4437000D01*
X6424000D01*
X6551000Y4310000D01*
G01X6297000Y4564000D02*
X6164000D01*
X6100000Y4500000D01*
X5995000D01*
G01Y4600000D02*
X6100000D01*
X6191000Y4691000D01*
X6424000D01*
X6551000Y4564000D01*
G01X6297000Y4818000D02*
X6118000D01*
X6100000Y4800000D01*
X5995000D01*
G01X5905000Y4700000D02*
Y4800000D01*
G01X6297000Y4310000D02*
X6110000D01*
X6100000Y4300000D01*
X5995000D01*
G01X5905000Y4400000D02*
X5820000D01*
G01X5905000Y4500000D02*
X5820000D01*
G01X5905000Y4600000D02*
X5820000D01*
G01X5905000Y4300000D02*
X5820000D01*
G01X5995000Y5000000D02*
X6100000D01*
X6172000Y5072000D01*
X6297000D01*
G01X5905000Y5000000D02*
X5820000D01*
G01X5995000Y4900000D02*
X6100000D01*
X6145000Y4945000D01*
X6424000D01*
X6551000Y5072000D01*
G01X5905000Y4900000D02*
X5820000D01*
G01X6775000Y1132500D02*
Y970000D01*
X6800000Y945000D01*
G01X6725000Y1132500D02*
Y1265000D01*
X6730000Y1270000D01*
G01X6325000Y2267500D02*
Y2450000D01*
G01X6905000Y5500000D02*
X6471000D01*
X6297000Y5326000D01*
G01X6905000Y5350000D02*
X6575000D01*
X6551000Y5326000D01*
G01X6750000Y6245000D02*
Y6600000D01*
G01X6850000Y6245000D02*
X6750000D01*
G01X6450000D02*
Y6550000D01*
X6500000Y6600000D01*
G01X6550000Y6245000D02*
X6450000D01*
G01X6750000Y6155000D02*
Y5950000D01*
G01Y6155000D02*
X6650000D01*
G01X6450000D02*
Y5950000D01*
G01Y6155000D02*
X6350000D01*
G01X6825000Y1132500D02*
Y1020000D01*
X6900000Y945000D01*
G01X7075000Y1132500D02*
Y1265000D01*
X7080000Y1270000D01*
G01X7267500Y1325000D02*
X7405000D01*
X7410000Y1330000D01*
G01X7267500Y1425000D02*
X7135000D01*
X7130000Y1430000D01*
G01X7450000Y1920000D02*
X7360000D01*
X7355000Y1925000D01*
X7267500D01*
G01X7265000Y2400000D02*
X7267500Y2397500D01*
Y2075000D01*
G01X7130000Y1970000D02*
X7135000Y1975000D01*
X7267500D01*
G01X7450000Y2500000D02*
X7200000D01*
G01D02*
X7145000Y2555000D01*
Y2950000D01*
G01X7170000Y2300000D02*
X7175000Y2305000D01*
Y2400000D01*
G01X7239000Y3492500D02*
X7143750Y3397250D01*
Y3001250D01*
X7145000Y3000000D01*
Y2950000D01*
G01X7239000Y3619500D02*
X7143750Y3714750D01*
G01X7112000Y3619500D02*
X7091500Y3640000D01*
X6850000D01*
G01X7170000Y5350000D02*
X6995000D01*
G01X7170000Y5500000D02*
X6995000D01*
G01X7050000Y6155000D02*
Y5950000D01*
G01Y6155000D02*
X6950000D01*
G01X7050000Y6245000D02*
Y6550000D01*
X7000000Y6600000D01*
G01X7150000Y6245000D02*
X7050000D01*
G01X7450000Y2205000D02*
Y2080000D01*
G54D19*
X2732500Y3200000D03*
Y3250000D03*
Y3300000D03*
Y3350000D03*
Y3400000D03*
Y3450000D03*
Y3500000D03*
Y3550000D03*
Y3600000D03*
Y3650000D03*
Y3700000D03*
Y3750000D03*
Y3800000D03*
Y3850000D03*
Y3900000D03*
Y3950000D03*
Y4000000D03*
Y4050000D03*
Y4100000D03*
Y4150000D03*
Y4200000D03*
Y4250000D03*
Y4300000D03*
Y4400000D03*
Y4350000D03*
X4267500Y3200000D03*
Y3250000D03*
Y3300000D03*
Y3350000D03*
Y3400000D03*
Y3450000D03*
Y3500000D03*
Y3550000D03*
Y3600000D03*
Y3650000D03*
Y3700000D03*
Y3750000D03*
Y3800000D03*
Y3850000D03*
Y3900000D03*
Y3950000D03*
Y4100000D03*
Y4150000D03*
Y4200000D03*
Y4000000D03*
Y4050000D03*
Y4250000D03*
Y4300000D03*
Y4350000D03*
Y4400000D03*
X6132500Y1525000D03*
Y1575000D03*
Y1375000D03*
Y1325000D03*
Y1425000D03*
Y1475000D03*
Y2075000D03*
Y1825000D03*
Y1875000D03*
Y1925000D03*
Y1975000D03*
Y2025000D03*
Y1625000D03*
Y1675000D03*
Y1725000D03*
Y1775000D03*
X7267500Y1575000D03*
Y1525000D03*
Y1425000D03*
Y1375000D03*
Y1325000D03*
Y1475000D03*
Y2075000D03*
Y1975000D03*
Y1925000D03*
Y1875000D03*
Y1825000D03*
Y1775000D03*
Y2025000D03*
Y1725000D03*
Y1675000D03*
Y1625000D03*
G54D28*
X6280000Y610000D03*
X6440000D03*
X6360000D03*
X6520000D03*
X6600000D03*
G54D38*
G01X1375000Y2105000D02*
Y2065000D01*
X1345000Y2035000D01*
Y2000000D01*
G01X1255000D02*
Y2035000D01*
X1225000Y2065000D01*
Y2105000D01*
G01X1335000Y4800000D02*
Y4700000D01*
G01X2732500Y3400000D02*
X2620000D01*
X2610000Y3390000D01*
G01X2732500Y3450000D02*
X2610000D01*
X2600000Y3440000D01*
G01X1595000Y4800000D02*
Y4700000D01*
G01X2732500Y3500000D02*
X2600000D01*
X2590000Y3490000D01*
G01X2732500Y4350000D02*
X2630000D01*
G01X2600000Y3340000D02*
X2620000D01*
X2630000Y3350000D01*
X2732500D01*
G01X2470000Y3200000D02*
X2590000D01*
X2640000Y3250000D01*
X2732500D01*
G01X2595000Y3735000D02*
X2450000D01*
G01X2732500Y3550000D02*
X2590000D01*
X2580000Y3540000D01*
G01X2732500Y3650000D02*
X2620000D01*
X2590000Y3680000D01*
X2520000D01*
X2485000Y3645000D01*
X2450000D01*
G01X2350000Y4085000D02*
X2410000D01*
X2425000Y4070000D01*
X2610000D01*
X2630000Y4050000D01*
X2732500D01*
G01X2350000Y3985000D02*
X2405000D01*
X2492500Y3897500D01*
X2642470D01*
X2644970Y3900000D01*
X2732500D01*
G01Y4300000D02*
X2630000D01*
G01X2490000Y4000000D02*
X2552500Y3937500D01*
X2625900D01*
X2638400Y3950000D01*
X2732500D01*
G01X2490000Y4220000D02*
X2560000Y4150000D01*
X2732500D01*
G01X2350000Y3895000D02*
X2405000D01*
X2450000Y3850000D01*
X2732500D01*
G01Y3800000D02*
X2400000D01*
X2395000Y3795000D01*
X2350000D01*
G01Y4175000D02*
X2405000D01*
X2470000Y4110000D01*
X2630000D01*
X2640000Y4100000D01*
X2732500D01*
G01Y4400000D02*
X2630000D01*
G01X2550000Y3130000D02*
X2580000D01*
X2650000Y3200000D01*
X2732500D01*
G01Y3700000D02*
X2630000D01*
X2595000Y3735000D01*
G01D02*
X2610000Y3750000D01*
X2732500D01*
G01X2550000Y3270000D02*
X2600000D01*
X2630000Y3300000D01*
X2732500D01*
G01X2560000Y3610000D02*
X2570000Y3600000D01*
X2732500D01*
G01X2590000Y4000000D02*
X2732500D01*
G01X2590000Y4220000D02*
X2610000Y4200000D01*
X2732500D01*
G01X3410000Y2570000D02*
X3420000Y2580000D01*
G01D02*
Y2910000D01*
X3450000Y2940000D01*
Y3032500D01*
G01X3150000Y2745000D02*
Y2795000D01*
X3250000Y2895000D01*
Y3032500D01*
G01X3500000Y4567500D02*
Y4666570D01*
X3555000Y4721570D01*
Y4800000D01*
G01X3550000Y4567500D02*
Y4660000D01*
X3645000Y4755000D01*
Y4800000D01*
G01X3600000Y3032500D02*
Y2940000D01*
X3650000Y2890000D01*
Y2845000D01*
G01X4420000Y3205000D02*
X4415000Y3200000D01*
X4267500D01*
G01Y3350000D02*
X4365000D01*
X4420000Y3295000D01*
G01X4267500Y4150000D02*
X4360000D01*
X4405000Y4105000D01*
X4450000D01*
G01Y4195000D02*
X4385000D01*
X4380000Y4200000D01*
X4267500D01*
G01X5950000Y1325000D02*
X5850000D01*
G01X5950000D02*
X6132500D01*
G01Y1575000D02*
X5980000D01*
X5950000Y1605000D01*
G01X6132500Y1875000D02*
X5945000D01*
X5930000Y1860000D01*
G01X6132500Y1725000D02*
X5980000D01*
X5950000Y1695000D01*
G01X6695000Y950000D02*
Y995000D01*
X6670000Y1020000D01*
X6525000D01*
G01Y1132500D02*
Y1020000D01*
G01D02*
X6500000D01*
X6475000Y1045000D01*
Y1132500D01*
G01X6675000Y2267500D02*
Y2385000D01*
X6655000Y2405000D01*
G01D02*
Y2450000D01*
G01X6625000Y2267500D02*
Y2375000D01*
X6655000Y2405000D01*
G01X6725000Y2267500D02*
Y2390000D01*
X6745000Y2410000D01*
Y2450000D01*
G01X6575000Y2267500D02*
Y2405000D01*
X6570000Y2410000D01*
G01X7267500Y1675000D02*
X7375000D01*
X7395000Y1695000D01*
X7450000D01*
G01X7267500Y1625000D02*
X7375000D01*
X7395000Y1605000D01*
X7450000D01*
G01X6925000Y2267500D02*
Y2405000D01*
X6920000Y2410000D01*
G54D29*
X6340000Y856250D03*
Y943750D03*
X6420000Y856250D03*
X6380000D03*
Y943750D03*
X6420000D03*
G54D39*
G01X3012500Y1105000D02*
X3145000D01*
G01D02*
X3150000Y1110000D01*
G01X3487500Y5795000D02*
X3595000D01*
X3600000Y5790000D01*
X3655000D01*
G01X3587500Y1495000D02*
X3750000D01*
G01X4412500Y5405000D02*
X4285000D01*
X4280000Y5400000D01*
X4195000D01*
G01X5205000Y4987500D02*
Y5150000D01*
X5200000Y5155000D01*
G01X5120000Y5800000D02*
X5115000Y5795000D01*
G01D02*
X4987500D01*
G01X5595000Y4412500D02*
Y4305000D01*
X5630000Y4270000D01*
M02*
